<svg width="202" height="234" viewBox="0 0 202 234" fill="none" xmlns="http://www.w3.org/2000/svg">
<path d="M98.7661 116.806L71.6892 101.172L98.7661 85.5403L125.843 101.172L98.7661 116.806Z" fill="#B5FF00"/>
<path d="M98.7661 116.806L71.6892 101.172L98.7661 85.5403L125.843 101.172L98.7661 116.806Z" stroke="#0D0D0D" stroke-width="1.81808" stroke-linecap="round" stroke-linejoin="round"/>
<path d="M125.843 132.439L98.7661 148.072V116.806L125.843 101.174V132.439Z" fill="#B5FF00"/>
<path d="M125.843 132.439L98.7661 148.072V116.806L125.843 101.174V132.439Z" stroke="#0D0D0D" stroke-width="1.81808" stroke-linecap="round" stroke-linejoin="round"/>
<path d="M98.767 148.072L71.6929 132.439V101.171L98.7697 116.803V148.069L98.767 148.072Z" fill="#0D0D0D"/>
<path d="M98.767 148.072L71.6929 132.439V101.171L98.7697 116.803V148.069L98.767 148.072Z" stroke="#0D0D0D" stroke-width="1.81808" stroke-linecap="round" stroke-linejoin="round"/>
<path d="M98.7661 74.5358L71.6892 58.902L98.7661 43.27L125.843 58.902L98.7661 74.5358Z" fill="#B5FF00"/>
<path d="M98.7661 74.5358L71.6892 58.902L98.7661 43.27L125.843 58.902L98.7661 74.5358Z" stroke="#0D0D0D" stroke-width="1.81808" stroke-linecap="round" stroke-linejoin="round"/>
<path d="M125.843 90.1686L98.7661 105.801V74.5358L125.843 58.9038V90.1686Z" fill="#B5FF00"/>
<path d="M125.843 90.1686L98.7661 105.801V74.5358L125.843 58.9038V90.1686Z" stroke="#0D0D0D" stroke-width="1.81808" stroke-linecap="round" stroke-linejoin="round"/>
<path d="M98.767 105.802L71.6929 90.1687V58.9011L98.7697 74.5331V105.799L98.767 105.802Z" fill="#0D0D0D"/>
<path d="M98.767 105.802L71.6929 90.1687V58.9011L98.7697 74.5331V105.799L98.767 105.802Z" stroke="#0D0D0D" stroke-width="1.81808" stroke-linecap="round" stroke-linejoin="round"/>
<path d="M98.7661 32.2657L71.6892 16.632L98.7661 1L125.843 16.632L98.7661 32.2657Z" fill="#B5FF00"/>
<path d="M98.7661 32.2657L71.6892 16.632L98.7661 1L125.843 16.632L98.7661 32.2657Z" stroke="#0D0D0D" stroke-width="1.81808" stroke-linecap="round" stroke-linejoin="round"/>
<path d="M125.843 47.8986L98.7661 63.5315V32.2657L125.843 16.6338V47.8986Z" fill="#B5FF00"/>
<path d="M125.843 47.8986L98.7661 63.5315V32.2657L125.843 16.6338V47.8986Z" stroke="#0D0D0D" stroke-width="1.81808" stroke-linecap="round" stroke-linejoin="round"/>
<path d="M98.767 63.5315L71.6929 47.8987V16.6311L98.7697 32.2631V63.5288L98.767 63.5315Z" fill="#0D0D0D"/>
<path d="M98.767 63.5315L71.6929 47.8987V16.6311L98.7697 32.2631V63.5288L98.767 63.5315Z" stroke="#0D0D0D" stroke-width="1.81808" stroke-linecap="round" stroke-linejoin="round"/>
<path d="M136.021 138.299L108.944 122.666L136.021 107.034L163.098 122.666L136.021 138.299Z" fill="#B5FF00"/>
<path d="M136.021 138.299L108.944 122.666L136.021 107.034L163.098 122.666L136.021 138.299Z" stroke="#0D0D0D" stroke-width="1.81808" stroke-linecap="round" stroke-linejoin="round"/>
<path d="M163.098 153.932L136.021 169.565V138.299L163.098 122.667V153.932Z" fill="#B5FF00"/>
<path d="M163.098 153.932L136.021 169.565V138.299L163.098 122.667V153.932Z" stroke="#0D0D0D" stroke-width="1.81808" stroke-linecap="round" stroke-linejoin="round"/>
<path d="M136.022 169.565L108.948 153.932V122.665L136.025 138.297V169.562L136.022 169.565Z" fill="#0D0D0D"/>
<path d="M136.022 169.565L108.948 153.932V122.665L136.025 138.297V169.562L136.022 169.565Z" stroke="#0D0D0D" stroke-width="1.81808" stroke-linecap="round" stroke-linejoin="round"/>
<path d="M136.021 96.0292L108.944 80.3954L136.021 64.7634L163.098 80.3954L136.021 96.0292Z" fill="#B5FF00"/>
<path d="M136.021 96.0292L108.944 80.3954L136.021 64.7634L163.098 80.3954L136.021 96.0292Z" stroke="#0D0D0D" stroke-width="1.81808" stroke-linecap="round" stroke-linejoin="round"/>
<path d="M163.098 111.662L136.021 127.295V96.0292L163.098 80.3972V111.662Z" fill="#B5FF00"/>
<path d="M163.098 111.662L136.021 127.295V96.0292L163.098 80.3972V111.662Z" stroke="#0D0D0D" stroke-width="1.81808" stroke-linecap="round" stroke-linejoin="round"/>
<path d="M136.022 127.295L108.948 111.662V80.3945L136.025 96.0265V127.292L136.022 127.295Z" fill="#0D0D0D"/>
<path d="M136.022 127.295L108.948 111.662V80.3945L136.025 96.0265V127.292L136.022 127.295Z" stroke="#0D0D0D" stroke-width="1.81808" stroke-linecap="round" stroke-linejoin="round"/>
<path d="M136.021 53.759L108.944 38.1252L136.021 22.4933L163.098 38.1252L136.021 53.759Z" fill="#B5FF00"/>
<path d="M136.021 53.759L108.944 38.1252L136.021 22.4933L163.098 38.1252L136.021 53.759Z" stroke="#0D0D0D" stroke-width="1.81808" stroke-linecap="round" stroke-linejoin="round"/>
<path d="M163.098 69.3919L136.021 85.0248V53.759L163.098 38.1271V69.3919Z" fill="#B5FF00"/>
<path d="M163.098 69.3919L136.021 85.0248V53.759L163.098 38.1271V69.3919Z" stroke="#0D0D0D" stroke-width="1.81808" stroke-linecap="round" stroke-linejoin="round"/>
<path d="M136.022 85.0248L108.948 69.3919V38.1244L136.025 53.7563V85.0221L136.022 85.0248Z" fill="#0D0D0D"/>
<path d="M136.022 85.0248L108.948 69.3919V38.1244L136.025 53.7563V85.0221L136.022 85.0248Z" stroke="#0D0D0D" stroke-width="1.81808" stroke-linecap="round" stroke-linejoin="round"/>
<path d="M173.276 159.793L146.199 144.159L173.276 128.527L200.353 144.159L173.276 159.793Z" fill="#B5FF00"/>
<path d="M173.276 159.793L146.199 144.159L173.276 128.527L200.353 144.159L173.276 159.793Z" stroke="#0D0D0D" stroke-width="1.81808" stroke-linecap="round" stroke-linejoin="round"/>
<path d="M200.353 175.425L173.276 191.058V159.793L200.353 144.161V175.425Z" fill="#B5FF00"/>
<path d="M200.353 175.425L173.276 191.058V159.793L200.353 144.161V175.425Z" stroke="#0D0D0D" stroke-width="1.81808" stroke-linecap="round" stroke-linejoin="round"/>
<path d="M173.277 191.058L146.203 175.426V144.158L173.28 159.79V191.056L173.277 191.058Z" fill="#0D0D0D"/>
<path d="M173.277 191.058L146.203 175.426V144.158L173.28 159.79V191.056L173.277 191.058Z" stroke="#0D0D0D" stroke-width="1.81808" stroke-linecap="round" stroke-linejoin="round"/>
<path d="M173.276 117.523L146.199 101.889L173.276 86.2568L200.353 101.889L173.276 117.523Z" fill="#B5FF00"/>
<path d="M173.276 117.523L146.199 101.889L173.276 86.2568L200.353 101.889L173.276 117.523Z" stroke="#0D0D0D" stroke-width="1.81808" stroke-linecap="round" stroke-linejoin="round"/>
<path d="M200.353 133.155L173.276 148.788V117.523L200.353 101.891V133.155Z" fill="#B5FF00"/>
<path d="M200.353 133.155L173.276 148.788V117.523L200.353 101.891V133.155Z" stroke="#0D0D0D" stroke-width="1.81808" stroke-linecap="round" stroke-linejoin="round"/>
<path d="M173.277 148.788L146.203 133.155V101.888L173.28 117.52V148.786L173.277 148.788Z" fill="#0D0D0D"/>
<path d="M173.277 148.788L146.203 133.155V101.888L173.28 117.52V148.786L173.277 148.788Z" stroke="#0D0D0D" stroke-width="1.81808" stroke-linecap="round" stroke-linejoin="round"/>
<path d="M173.276 75.2521L146.199 59.6183L173.276 43.9863L200.353 59.6183L173.276 75.2521Z" fill="#B5FF00"/>
<path d="M173.276 75.2521L146.199 59.6183L173.276 43.9863L200.353 59.6183L173.276 75.2521Z" stroke="#0D0D0D" stroke-width="1.81808" stroke-linecap="round" stroke-linejoin="round"/>
<path d="M200.353 90.8849L173.276 106.518V75.2521L200.353 59.6201V90.8849Z" fill="#B5FF00"/>
<path d="M200.353 90.8849L173.276 106.518V75.2521L200.353 59.6201V90.8849Z" stroke="#0D0D0D" stroke-width="1.81808" stroke-linecap="round" stroke-linejoin="round"/>
<path d="M173.277 106.518L146.203 90.885V59.6174L173.28 75.2494V106.515L173.277 106.518Z" fill="#0D0D0D"/>
<path d="M173.277 106.518L146.203 90.885V59.6174L173.28 75.2494V106.515L173.277 106.518Z" stroke="#0D0D0D" stroke-width="1.81808" stroke-linecap="round" stroke-linejoin="round"/>
<path d="M63.4215 137.344L36.3446 121.71L63.4215 106.078L90.4983 121.71L63.4215 137.344Z" fill="#B5FF00"/>
<path d="M63.4215 137.344L36.3446 121.71L63.4215 106.078L90.4983 121.71L63.4215 137.344Z" stroke="#0D0D0D" stroke-width="1.81808" stroke-linecap="round" stroke-linejoin="round"/>
<path d="M90.4983 152.977L63.4215 168.61V137.344L90.4983 121.712V152.977Z" fill="#B5FF00"/>
<path d="M90.4983 152.977L63.4215 168.61V137.344L90.4983 121.712V152.977Z" stroke="#0D0D0D" stroke-width="1.81808" stroke-linecap="round" stroke-linejoin="round"/>
<path d="M63.4224 168.61L36.3483 152.977V121.709L63.4251 137.341V168.607L63.4224 168.61Z" fill="#0D0D0D"/>
<path d="M63.4224 168.61L36.3483 152.977V121.709L63.4251 137.341V168.607L63.4224 168.61Z" stroke="#0D0D0D" stroke-width="1.81808" stroke-linecap="round" stroke-linejoin="round"/>
<path d="M63.4215 95.0738L36.3446 79.4401L63.4215 63.8081L90.4983 79.4401L63.4215 95.0738Z" fill="#B5FF00"/>
<path d="M63.4215 95.0738L36.3446 79.4401L63.4215 63.8081L90.4983 79.4401L63.4215 95.0738Z" stroke="#0D0D0D" stroke-width="1.81808" stroke-linecap="round" stroke-linejoin="round"/>
<path d="M90.4983 110.707L63.4215 126.34V95.0738L90.4983 79.4419V110.707Z" fill="#B5FF00"/>
<path d="M90.4983 110.707L63.4215 126.34V95.0738L90.4983 79.4419V110.707Z" stroke="#0D0D0D" stroke-width="1.81808" stroke-linecap="round" stroke-linejoin="round"/>
<path d="M63.4224 126.34L36.3483 110.707V79.4392L63.4251 95.0712V126.337L63.4224 126.34Z" fill="#0D0D0D"/>
<path d="M63.4224 126.34L36.3483 110.707V79.4392L63.4251 95.0712V126.337L63.4224 126.34Z" stroke="#0D0D0D" stroke-width="1.81808" stroke-linecap="round" stroke-linejoin="round"/>
<path d="M63.4215 52.8038L36.3446 37.17L63.4215 21.5381L90.4983 37.17L63.4215 52.8038Z" fill="#B5FF00"/>
<path d="M63.4215 52.8038L36.3446 37.17L63.4215 21.5381L90.4983 37.17L63.4215 52.8038Z" stroke="#0D0D0D" stroke-width="1.81808" stroke-linecap="round" stroke-linejoin="round"/>
<path d="M90.4983 68.4367L63.4215 84.0696V52.8038L90.4983 37.1719V68.4367Z" fill="#B5FF00"/>
<path d="M90.4983 68.4367L63.4215 84.0696V52.8038L90.4983 37.1719V68.4367Z" stroke="#0D0D0D" stroke-width="1.81808" stroke-linecap="round" stroke-linejoin="round"/>
<path d="M63.4224 84.0696L36.3483 68.4367V37.1692L63.4251 52.8011V84.0669L63.4224 84.0696Z" fill="#0D0D0D"/>
<path d="M63.4224 84.0696L36.3483 68.4367V37.1692L63.4251 52.8011V84.0669L63.4224 84.0696Z" stroke="#0D0D0D" stroke-width="1.81808" stroke-linecap="round" stroke-linejoin="round"/>
<path d="M100.677 158.838L73.5997 143.204L100.677 127.572L127.753 143.204L100.677 158.838Z" fill="#B5FF00"/>
<path d="M100.677 158.838L73.5997 143.204L100.677 127.572L127.753 143.204L100.677 158.838Z" stroke="#0D0D0D" stroke-width="1.81808" stroke-linecap="round" stroke-linejoin="round"/>
<path d="M127.753 174.47L100.677 190.103V158.838L127.753 143.206V174.47Z" fill="#B5FF00"/>
<path d="M127.753 174.47L100.677 190.103V158.838L127.753 143.206V174.47Z" stroke="#0D0D0D" stroke-width="1.81808" stroke-linecap="round" stroke-linejoin="round"/>
<path d="M100.677 190.103L73.6034 174.47V143.203L100.68 158.835V190.101L100.677 190.103Z" fill="#0D0D0D"/>
<path d="M100.677 190.103L73.6034 174.47V143.203L100.68 158.835V190.101L100.677 190.103Z" stroke="#0D0D0D" stroke-width="1.81808" stroke-linecap="round" stroke-linejoin="round"/>
<path d="M100.677 116.567L73.5997 100.933L100.677 85.3015L127.753 100.933L100.677 116.567Z" fill="#B5FF00"/>
<path d="M100.677 116.567L73.5997 100.933L100.677 85.3015L127.753 100.933L100.677 116.567Z" stroke="#0D0D0D" stroke-width="1.81808" stroke-linecap="round" stroke-linejoin="round"/>
<path d="M127.753 132.2L100.677 147.833V116.567L127.753 100.935V132.2Z" fill="#B5FF00"/>
<path d="M127.753 132.2L100.677 147.833V116.567L127.753 100.935V132.2Z" stroke="#0D0D0D" stroke-width="1.81808" stroke-linecap="round" stroke-linejoin="round"/>
<path d="M100.677 147.833L73.6034 132.2V100.933L100.68 116.565V147.83L100.677 147.833Z" fill="#0D0D0D"/>
<path d="M100.677 147.833L73.6034 132.2V100.933L100.68 116.565V147.83L100.677 147.833Z" stroke="#0D0D0D" stroke-width="1.81808" stroke-linecap="round" stroke-linejoin="round"/>
<path d="M100.677 74.297L73.5997 58.6632L100.677 43.0312L127.753 58.6632L100.677 74.297Z" fill="#B5FF00"/>
<path d="M100.677 74.297L73.5997 58.6632L100.677 43.0312L127.753 58.6632L100.677 74.297Z" stroke="#0D0D0D" stroke-width="1.81808" stroke-linecap="round" stroke-linejoin="round"/>
<path d="M127.753 89.9299L100.677 105.563V74.297L127.753 58.665V89.9299Z" fill="#B5FF00"/>
<path d="M127.753 89.9299L100.677 105.563V74.297L127.753 58.665V89.9299Z" stroke="#0D0D0D" stroke-width="1.81808" stroke-linecap="round" stroke-linejoin="round"/>
<path d="M100.677 105.563L73.6034 89.9299V58.6624L100.68 74.2943V105.56L100.677 105.563Z" fill="#0D0D0D"/>
<path d="M100.677 105.563L73.6034 89.9299V58.6624L100.68 74.2943V105.56L100.677 105.563Z" stroke="#0D0D0D" stroke-width="1.81808" stroke-linecap="round" stroke-linejoin="round"/>
<path d="M137.932 180.331L110.855 164.697L137.932 149.065L165.009 164.697L137.932 180.331Z" fill="#B5FF00"/>
<path d="M137.932 180.331L110.855 164.697L137.932 149.065L165.009 164.697L137.932 180.331Z" stroke="#0D0D0D" stroke-width="1.81808" stroke-linecap="round" stroke-linejoin="round"/>
<path d="M165.009 195.964L137.932 211.596V180.331L165.009 164.699V195.964Z" fill="#B5FF00"/>
<path d="M165.009 195.964L137.932 211.596V180.331L165.009 164.699V195.964Z" stroke="#0D0D0D" stroke-width="1.81808" stroke-linecap="round" stroke-linejoin="round"/>
<path d="M137.933 211.596L110.859 195.964V164.696L137.935 180.328V211.594L137.933 211.596Z" fill="#0D0D0D"/>
<path d="M137.933 211.596L110.859 195.964V164.696L137.935 180.328V211.594L137.933 211.596Z" stroke="#0D0D0D" stroke-width="1.81808" stroke-linecap="round" stroke-linejoin="round"/>
<path d="M137.932 138.061L110.855 122.427L137.932 106.795L165.009 122.427L137.932 138.061Z" fill="#B5FF00"/>
<path d="M137.932 138.061L110.855 122.427L137.932 106.795L165.009 122.427L137.932 138.061Z" stroke="#0D0D0D" stroke-width="1.81808" stroke-linecap="round" stroke-linejoin="round"/>
<path d="M165.009 153.694L137.932 169.326V138.061L165.009 122.429V153.694Z" fill="#B5FF00"/>
<path d="M165.009 153.694L137.932 169.326V138.061L165.009 122.429V153.694Z" stroke="#0D0D0D" stroke-width="1.81808" stroke-linecap="round" stroke-linejoin="round"/>
<path d="M137.933 169.326L110.859 153.694V122.426L137.935 138.058V169.324L137.933 169.326Z" fill="#0D0D0D"/>
<path d="M137.933 169.326L110.859 153.694V122.426L137.935 138.058V169.324L137.933 169.326Z" stroke="#0D0D0D" stroke-width="1.81808" stroke-linecap="round" stroke-linejoin="round"/>
<path d="M137.932 95.7903L110.855 80.1565L137.932 64.5245L165.009 80.1565L137.932 95.7903Z" fill="#B5FF00"/>
<path d="M137.932 95.7903L110.855 80.1565L137.932 64.5245L165.009 80.1565L137.932 95.7903Z" stroke="#0D0D0D" stroke-width="1.81808" stroke-linecap="round" stroke-linejoin="round"/>
<path d="M165.009 111.423L137.932 127.056V95.7903L165.009 80.1583V111.423Z" fill="#B5FF00"/>
<path d="M165.009 111.423L137.932 127.056V95.7903L165.009 80.1583V111.423Z" stroke="#0D0D0D" stroke-width="1.81808" stroke-linecap="round" stroke-linejoin="round"/>
<path d="M137.933 127.056L110.859 111.423V80.1556L137.935 95.7876V127.053L137.933 127.056Z" fill="#0D0D0D"/>
<path d="M137.933 127.056L110.859 111.423V80.1556L137.935 95.7876V127.053L137.933 127.056Z" stroke="#0D0D0D" stroke-width="1.81808" stroke-linecap="round" stroke-linejoin="round"/>
<path d="M28.0768 158.36L1 142.726L28.0768 127.094L55.1537 142.726L28.0768 158.36Z" fill="#B5FF00"/>
<path d="M28.0768 158.36L1 142.726L28.0768 127.094L55.1537 142.726L28.0768 158.36Z" stroke="#0D0D0D" stroke-width="1.81808" stroke-linecap="round" stroke-linejoin="round"/>
<path d="M55.1537 173.993L28.0768 189.625V158.36L55.1537 142.728V173.993Z" fill="#B5FF00"/>
<path d="M55.1537 173.993L28.0768 189.625V158.36L55.1537 142.728V173.993Z" stroke="#0D0D0D" stroke-width="1.81808" stroke-linecap="round" stroke-linejoin="round"/>
<path d="M28.0778 189.626L1.00364 173.993V142.725L28.0805 158.357V189.623L28.0778 189.626Z" fill="#0D0D0D"/>
<path d="M28.0778 189.626L1.00364 173.993V142.725L28.0805 158.357V189.623L28.0778 189.626Z" stroke="#0D0D0D" stroke-width="1.81808" stroke-linecap="round" stroke-linejoin="round"/>
<path d="M28.0768 116.09L1 100.456L28.0768 84.8239L55.1537 100.456L28.0768 116.09Z" fill="#B5FF00"/>
<path d="M28.0768 116.09L1 100.456L28.0768 84.8239L55.1537 100.456L28.0768 116.09Z" stroke="#0D0D0D" stroke-width="1.81808" stroke-linecap="round" stroke-linejoin="round"/>
<path d="M55.1537 131.722L28.0768 147.355V116.09L55.1537 100.458V131.722Z" fill="#B5FF00"/>
<path d="M55.1537 131.722L28.0768 147.355V116.09L55.1537 100.458V131.722Z" stroke="#0D0D0D" stroke-width="1.81808" stroke-linecap="round" stroke-linejoin="round"/>
<path d="M28.0778 147.355L1.00364 131.723V100.455L28.0805 116.087V147.353L28.0778 147.355Z" fill="#0D0D0D"/>
<path d="M28.0778 147.355L1.00364 131.723V100.455L28.0805 116.087V147.353L28.0778 147.355Z" stroke="#0D0D0D" stroke-width="1.81808" stroke-linecap="round" stroke-linejoin="round"/>
<path d="M28.0768 73.8193L1 58.1855L28.0768 42.5536L55.1537 58.1855L28.0768 73.8193Z" fill="#B5FF00"/>
<path d="M28.0768 73.8193L1 58.1855L28.0768 42.5536L55.1537 58.1855L28.0768 73.8193Z" stroke="#0D0D0D" stroke-width="1.81808" stroke-linecap="round" stroke-linejoin="round"/>
<path d="M55.1537 89.4522L28.0768 105.085V73.8193L55.1537 58.1874V89.4522Z" fill="#B5FF00"/>
<path d="M55.1537 89.4522L28.0768 105.085V73.8193L55.1537 58.1874V89.4522Z" stroke="#0D0D0D" stroke-width="1.81808" stroke-linecap="round" stroke-linejoin="round"/>
<path d="M28.0778 105.085L1.00364 89.4521V58.1846L28.0805 73.8165V105.082L28.0778 105.085Z" fill="#0D0D0D"/>
<path d="M28.0778 105.085L1.00364 89.4521V58.1846L28.0805 73.8165V105.082L28.0778 105.085Z" stroke="#0D0D0D" stroke-width="1.81808" stroke-linecap="round" stroke-linejoin="round"/>
<path d="M65.332 179.853L38.2552 164.219L65.332 148.587L92.4088 164.219L65.332 179.853Z" fill="#B5FF00"/>
<path d="M65.332 179.853L38.2552 164.219L65.332 148.587L92.4088 164.219L65.332 179.853Z" stroke="#0D0D0D" stroke-width="1.81808" stroke-linecap="round" stroke-linejoin="round"/>
<path d="M92.4088 195.486L65.332 211.119V179.853L92.4088 164.221V195.486Z" fill="#B5FF00"/>
<path d="M92.4088 195.486L65.332 211.119V179.853L92.4088 164.221V195.486Z" stroke="#0D0D0D" stroke-width="1.81808" stroke-linecap="round" stroke-linejoin="round"/>
<path d="M65.3329 211.119L38.2588 195.486V164.219L65.3356 179.85V211.116L65.3329 211.119Z" fill="#0D0D0D"/>
<path d="M65.3329 211.119L38.2588 195.486V164.219L65.3356 179.85V211.116L65.3329 211.119Z" stroke="#0D0D0D" stroke-width="1.81808" stroke-linecap="round" stroke-linejoin="round"/>
<path d="M65.332 137.583L38.2552 121.949L65.332 106.317L92.4088 121.949L65.332 137.583Z" fill="#B5FF00"/>
<path d="M65.332 137.583L38.2552 121.949L65.332 106.317L92.4088 121.949L65.332 137.583Z" stroke="#0D0D0D" stroke-width="1.81808" stroke-linecap="round" stroke-linejoin="round"/>
<path d="M92.4088 153.216L65.332 168.849V137.583L92.4088 121.951V153.216Z" fill="#B5FF00"/>
<path d="M92.4088 153.216L65.332 168.849V137.583L92.4088 121.951V153.216Z" stroke="#0D0D0D" stroke-width="1.81808" stroke-linecap="round" stroke-linejoin="round"/>
<path d="M65.3329 168.849L38.2588 153.216V121.948L65.3356 137.58V168.846L65.3329 168.849Z" fill="#0D0D0D"/>
<path d="M65.3329 168.849L38.2588 153.216V121.948L65.3356 137.58V168.846L65.3329 168.849Z" stroke="#0D0D0D" stroke-width="1.81808" stroke-linecap="round" stroke-linejoin="round"/>
<path d="M65.332 95.3127L38.2552 79.679L65.332 64.047L92.4088 79.679L65.332 95.3127Z" fill="#B5FF00"/>
<path d="M65.332 95.3127L38.2552 79.679L65.332 64.047L92.4088 79.679L65.332 95.3127Z" stroke="#0D0D0D" stroke-width="1.81808" stroke-linecap="round" stroke-linejoin="round"/>
<path d="M92.4088 110.946L65.332 126.578V95.3127L92.4088 79.6808V110.946Z" fill="#B5FF00"/>
<path d="M92.4088 110.946L65.332 126.578V95.3127L92.4088 79.6808V110.946Z" stroke="#0D0D0D" stroke-width="1.81808" stroke-linecap="round" stroke-linejoin="round"/>
<path d="M65.3329 126.578L38.2588 110.946V79.678L65.3356 95.3099V126.576L65.3329 126.578Z" fill="#0D0D0D"/>
<path d="M65.3329 126.578L38.2588 110.946V79.678L65.3356 95.3099V126.576L65.3329 126.578Z" stroke="#0D0D0D" stroke-width="1.81808" stroke-linecap="round" stroke-linejoin="round"/>
<path d="M102.587 201.347L75.5103 185.713L102.587 170.081L129.664 185.713L102.587 201.347Z" fill="#B5FF00"/>
<path d="M102.587 201.347L75.5103 185.713L102.587 170.081L129.664 185.713L102.587 201.347Z" stroke="#0D0D0D" stroke-width="1.81808" stroke-linecap="round" stroke-linejoin="round"/>
<path d="M129.664 216.979L102.587 232.612V201.347L129.664 185.715V216.979Z" fill="#B5FF00"/>
<path d="M129.664 216.979L102.587 232.612V201.347L129.664 185.715V216.979Z" stroke="#0D0D0D" stroke-width="1.81808" stroke-linecap="round" stroke-linejoin="round"/>
<path d="M102.588 232.612L75.5139 216.979V185.712L102.591 201.344V232.61L102.588 232.612Z" fill="#0D0D0D"/>
<path d="M102.588 232.612L75.5139 216.979V185.712L102.591 201.344V232.61L102.588 232.612Z" stroke="#0D0D0D" stroke-width="1.81808" stroke-linecap="round" stroke-linejoin="round"/>
<path d="M102.587 159.076L75.5103 143.443L102.587 127.811L129.664 143.443L102.587 159.076Z" fill="#B5FF00"/>
<path d="M102.587 159.076L75.5103 143.443L102.587 127.811L129.664 143.443L102.587 159.076Z" stroke="#0D0D0D" stroke-width="1.81808" stroke-linecap="round" stroke-linejoin="round"/>
<path d="M129.664 174.709L102.587 190.342V159.076L129.664 143.444V174.709Z" fill="#B5FF00"/>
<path d="M129.664 174.709L102.587 190.342V159.076L129.664 143.444V174.709Z" stroke="#0D0D0D" stroke-width="1.81808" stroke-linecap="round" stroke-linejoin="round"/>
<path d="M102.588 190.342L75.5139 174.709V143.442L102.591 159.074V190.339L102.588 190.342Z" fill="#0D0D0D"/>
<path d="M102.588 190.342L75.5139 174.709V143.442L102.591 159.074V190.339L102.588 190.342Z" stroke="#0D0D0D" stroke-width="1.81808" stroke-linecap="round" stroke-linejoin="round"/>
<path d="M102.587 116.806L75.5103 101.172L102.587 85.5403L129.664 101.172L102.587 116.806Z" fill="#B5FF00"/>
<path d="M102.587 116.806L75.5103 101.172L102.587 85.5403L129.664 101.172L102.587 116.806Z" stroke="#0D0D0D" stroke-width="1.81808" stroke-linecap="round" stroke-linejoin="round"/>
<path d="M129.664 132.439L102.587 148.072V116.806L129.664 101.174V132.439Z" fill="#B5FF00"/>
<path d="M129.664 132.439L102.587 148.072V116.806L129.664 101.174V132.439Z" stroke="#0D0D0D" stroke-width="1.81808" stroke-linecap="round" stroke-linejoin="round"/>
<path d="M102.588 148.072L75.5139 132.439V101.171L102.591 116.803V148.069L102.588 148.072Z" fill="#0D0D0D"/>
<path d="M102.588 148.072L75.5139 132.439V101.171L102.591 116.803V148.069L102.588 148.072Z" stroke="#0D0D0D" stroke-width="1.81808" stroke-linecap="round" stroke-linejoin="round"/>
</svg>
