<svg width="40" height="40" viewBox="0 0 40 40" fill="none" xmlns="http://www.w3.org/2000/svg">
<rect width="40" height="40" rx="4" fill="#EEF4EC" fill-opacity="0.5"/>
<path d="M22.5388 28.2621V31.0634L19.9633 32.5L17.4636 31.0634V28.2621L19.9633 29.6987L22.5388 28.2621ZM8.75 18.5628L11.2497 19.9994V24.8131L15.5687 27.2553V30.0567L8.75 26.2497V18.5628ZM31.1755 18.5628V26.2497L24.2811 30.0567V27.2553L28.6 24.8131V19.9994L31.1755 18.5628ZM24.2811 14.7559L26.8565 16.1925V18.9938L22.5376 21.436V26.3215L20.0379 27.7581L17.5381 26.3215V21.436L13.0677 18.9938V16.1925L15.6432 14.7559L19.9621 17.1981L24.2811 14.7559ZM13.0689 21.0062L15.5687 22.4428V25.2441L13.0689 23.8075V21.0062ZM26.8578 21.0062V23.8075L24.358 25.2441V22.4428L26.8578 21.0062ZM11.2497 12.3137L13.8252 13.7503L11.2497 15.1869V17.9882L8.75 16.5516V13.7503L11.2497 12.3137ZM28.6745 12.3137L31.25 13.7503V16.5516L28.6745 17.9882V15.1869L26.1748 13.7503L28.6745 12.3137ZM19.9621 12.3137L22.5376 13.7503L19.9621 15.1869L17.4624 13.7503L19.9621 12.3137ZM19.9621 7.5L26.8565 11.3069L24.3568 12.7435L20.0379 10.3013L15.6432 12.7435L13.1435 11.3069L19.9621 7.5Z" fill="#F3BA2F"/>
</svg>
