<svg width="16" height="16" viewBox="0 0 16 16" fill="none" xmlns="http://www.w3.org/2000/svg">
<path d="M5 1V5H1V4.57538C1 2.33538 2.33333 1 4.56989 1H5Z" fill="#FF7D00"/>
<path d="M15 4.57538V5H11V1H11.4191C13.6626 1 15 2.33538 15 4.57538Z" fill="#FF7D00"/>
<path d="M15 11V11.4246C15 13.6646 13.6626 15 11.4191 15H11V11H15Z" fill="#FF7D00"/>
<path d="M5 11V15H4.56989C2.33333 15 1 13.6646 1 11.4246V11H5Z" fill="#FF7D00"/>
<path opacity="0.4" d="M5 5H1V11H5V5Z" fill="#FF7D00"/>
<path opacity="0.4" d="M15 5H11V11H15V5Z" fill="#FF7D00"/>
<path d="M11 5H5V11H11V5Z" fill="#FF7D00"/>
<path d="M6.33936 6.39648C6.53456 6.20128 6.85111 6.2014 7.04639 6.39648L8.01221 7.3623L8.95264 6.42285C9.14779 6.2278 9.46441 6.22797 9.65967 6.42285C9.8549 6.61808 9.85484 6.93461 9.65967 7.12988L8.71924 8.06934L9.68604 9.03613C9.8813 9.2314 9.8813 9.5479 9.68604 9.74316C9.49076 9.93828 9.17422 9.93838 8.979 9.74316L8.01221 8.77637L7.02002 9.76953C6.82476 9.96479 6.50825 9.96479 6.31299 9.76953C6.11808 9.57424 6.11784 9.25765 6.31299 9.0625L7.30518 8.06934L6.33936 7.10352C6.14432 6.90829 6.1443 6.5917 6.33936 6.39648Z" fill="white"/>
<path opacity="0.4" d="M11 1H5V5H11V1Z" fill="#FF7D00"/>
<path opacity="0.4" d="M11 11H5V15H11V11Z" fill="#FF7D00"/>
</svg>
