<svg width="256" height="256" viewBox="0 0 256 256" fill="none" xmlns="http://www.w3.org/2000/svg">
<rect x="63.875" y="201.625" width="151.75" height="134.75" rx="11.625" transform="rotate(-90 63.875 201.625)" fill="#0D0D0D" stroke="#0D0D0D" stroke-width="0.75"/>
<rect x="57.375" y="197.625" width="151.75" height="134.75" rx="11.625" transform="rotate(-90 57.375 197.625)" fill="white" stroke="#0D0D0D" stroke-width="0.75"/>
<rect x="63.875" y="190.125" width="136.75" height="121.75" rx="11.625" transform="rotate(-90 63.875 190.125)" fill="white" stroke="#0D0D0D" stroke-width="0.75"/>
<path d="M87.5 69L144.5 69" stroke="#0D0D0D" stroke-width="0.75" stroke-linecap="round"/>
<path d="M87.5 95L144.5 95" stroke="#0D0D0D" stroke-width="0.75" stroke-linecap="round"/>
<path d="M87.5 121L144.5 121" stroke="#0D0D0D" stroke-width="0.75" stroke-linecap="round"/>
<path d="M87.5 82L117.5 82" stroke="#0D0D0D" stroke-width="0.75" stroke-linecap="round"/>
<path d="M87.5 108L117.5 108" stroke="#0D0D0D" stroke-width="0.75" stroke-linecap="round"/>
<path d="M87.5 134L117.5 134" stroke="#0D0D0D" stroke-width="0.75" stroke-linecap="round"/>
<path d="M159.75 37.125C159.572 37.125 159.419 37.2499 159.383 37.4238L156.758 50.0479L143.926 52.6328C143.751 52.6682 143.625 52.8215 143.625 53C143.625 53.1785 143.751 53.3318 143.926 53.3672L156.758 55.9512L159.383 68.5762C159.419 68.7501 159.572 68.875 159.75 68.875C159.928 68.875 160.081 68.7501 160.117 68.5762L162.743 55.9512L175.574 53.3672C175.749 53.3318 175.875 53.1785 175.875 53C175.875 52.8215 175.749 52.6682 175.574 52.6328L162.743 50.0479L160.117 37.4238C160.081 37.2499 159.928 37.125 159.75 37.125Z" fill="white" stroke="#0D0D0D" stroke-width="0.75" stroke-linejoin="round"/>
<path d="M84 178.024L117.75 178.024" stroke="#0D0D0D" stroke-width="9" stroke-linecap="round"/>
<path d="M89.125 212.295L89.125 181C89.125 178.998 90.748 177.375 92.75 177.375L112.25 177.375C114.252 177.375 115.875 178.998 115.875 181L115.875 212.295C115.875 213.728 114.154 214.46 113.122 213.466L104.148 204.817C103.229 203.931 101.771 203.931 100.852 204.817L91.8779 213.466C90.8459 214.46 89.125 213.728 89.125 212.295Z" fill="#0D0D0D" stroke="#0D0D0D" stroke-width="0.75"/>
<path d="M86.125 212.295L86.125 181C86.125 178.998 87.748 177.375 89.75 177.375L109.25 177.375C111.252 177.375 112.875 178.998 112.875 181L112.875 212.295C112.875 213.728 111.154 214.46 110.122 213.466L101.148 204.817C100.229 203.931 98.7714 203.931 97.8516 204.817L88.8779 213.466C87.8459 214.46 86.125 213.728 86.125 212.295Z" fill="#B5FF00" stroke="#0D0D0D" stroke-width="0.75"/>
</svg>
