<svg width="256" height="256" viewBox="0 0 256 256" fill="none" xmlns="http://www.w3.org/2000/svg">
<rect x="-0.375" y="-0.375" width="113.25" height="171.75" rx="7.625" transform="matrix(4.36237e-08 -1 -1 -4.37993e-08 212.75 182.25)" fill="#0D0D0D" stroke="#0D0D0D" stroke-width="0.75"/>
<rect x="-0.5" y="-0.5" width="113" height="171.5" rx="7.5" transform="matrix(4.36237e-08 -1 -1 -4.37993e-08 208.5 180)" fill="white" stroke="#0D0D0D"/>
<path d="M57 138L112.5 138" stroke="#0D0D0D" stroke-linecap="round"/>
<path d="M57 151L86 151" stroke="#0D0D0D" stroke-linecap="round"/>
<rect width="113" height="24" transform="translate(53 94)" fill="#B5FF00"/>
<path d="M63.25 113H58.7614V98.4545H63.4489C64.8598 98.4545 66.0672 98.7457 67.071 99.3281C68.0748 99.9058 68.8442 100.737 69.3793 101.821C69.9143 102.901 70.1818 104.193 70.1818 105.699C70.1818 107.214 69.9119 108.518 69.3722 109.612C68.8324 110.701 68.0464 111.539 67.0142 112.126C65.982 112.709 64.7273 113 63.25 113ZM60.5227 111.438H63.1364C64.339 111.438 65.3357 111.205 66.1264 110.741C66.9171 110.277 67.5066 109.617 67.8949 108.76C68.2831 107.903 68.4773 106.883 68.4773 105.699C68.4773 104.525 68.2855 103.514 67.902 102.666C67.5185 101.814 66.9455 101.161 66.1832 100.706C65.4209 100.247 64.4716 100.017 63.3352 100.017H60.5227V111.438ZM83.0795 103C82.9233 102.522 82.7173 102.093 82.4616 101.714C82.2107 101.331 81.91 101.004 81.5597 100.734C81.214 100.464 80.821 100.259 80.3807 100.116C79.9403 99.9744 79.4574 99.9034 78.9318 99.9034C78.0701 99.9034 77.2865 100.126 76.581 100.571C75.8755 101.016 75.3144 101.672 74.8977 102.538C74.4811 103.405 74.2727 104.468 74.2727 105.727C74.2727 106.987 74.4834 108.05 74.9048 108.916C75.3262 109.783 75.8968 110.438 76.6165 110.884C77.3362 111.329 78.1458 111.551 79.0455 111.551C79.8788 111.551 80.6127 111.374 81.2472 111.018C81.8864 110.659 82.3835 110.152 82.7386 109.499C83.0985 108.84 83.2784 108.066 83.2784 107.176L83.8182 107.29H79.4432V105.727H84.983V107.29C84.983 108.488 84.7273 109.529 84.2159 110.415C83.7093 111.3 83.0085 111.987 82.1136 112.474C81.2235 112.957 80.2008 113.199 79.0455 113.199C77.7576 113.199 76.6259 112.896 75.6506 112.29C74.6799 111.684 73.9223 110.822 73.3778 109.705C72.8381 108.587 72.5682 107.261 72.5682 105.727C72.5682 104.577 72.7221 103.542 73.0298 102.624C73.3423 101.7 73.7827 100.914 74.3509 100.266C74.919 99.617 75.5914 99.1198 76.3679 98.7741C77.1444 98.4285 77.9991 98.2557 78.9318 98.2557C79.6989 98.2557 80.4138 98.3717 81.0767 98.6037C81.7443 98.831 82.3385 99.1553 82.8594 99.5767C83.3849 99.9934 83.8229 100.493 84.1733 101.075C84.5237 101.653 84.7652 102.295 84.8977 103H83.0795ZM87.7724 113V102.091H89.3917V103.739H89.5053C89.7042 103.199 90.064 102.761 90.5849 102.425C91.1057 102.089 91.6928 101.92 92.3462 101.92C92.4693 101.92 92.6232 101.923 92.8079 101.928C92.9925 101.932 93.1322 101.939 93.2269 101.949V103.653C93.1701 103.639 93.0399 103.618 92.8363 103.589C92.6374 103.556 92.4267 103.54 92.2042 103.54C91.6739 103.54 91.2004 103.651 90.7837 103.874C90.3718 104.091 90.0451 104.394 89.8036 104.783C89.5669 105.166 89.4485 105.604 89.4485 106.097V113H87.7724ZM95.2138 113V102.091H96.8899V113H95.2138ZM96.0661 100.273C95.7393 100.273 95.4576 100.161 95.2209 99.9389C94.9889 99.7164 94.8729 99.4489 94.8729 99.1364C94.8729 98.8239 94.9889 98.5563 95.2209 98.3338C95.4576 98.1113 95.7393 98 96.0661 98C96.3928 98 96.6721 98.1113 96.9041 98.3338C97.1409 98.5563 97.2592 98.8239 97.2592 99.1364C97.2592 99.4489 97.1409 99.7164 96.9041 99.9389C96.6721 100.161 96.3928 100.273 96.0661 100.273ZM104.079 113.227C103.17 113.227 102.368 112.998 101.672 112.538C100.975 112.074 100.431 111.421 100.038 110.578C99.645 109.731 99.4485 108.729 99.4485 107.574C99.4485 106.428 99.645 105.434 100.038 104.591C100.431 103.748 100.978 103.097 101.679 102.638C102.379 102.179 103.189 101.949 104.108 101.949C104.818 101.949 105.379 102.067 105.791 102.304C106.208 102.536 106.525 102.801 106.743 103.099C106.965 103.393 107.138 103.634 107.261 103.824H107.403V98.4545H109.079V113H107.46V111.324H107.261C107.138 111.523 106.963 111.774 106.735 112.077C106.508 112.375 106.184 112.643 105.762 112.879C105.341 113.111 104.78 113.227 104.079 113.227ZM104.306 111.722C104.979 111.722 105.547 111.546 106.011 111.196C106.475 110.841 106.828 110.351 107.069 109.726C107.311 109.096 107.431 108.369 107.431 107.545C107.431 106.731 107.313 106.018 107.076 105.408C106.84 104.792 106.489 104.314 106.025 103.973C105.561 103.627 104.988 103.455 104.306 103.455C103.596 103.455 103.004 103.637 102.531 104.001C102.062 104.361 101.709 104.851 101.473 105.472C101.241 106.087 101.125 106.778 101.125 107.545C101.125 108.322 101.243 109.027 101.48 109.662C101.721 110.292 102.076 110.794 102.545 111.168C103.019 111.537 103.606 111.722 104.306 111.722ZM118.234 113V98.4545H123.149C124.29 98.4545 125.223 98.6605 125.947 99.0724C126.676 99.4796 127.216 100.031 127.566 100.727C127.917 101.423 128.092 102.2 128.092 103.057C128.092 103.914 127.917 104.693 127.566 105.393C127.221 106.094 126.686 106.653 125.961 107.07C125.237 107.482 124.309 107.688 123.177 107.688H119.654V106.125H123.12C123.902 106.125 124.529 105.99 125.002 105.72C125.476 105.45 125.819 105.086 126.032 104.626C126.25 104.162 126.359 103.639 126.359 103.057C126.359 102.474 126.25 101.954 126.032 101.494C125.819 101.035 125.474 100.675 124.995 100.415C124.517 100.15 123.883 100.017 123.092 100.017H119.995V113H118.234ZM133.912 113.256C133.221 113.256 132.594 113.125 132.03 112.865C131.467 112.6 131.019 112.219 130.688 111.722C130.356 111.22 130.191 110.614 130.191 109.903C130.191 109.278 130.314 108.772 130.56 108.384C130.806 107.991 131.135 107.683 131.547 107.46C131.959 107.238 132.414 107.072 132.911 106.963C133.413 106.849 133.917 106.759 134.424 106.693C135.087 106.608 135.624 106.544 136.036 106.501C136.453 106.454 136.756 106.376 136.945 106.267C137.139 106.158 137.236 105.969 137.236 105.699V105.642C137.236 104.941 137.044 104.397 136.661 104.009C136.282 103.62 135.707 103.426 134.935 103.426C134.135 103.426 133.507 103.601 133.053 103.952C132.598 104.302 132.279 104.676 132.094 105.074L130.503 104.506C130.787 103.843 131.166 103.327 131.64 102.957C132.118 102.583 132.639 102.323 133.202 102.176C133.77 102.025 134.329 101.949 134.878 101.949C135.229 101.949 135.631 101.991 136.086 102.077C136.545 102.157 136.988 102.325 137.414 102.581C137.845 102.837 138.202 103.223 138.486 103.739C138.77 104.255 138.912 104.946 138.912 105.812V113H137.236V111.523H137.151C137.037 111.759 136.848 112.013 136.583 112.283C136.318 112.553 135.965 112.782 135.525 112.972C135.084 113.161 134.547 113.256 133.912 113.256ZM134.168 111.75C134.831 111.75 135.39 111.62 135.844 111.359C136.303 111.099 136.649 110.763 136.881 110.351C137.118 109.939 137.236 109.506 137.236 109.051V107.517C137.165 107.602 137.009 107.68 136.767 107.751C136.531 107.818 136.256 107.877 135.944 107.929C135.636 107.976 135.335 108.019 135.042 108.057C134.753 108.09 134.518 108.118 134.338 108.142C133.903 108.199 133.496 108.291 133.117 108.419C132.743 108.542 132.44 108.729 132.208 108.98C131.98 109.226 131.867 109.562 131.867 109.989C131.867 110.571 132.082 111.011 132.513 111.31C132.949 111.603 133.5 111.75 134.168 111.75ZM149.699 104.534L148.193 104.96C148.098 104.709 147.959 104.465 147.774 104.229C147.594 103.987 147.348 103.788 147.036 103.632C146.723 103.476 146.323 103.398 145.835 103.398C145.168 103.398 144.611 103.552 144.166 103.859C143.726 104.162 143.506 104.548 143.506 105.017C143.506 105.434 143.657 105.763 143.96 106.004C144.263 106.246 144.737 106.447 145.381 106.608L147 107.006C147.975 107.242 148.702 107.605 149.18 108.092C149.659 108.575 149.898 109.198 149.898 109.96C149.898 110.585 149.718 111.144 149.358 111.636C149.003 112.129 148.506 112.517 147.866 112.801C147.227 113.085 146.484 113.227 145.636 113.227C144.524 113.227 143.603 112.986 142.874 112.503C142.144 112.02 141.683 111.314 141.489 110.386L143.08 109.989C143.231 110.576 143.518 111.016 143.939 111.31C144.365 111.603 144.921 111.75 145.608 111.75C146.389 111.75 147.009 111.584 147.469 111.253C147.933 110.917 148.165 110.514 148.165 110.045C148.165 109.667 148.032 109.349 147.767 109.094C147.502 108.833 147.095 108.639 146.545 108.511L144.727 108.085C143.728 107.848 142.994 107.482 142.526 106.984C142.062 106.482 141.83 105.855 141.83 105.102C141.83 104.487 142.002 103.942 142.348 103.469C142.698 102.995 143.174 102.624 143.776 102.354C144.382 102.084 145.068 101.949 145.835 101.949C146.915 101.949 147.762 102.186 148.378 102.659C148.998 103.133 149.438 103.758 149.699 104.534ZM160.148 104.534L158.642 104.96C158.548 104.709 158.408 104.465 158.223 104.229C158.043 103.987 157.797 103.788 157.485 103.632C157.172 103.476 156.772 103.398 156.284 103.398C155.617 103.398 155.06 103.552 154.615 103.859C154.175 104.162 153.955 104.548 153.955 105.017C153.955 105.434 154.106 105.763 154.409 106.004C154.712 106.246 155.186 106.447 155.83 106.608L157.449 107.006C158.425 107.242 159.151 107.605 159.63 108.092C160.108 108.575 160.347 109.198 160.347 109.96C160.347 110.585 160.167 111.144 159.807 111.636C159.452 112.129 158.955 112.517 158.316 112.801C157.676 113.085 156.933 113.227 156.086 113.227C154.973 113.227 154.052 112.986 153.323 112.503C152.594 112.02 152.132 111.314 151.938 110.386L153.529 109.989C153.68 110.576 153.967 111.016 154.388 111.31C154.814 111.603 155.371 111.75 156.057 111.75C156.838 111.75 157.459 111.584 157.918 111.253C158.382 110.917 158.614 110.514 158.614 110.045C158.614 109.667 158.481 109.349 158.216 109.094C157.951 108.833 157.544 108.639 156.995 108.511L155.176 108.085C154.177 107.848 153.444 107.482 152.975 106.984C152.511 106.482 152.279 105.855 152.279 105.102C152.279 104.487 152.452 103.942 152.797 103.469C153.148 102.995 153.623 102.624 154.225 102.354C154.831 102.084 155.517 101.949 156.284 101.949C157.364 101.949 158.212 102.186 158.827 102.659C159.447 103.133 159.888 103.758 160.148 104.534Z" fill="#0D0D0D"/>
<path d="M183.5 43C183.262 43 183.057 43.168 183.01 43.4014L180.442 56.1514L167.898 58.7607C167.666 58.809 167.5 59.0131 167.5 59.25C167.5 59.4869 167.666 59.691 167.898 59.7393L180.442 62.3477L183.01 75.0986C183.057 75.332 183.262 75.5 183.5 75.5C183.738 75.5 183.943 75.332 183.99 75.0986L186.559 62.3477L199.102 59.7393C199.334 59.691 199.5 59.4869 199.5 59.25C199.5 59.0131 199.334 58.809 199.102 58.7607L186.559 56.1514L183.99 43.4014C183.943 43.168 183.738 43 183.5 43Z" fill="white" stroke="#0D0D0D" stroke-linejoin="round"/>
<path d="M70.25 146C70.4874 146 70.6925 146.167 70.7402 146.399L73.0088 157.49L84.1006 159.76C84.3331 159.807 84.5 160.013 84.5 160.25C84.5 160.487 84.3331 160.693 84.1006 160.74L73.0088 163.009L70.7402 174.101C70.6925 174.333 70.4874 174.5 70.25 174.5C70.0126 174.5 69.8075 174.333 69.7598 174.101L67.4902 163.009L56.3994 160.74C56.1669 160.693 56 160.487 56 160.25C56 160.013 56.1669 159.807 56.3994 159.76L67.4902 157.49L69.7598 146.399L69.7852 146.315C69.8596 146.128 70.0423 146 70.25 146Z" fill="white" stroke="#0D0D0D" stroke-linejoin="round"/>
<mask id="path-8-inside-1_149_4020" fill="white">
<path d="M211.215 127.171C214.339 124.047 219.404 124.047 222.529 127.171L225.358 130C228.482 133.124 228.482 138.19 225.358 141.314L171.114 195.557C168.862 197.809 165.603 198.437 162.788 197.443C161.551 197.077 160.385 196.406 159.408 195.429L127.343 163.364C124.219 160.24 124.219 155.175 127.343 152.05L130.171 149.221C133.295 146.097 138.361 146.097 141.486 149.221L165.324 173.061L211.215 127.171Z"/>
</mask>
<path d="M211.215 127.171C214.339 124.047 219.404 124.047 222.529 127.171L225.358 130C228.482 133.124 228.482 138.19 225.358 141.314L171.114 195.557C168.862 197.809 165.603 198.437 162.788 197.443C161.551 197.077 160.385 196.406 159.408 195.429L127.343 163.364C124.219 160.24 124.219 155.175 127.343 152.05L130.171 149.221C133.295 146.097 138.361 146.097 141.486 149.221L165.324 173.061L211.215 127.171Z" fill="#0D0D0D"/>
<path d="M211.215 127.171L211.745 127.702L211.745 127.702L211.215 127.171ZM222.529 127.171L221.998 127.702L221.998 127.702L222.529 127.171ZM225.358 130L225.888 129.469L225.888 129.469L225.358 130ZM225.358 141.314L225.888 141.844L225.888 141.844L225.358 141.314ZM171.114 195.557L171.644 196.088L171.644 196.087L171.114 195.557ZM162.788 197.443L163.038 196.736L163.02 196.729L163.001 196.724L162.788 197.443ZM159.408 195.429L158.878 195.96L158.878 195.96L159.408 195.429ZM127.343 163.364L126.813 163.894H126.813L127.343 163.364ZM127.343 152.05L127.873 152.581L127.873 152.581L127.343 152.05ZM130.171 149.221L129.641 148.691L129.641 148.691L130.171 149.221ZM141.486 149.221L142.016 148.691L142.016 148.691L141.486 149.221ZM165.324 173.061L164.794 173.591L165.324 174.122L165.855 173.591L165.324 173.061ZM211.215 127.171L211.745 127.702C214.577 124.871 219.167 124.871 221.998 127.702L222.529 127.171L223.059 126.641C219.642 123.224 214.102 123.224 210.685 126.641L211.215 127.171ZM222.529 127.171L221.998 127.702L224.827 130.53L225.358 130L225.888 129.469L223.059 126.641L222.529 127.171ZM225.358 130L224.827 130.53C227.659 133.361 227.659 137.952 224.827 140.784L225.358 141.314L225.888 141.844C229.305 138.427 229.305 132.886 225.888 129.469L225.358 130ZM225.358 141.314L224.827 140.784L170.583 195.027L171.114 195.557L171.644 196.087L225.888 141.844L225.358 141.314ZM171.114 195.557L170.583 195.027C168.544 197.066 165.591 197.637 163.038 196.736L162.788 197.443L162.539 198.15C165.615 199.236 169.18 198.551 171.644 196.088L171.114 195.557ZM162.788 197.443L163.001 196.724C161.881 196.392 160.825 195.785 159.939 194.899L159.408 195.429L158.878 195.96C159.945 197.027 161.221 197.761 162.576 198.162L162.788 197.443ZM159.408 195.429L159.939 194.899L127.873 162.833L127.343 163.364L126.813 163.894L158.878 195.96L159.408 195.429ZM127.343 163.364L127.873 162.833C125.042 160.002 125.042 155.412 127.873 152.581L127.343 152.05L126.813 151.52C123.396 154.937 123.396 160.477 126.813 163.894L127.343 163.364ZM127.343 152.05L127.873 152.581L130.702 149.751L130.171 149.221L129.641 148.691L126.813 151.52L127.343 152.05ZM130.171 149.221L130.701 149.752C133.533 146.92 138.124 146.92 140.955 149.752L141.486 149.221L142.016 148.691C138.599 145.274 133.058 145.274 129.641 148.691L130.171 149.221ZM141.486 149.221L140.955 149.752L164.794 173.591L165.324 173.061L165.855 172.531L142.016 148.691L141.486 149.221ZM165.324 173.061L165.855 173.591L211.745 127.702L211.215 127.171L210.685 126.641L164.794 172.531L165.324 173.061Z" fill="#0D0D0D" mask="url(#path-8-inside-1_149_4020)"/>
<mask id="path-10-inside-2_149_4020" fill="white">
<path d="M206.386 125.343C209.51 122.219 214.577 122.219 217.701 125.343L220.529 128.172C223.653 131.296 223.653 136.361 220.529 139.485L166.285 193.729C164.028 195.985 160.76 196.611 157.941 195.608C156.711 195.241 155.551 194.572 154.58 193.601L122.514 161.535C119.39 158.411 119.39 153.346 122.514 150.222L125.343 147.394C128.467 144.27 133.533 144.269 136.657 147.394L160.496 171.232L206.386 125.343Z"/>
</mask>
<path d="M206.386 125.343C209.51 122.219 214.577 122.219 217.701 125.343L220.529 128.172C223.653 131.296 223.653 136.361 220.529 139.485L166.285 193.729C164.028 195.985 160.76 196.611 157.941 195.608C156.711 195.241 155.551 194.572 154.58 193.601L122.514 161.535C119.39 158.411 119.39 153.346 122.514 150.222L125.343 147.394C128.467 144.27 133.533 144.269 136.657 147.394L160.496 171.232L206.386 125.343Z" fill="#B5FF00"/>
<path d="M206.386 125.343L205.679 124.636V124.636L206.386 125.343ZM217.701 125.343L218.408 124.636L218.408 124.636L217.701 125.343ZM220.529 128.172L219.822 128.879L219.822 128.879L220.529 128.172ZM220.529 139.485L221.236 140.193L221.236 140.193L220.529 139.485ZM166.285 193.729L165.578 193.021L165.578 193.021L166.285 193.729ZM157.941 195.608L158.276 194.666L158.252 194.658L158.227 194.65L157.941 195.608ZM154.58 193.601L155.287 192.894L154.58 193.601ZM122.514 161.535L121.807 162.242L121.807 162.242L122.514 161.535ZM122.514 150.222L121.807 149.515L121.807 149.515L122.514 150.222ZM125.343 147.394L126.05 148.101L126.05 148.101L125.343 147.394ZM160.496 171.232L159.788 171.94L160.496 172.647L161.203 171.94L160.496 171.232ZM206.386 125.343L207.093 126.05C209.827 123.316 214.26 123.316 216.994 126.05L217.701 125.343L218.408 124.636C214.893 121.121 209.194 121.121 205.679 124.636L206.386 125.343ZM217.701 125.343L216.993 126.05L219.822 128.879L220.529 128.172L221.236 127.465L218.408 124.636L217.701 125.343ZM220.529 128.172L219.822 128.879C222.555 131.613 222.555 136.045 219.822 138.778L220.529 139.485L221.236 140.193C224.751 136.678 224.75 130.98 221.236 127.465L220.529 128.172ZM220.529 139.485L219.822 138.778L165.578 193.021L166.285 193.729L166.992 194.436L221.236 140.193L220.529 139.485ZM166.285 193.729L165.578 193.021C163.604 194.995 160.745 195.545 158.276 194.666L157.941 195.608L157.606 196.551C160.775 197.678 164.452 196.975 166.992 194.436L166.285 193.729ZM157.941 195.608L158.227 194.65C157.152 194.329 156.138 193.745 155.287 192.894L154.58 193.601L153.872 194.308C154.964 195.4 156.27 196.153 157.655 196.567L157.941 195.608ZM154.58 193.601L155.287 192.894L123.221 160.828L122.514 161.535L121.807 162.242L153.872 194.308L154.58 193.601ZM122.514 161.535L123.221 160.828C120.488 158.094 120.488 153.662 123.221 150.929L122.514 150.222L121.807 149.515C118.293 153.029 118.293 158.728 121.807 162.242L122.514 161.535ZM122.514 150.222L123.221 150.929L126.05 148.101L125.343 147.394L124.636 146.686L121.807 149.515L122.514 150.222ZM125.343 147.394L126.05 148.101C128.784 145.367 133.216 145.367 135.95 148.101L136.657 147.394L137.364 146.687C133.849 143.172 128.151 143.172 124.636 146.687L125.343 147.394ZM136.657 147.394L135.95 148.101L159.788 171.94L160.496 171.232L161.203 170.525L137.364 146.687L136.657 147.394ZM160.496 171.232L161.203 171.94L207.093 126.05L206.386 125.343L205.679 124.636L159.789 170.525L160.496 171.232Z" fill="#0D0D0D" mask="url(#path-10-inside-2_149_4020)"/>
</svg>
