<svg width="32" height="16" viewBox="0 0 32 16" fill="none" xmlns="http://www.w3.org/2000/svg">
<path d="M16.0423 10.3712H16.0016C7.32736 10.3712 0 9.09981 0 7.60026C0 6.10071 7.30945 4.82935 15.9609 4.82935H16.0016C24.6726 4.82935 32 6.10071 32 7.60026C32 9.09981 24.684 10.3712 16.0423 10.3712ZM15.9609 5.07221C11.8127 5.07221 7.84365 5.36234 4.78013 5.88718C1.43648 6.46418 0.245927 7.1455 0.245927 7.59211C0.245927 8.03872 1.43974 8.7233 4.79479 9.30193C7.86482 9.83166 11.8453 10.1169 16.0016 10.1169H16.0423C20.1873 10.1169 24.158 9.82677 27.2199 9.30193C30.5635 8.72493 31.7557 8.04361 31.7557 7.597C31.7557 7.15039 30.5603 6.46581 27.2068 5.88718C24.1352 5.35745 20.1564 5.07221 16.0016 5.07221H15.9609Z" fill="url(#paint0_linear_835_4548)"/>
<path d="M16.0229 10.8488H15.9936C7.77858 10.8488 0.846985 9.35898 0.846985 7.58886C0.846985 5.81873 7.77207 4.34363 15.9708 4.34363H16.0017C24.2151 4.34363 31.1483 5.8334 31.1483 7.60352C31.1483 9.37365 24.2199 10.8488 16.0229 10.8488ZM15.9626 4.59464C12.0196 4.59464 8.26066 4.93367 5.3763 5.54816C2.68575 6.1219 1.07989 6.88635 1.07989 7.59538C1.07989 8.3044 2.68901 9.07374 5.38607 9.64911C8.2737 10.2652 12.0392 10.6043 15.9903 10.6043H16.0196C19.961 10.6043 23.7199 10.2652 26.6059 9.65074C29.2965 9.077 30.9024 8.31255 30.9024 7.60352C30.9024 6.8945 29.2932 6.12517 26.5962 5.54979C23.7085 4.9353 19.9431 4.59464 15.9952 4.59464H15.9626Z" fill="url(#paint1_linear_835_4548)"/>
<path d="M16.0147 11.3263H15.9919C12.2346 11.3263 8.66291 10.9367 5.93164 10.2293C3.20037 9.52195 1.68408 8.58473 1.68408 7.59699C1.68408 6.60924 3.1906 5.67528 5.91861 4.96788C8.64662 4.26048 12.2183 3.87744 15.9707 3.87744H15.9919C19.7492 3.87744 23.3209 4.267 26.0538 4.9744C28.7867 5.6818 30.2997 6.61902 30.2997 7.6084C30.2997 8.59777 28.7948 9.52847 26.0652 10.2359C23.3355 10.9433 19.7671 11.3263 16.0147 11.3263ZM15.9707 4.11868C7.69548 4.11868 1.92838 5.95074 1.92838 7.59699C1.92838 9.24323 7.70526 11.0818 15.9919 11.0818H16.0147C24.2883 11.0818 30.0554 9.24812 30.0554 7.6035C30.0554 5.95888 24.2802 4.11868 15.9919 4.11868H15.9707Z" fill="url(#paint2_linear_835_4548)"/>
<path d="M16.0081 11.8039H15.9918C12.4479 11.8039 9.08467 11.3655 6.52279 10.5701C3.9609 9.77466 2.52441 8.71519 2.52441 7.59705C2.52441 6.4789 3.93972 5.42596 6.51138 4.62728C9.08304 3.82861 12.4283 3.39667 15.969 3.39667H15.9853C19.5309 3.39667 22.8925 3.83349 25.4544 4.63054C28.0163 5.42758 29.4462 6.48542 29.4462 7.60357C29.4462 8.72171 28.0309 9.77303 25.4593 10.5717C22.8876 11.3704 19.5488 11.8039 16.0081 11.8039ZM15.9756 3.64116C8.94298 3.64116 2.78337 5.48953 2.78337 7.59705C2.78337 9.70457 8.95927 11.5595 16 11.5595H16.0163C23.0488 11.5595 29.2084 9.70946 29.2084 7.60357C29.2084 5.49767 23.0326 3.64116 15.9918 3.64116H15.9756Z" fill="url(#paint3_linear_835_4548)"/>
<path d="M16.0049 12.2814H15.9919C9.03589 12.2814 3.37628 10.1804 3.37628 7.59696C3.37628 5.01349 9.031 2.91901 15.9805 2.91901C22.93 2.91901 28.6075 5.02001 28.6075 7.60185C28.6075 10.1837 22.9545 12.2814 16.0049 12.2814ZM15.9919 3.1635C9.28182 3.1635 3.61407 5.19442 3.61407 7.59696C3.61407 9.99951 9.28019 12.0369 15.9919 12.0369H16.0049C22.7036 12.0369 28.3632 10.006 28.3632 7.60185C28.3632 5.19768 22.6971 3.1635 15.9919 3.1635Z" fill="url(#paint4_linear_835_4548)"/>
<path d="M16 12.759H15.9918C9.50159 12.759 4.22308 10.4445 4.22308 7.59862C4.22308 4.75273 9.49833 2.44147 15.9837 2.44147C22.469 2.44147 27.7687 4.75762 27.7687 7.60189C27.7687 10.4461 22.4853 12.759 16 12.759ZM15.9918 2.68596C9.741 2.68596 4.46738 4.93529 4.46738 7.59862C4.46738 10.262 9.74426 12.5162 15.9918 12.5162L16 12.6384V12.5162C22.2426 12.5162 27.5162 10.2668 27.5162 7.60351C27.5162 4.94018 22.2394 2.68596 15.9918 2.68596Z" fill="url(#paint5_linear_835_4548)"/>
<path d="M15.9983 13.2366C9.97229 13.2366 5.07489 10.7069 5.07489 7.5986C5.07489 4.49028 9.97228 1.96387 15.9869 1.96387C22.0016 1.96387 26.9153 4.49355 26.9153 7.60186C26.9153 10.7102 22.0179 13.2366 15.9983 13.2366ZM15.9983 2.20999C13.1384 2.20999 10.4479 2.78373 8.41528 3.82853C6.41854 4.85377 5.32082 6.19358 5.32082 7.5986C5.32082 9.00361 6.4218 10.3451 8.41528 11.3719C10.4495 12.4167 13.1384 12.9921 15.9967 12.9921C18.8501 12.9921 21.5342 12.4167 23.5733 11.3719C25.57 10.3467 26.6677 9.0085 26.6677 7.60186C26.6677 6.19521 25.5667 4.85539 23.5733 3.83016C21.5391 2.78536 18.8469 2.20999 15.9918 2.20999H15.9983Z" fill="url(#paint6_linear_835_4548)"/>
<path d="M15.9951 13.7142C10.4381 13.7142 5.91693 10.971 5.91693 7.60028C5.91693 4.22955 10.4365 1.48798 15.9918 1.48798C21.5472 1.48798 26.0716 4.23118 26.0716 7.60192C26.0716 10.9726 21.5505 13.7142 15.9951 13.7142ZM15.9951 1.73247C10.5717 1.73247 6.16286 4.36484 6.16286 7.60028C6.16286 10.8357 10.5733 13.4681 15.9951 13.4681C21.4153 13.4681 25.8241 10.8357 25.8241 7.60028C25.8241 4.36484 21.4169 1.73247 15.9918 1.73247H15.9951Z" fill="url(#paint7_linear_835_4548)"/>
<path d="M15.9935 14.1917C10.904 14.1917 6.76227 11.235 6.76227 7.6002C6.76227 3.96541 10.9023 1.01031 15.9919 1.01031C21.0815 1.01031 25.2248 3.96704 25.2248 7.60183C25.2248 11.2366 21.0913 14.1917 15.9935 14.1917ZM15.9935 1.25481C11.0375 1.25481 7.00657 4.10233 7.00657 7.6002C7.00657 11.0981 11.0391 13.9456 15.9935 13.9456C20.9479 13.9456 24.9789 11.0997 24.9789 7.60183C24.9789 4.10396 20.9463 1.25481 15.9919 1.25481H15.9935Z" fill="url(#paint8_linear_835_4548)"/>
<path d="M15.9935 14.6693V14.4232C20.4805 14.4232 24.1368 11.3638 24.1368 7.60188C24.1368 3.83996 20.4805 0.780548 15.9919 0.780548C11.5033 0.780548 7.84857 3.83996 7.84857 7.60188C7.84857 11.3638 11.5 14.4249 15.9919 14.4249V14.671C11.3681 14.671 7.6059 11.4991 7.6059 7.60188C7.6059 3.70468 11.3681 0.534424 15.9903 0.534424C20.6124 0.534424 24.3779 3.7063 24.3779 7.60351C24.3779 11.5007 20.6157 14.6693 15.9935 14.6693Z" fill="url(#paint9_linear_835_4548)"/>
<path d="M15.9919 15.147C14.5009 15.1463 13.0437 14.7032 11.8043 13.8738C10.5649 13.0443 9.59912 11.8657 9.029 10.487C8.45889 9.10828 8.31005 7.59134 8.60132 6.12796C8.89258 4.66458 9.61087 3.32049 10.6654 2.26562C11.7198 1.21076 13.0632 0.492488 14.5255 0.201626C15.9879 -0.0892371 17.5036 0.0603701 18.881 0.631531C20.2584 1.20269 21.4356 2.16976 22.2639 3.41046C23.0922 4.65117 23.5342 6.10979 23.5342 7.60192C23.5321 9.60289 22.7366 11.5212 21.3226 12.9358C19.9085 14.3504 17.9913 15.1457 15.9919 15.147ZM15.9919 0.301378C14.5491 0.301378 13.1387 0.72955 11.9391 1.53174C10.7395 2.33394 9.80451 3.47412 9.25238 4.80812C8.70026 6.14212 8.5558 7.61002 8.83727 9.02619C9.11874 10.4424 9.8135 11.7432 10.8337 12.7642C11.8539 13.7852 13.1537 14.4805 14.5687 14.7622C15.9838 15.0439 17.4505 14.8993 18.7835 14.3467C20.1164 13.7942 21.2557 12.8585 22.0573 11.6579C22.8588 10.4573 23.2867 9.04583 23.2867 7.60192C23.2845 5.66636 22.5153 3.81069 21.1477 2.44204C19.7801 1.07339 17.9259 0.303535 15.9919 0.301378Z" fill="url(#paint10_linear_835_4548)"/>
<defs>
<linearGradient id="paint0_linear_835_4548" x1="-0.00814332" y1="7.59863" x2="31.9919" y2="7.59863" gradientUnits="userSpaceOnUse">
<stop stop-color="#FDA9FF"/>
<stop offset="1" stop-color="#039CFF"/>
</linearGradient>
<linearGradient id="paint1_linear_835_4548" x1="0.838842" y1="7.60027" x2="31.145" y2="7.60027" gradientUnits="userSpaceOnUse">
<stop stop-color="#FDA9FF"/>
<stop offset="1" stop-color="#039CFF"/>
</linearGradient>
<linearGradient id="paint2_linear_835_4548" x1="1.68408" y1="7.60024" x2="30.2997" y2="7.60024" gradientUnits="userSpaceOnUse">
<stop stop-color="#FDA9FF"/>
<stop offset="1" stop-color="#039CFF"/>
</linearGradient>
<linearGradient id="paint3_linear_835_4548" x1="2.53093" y1="7.60031" x2="29.4527" y2="7.60031" gradientUnits="userSpaceOnUse">
<stop stop-color="#FDA9FF"/>
<stop offset="1" stop-color="#039CFF"/>
</linearGradient>
<linearGradient id="paint4_linear_835_4548" x1="3.37628" y1="7.60022" x2="28.6075" y2="7.60022" gradientUnits="userSpaceOnUse">
<stop stop-color="#FDA9FF"/>
<stop offset="1" stop-color="#039CFF"/>
</linearGradient>
<linearGradient id="paint5_linear_835_4548" x1="4.22308" y1="7.60025" x2="27.7622" y2="7.60025" gradientUnits="userSpaceOnUse">
<stop stop-color="#FDA9FF"/>
<stop offset="1" stop-color="#039CFF"/>
</linearGradient>
<linearGradient id="paint6_linear_835_4548" x1="5.06838" y1="7.60023" x2="26.9153" y2="7.60023" gradientUnits="userSpaceOnUse">
<stop stop-color="#FDA9FF"/>
<stop offset="1" stop-color="#039CFF"/>
</linearGradient>
<linearGradient id="paint7_linear_835_4548" x1="5.91367" y1="7.60028" x2="26.0684" y2="7.60028" gradientUnits="userSpaceOnUse">
<stop stop-color="#FDA9FF"/>
<stop offset="1" stop-color="#039CFF"/>
</linearGradient>
<linearGradient id="paint8_linear_835_4548" x1="6.76064" y1="7.6002" x2="25.2232" y2="7.6002" gradientUnits="userSpaceOnUse">
<stop stop-color="#FDA9FF"/>
<stop offset="1" stop-color="#039CFF"/>
</linearGradient>
<linearGradient id="paint9_linear_835_4548" x1="7.6059" y1="7.60025" x2="24.3779" y2="7.60025" gradientUnits="userSpaceOnUse">
<stop stop-color="#FDA9FF"/>
<stop offset="1" stop-color="#039CFF"/>
</linearGradient>
<linearGradient id="paint10_linear_835_4548" x1="8.4528" y1="7.60192" x2="23.531" y2="7.60192" gradientUnits="userSpaceOnUse">
<stop stop-color="#FDA9FF"/>
<stop offset="1" stop-color="#039CFF"/>
</linearGradient>
</defs>
</svg>
