<svg width="256" height="256" viewBox="0 0 256 256" fill="none" xmlns="http://www.w3.org/2000/svg">
<circle cx="81.5" cy="81.5" r="81.125" transform="matrix(-1 0 0 1 213 46.5)" fill="#0D0D0D" stroke="#0D0D0D" stroke-width="0.75"/>
<circle cx="81.5" cy="81.5" r="81" transform="matrix(-1 0 0 1 206 46.5)" fill="white" stroke="#0D0D0D"/>
<circle cx="66.5" cy="66.5" r="66" transform="matrix(-1 0 0 1 191 61.5)" fill="white" stroke="#0D0D0D"/>
<circle cx="51" cy="51" r="50.5" transform="matrix(-1 0 0 1 175.5 77)" fill="white" stroke="#0D0D0D"/>
<mask id="path-5-inside-1_135_3863" fill="white">
<path d="M124.5 61.5C87.7731 61.5 58 91.2731 58 128C58 164.727 87.7731 194.5 124.5 194.5C125.928 194.5 127.345 194.455 128.75 194.366C94.0034 192.175 66.5 163.299 66.5 128C66.5 92.7007 94.0034 63.8243 128.75 61.6328C127.345 61.5442 125.928 61.5 124.5 61.5Z"/>
</mask>
<path d="M124.5 61.5C87.7731 61.5 58 91.2731 58 128C58 164.727 87.7731 194.5 124.5 194.5C125.928 194.5 127.345 194.455 128.75 194.366C94.0034 192.175 66.5 163.299 66.5 128C66.5 92.7007 94.0034 63.8243 128.75 61.6328C127.345 61.5442 125.928 61.5 124.5 61.5Z" fill="#0D0D0D"/>
<path d="M128.75 194.366L128.797 193.618L128.797 195.115L128.75 194.366ZM128.75 61.6328L128.797 60.8843L128.797 62.3813L128.75 61.6328ZM124.5 61.5V62.25C88.1873 62.25 58.75 91.6873 58.75 128H58H57.25C57.25 90.8589 87.3589 60.75 124.5 60.75V61.5ZM58 128H58.75C58.75 164.313 88.1873 193.75 124.5 193.75V194.5V195.25C87.3589 195.25 57.25 165.141 57.25 128H58ZM124.5 194.5V193.75C125.912 193.75 127.313 193.705 128.703 193.618L128.75 194.366L128.797 195.115C127.376 195.204 125.943 195.25 124.5 195.25V194.5ZM128.75 194.366L128.703 195.115C93.5636 192.898 65.75 163.698 65.75 128H66.5H67.25C67.25 162.901 94.4432 191.451 128.797 193.618L128.75 194.366ZM66.5 128H65.75C65.75 92.3023 93.5636 63.1006 128.703 60.8843L128.75 61.6328L128.797 62.3813C94.4432 64.5481 67.25 93.0991 67.25 128H66.5ZM128.75 61.6328L128.703 62.3813C127.314 62.2937 125.912 62.25 124.5 62.25V61.5V60.75C125.943 60.75 127.376 60.7947 128.797 60.8843L128.75 61.6328Z" fill="#0D0D0D" mask="url(#path-5-inside-1_135_3863)"/>
<mask id="path-7-inside-2_135_3863" fill="white">
<path d="M168.216 94.1709C171.34 91.0472 176.405 91.047 179.529 94.1709L182.357 97C185.482 100.124 185.482 105.189 182.357 108.313L128.114 162.558C125.856 164.815 122.585 165.44 119.765 164.435C118.536 164.067 117.378 163.399 116.408 162.429L84.3438 130.363C81.2196 127.239 81.2196 122.174 84.3438 119.05L87.1719 116.222C90.2961 113.097 95.3612 113.097 98.4854 116.222L122.325 140.062L168.216 94.1709Z"/>
</mask>
<path d="M168.216 94.1709C171.34 91.0472 176.405 91.047 179.529 94.1709L182.357 97C185.482 100.124 185.482 105.189 182.357 108.313L128.114 162.558C125.856 164.815 122.585 165.44 119.765 164.435C118.536 164.067 117.378 163.399 116.408 162.429L84.3438 130.363C81.2196 127.239 81.2196 122.174 84.3438 119.05L87.1719 116.222C90.2961 113.097 95.3612 113.097 98.4854 116.222L122.325 140.062L168.216 94.1709Z" fill="#0D0D0D"/>
<path d="M168.216 94.1709L167.686 93.6405L167.685 93.6406L168.216 94.1709ZM179.529 94.1709L180.06 93.6407L180.06 93.6406L179.529 94.1709ZM182.357 97L181.827 97.5302L181.827 97.5303L182.357 97ZM182.357 108.313L181.827 107.783L181.827 107.783L182.357 108.313ZM128.114 162.558L128.645 163.088L128.645 163.088L128.114 162.558ZM119.765 164.435L120.017 163.728L119.998 163.722L119.98 163.716L119.765 164.435ZM116.408 162.429L115.878 162.959L115.878 162.959L116.408 162.429ZM84.3438 130.363L84.8741 129.833L84.8741 129.833L84.3438 130.363ZM87.1719 116.222L86.6415 115.691H86.6415L87.1719 116.222ZM122.325 140.062L121.795 140.592L122.325 141.122L122.856 140.592L122.325 140.062ZM168.216 94.1709L168.746 94.7013C171.577 91.8704 176.168 91.8702 178.999 94.7012L179.529 94.1709L180.06 93.6406C176.643 90.2237 171.103 90.224 167.686 93.6405L168.216 94.1709ZM179.529 94.1709L178.999 94.7011L181.827 97.5302L182.357 97L182.888 96.4698L180.06 93.6407L179.529 94.1709ZM182.357 97L181.827 97.5303C184.658 100.362 184.658 104.952 181.827 107.783L182.357 108.313L182.888 108.844C186.305 105.427 186.305 99.8868 182.888 96.4697L182.357 97ZM182.357 108.313L181.827 107.783L127.584 162.027L128.114 162.558L128.645 163.088L182.888 108.844L182.357 108.313ZM128.114 162.558L127.584 162.027C125.539 164.072 122.574 164.64 120.017 163.728L119.765 164.435L119.513 165.141C122.595 166.24 126.174 165.558 128.645 163.088L128.114 162.558ZM119.765 164.435L119.98 163.716C118.867 163.383 117.818 162.778 116.939 161.898L116.408 162.429L115.878 162.959C116.938 164.02 118.206 164.751 119.55 165.153L119.765 164.435ZM116.408 162.429L116.939 161.898L84.8741 129.833L84.3438 130.363L83.8134 130.894L115.878 162.959L116.408 162.429ZM84.3438 130.363L84.8741 129.833C82.0428 127.002 82.0428 122.411 84.8741 119.58L84.3438 119.05L83.8134 118.519C80.3963 121.937 80.3963 127.477 83.8134 130.894L84.3438 130.363ZM84.3438 119.05L84.8741 119.58L87.7022 116.752L87.1719 116.222L86.6415 115.691L83.8134 118.519L84.3438 119.05ZM87.1719 116.222L87.7022 116.752C90.5335 113.921 95.1237 113.921 97.955 116.752L98.4854 116.222L99.0157 115.691C95.5986 112.274 90.0586 112.274 86.6415 115.691L87.1719 116.222ZM98.4854 116.222L97.955 116.752L121.795 140.592L122.325 140.062L122.856 139.531L99.0157 115.691L98.4854 116.222ZM122.325 140.062L122.856 140.592L168.746 94.7012L168.216 94.1709L167.685 93.6406L121.795 139.531L122.325 140.062Z" fill="#0D0D0D" mask="url(#path-7-inside-2_135_3863)"/>
<mask id="path-9-inside-3_135_3863" fill="white">
<path d="M163.386 93.3438C166.51 90.2196 171.576 90.2196 174.701 93.3438L177.529 96.1719C180.653 99.2961 180.653 104.361 177.529 107.485L123.285 161.729C121.028 163.986 117.76 164.611 114.941 163.608C113.711 163.241 112.551 162.572 111.58 161.601L79.5142 129.535C76.3904 126.411 76.3902 121.346 79.5142 118.222L82.3433 115.394C85.4675 112.269 90.5326 112.269 93.6567 115.394L117.497 139.233L163.386 93.3438Z"/>
</mask>
<path d="M163.386 93.3438C166.51 90.2196 171.576 90.2196 174.701 93.3438L177.529 96.1719C180.653 99.2961 180.653 104.361 177.529 107.485L123.285 161.729C121.028 163.986 117.76 164.611 114.941 163.608C113.711 163.241 112.551 162.572 111.58 161.601L79.5142 129.535C76.3904 126.411 76.3902 121.346 79.5142 118.222L82.3433 115.394C85.4675 112.269 90.5326 112.269 93.6567 115.394L117.497 139.233L163.386 93.3438Z" fill="#B5FF00"/>
<path d="M163.386 93.3438L164.093 94.0509L163.386 93.3438ZM174.701 93.3438L175.408 92.6366L174.701 93.3438ZM177.529 96.1719L178.236 95.4648L178.236 95.4648L177.529 96.1719ZM177.529 107.485L178.236 108.192L178.236 108.192L177.529 107.485ZM123.285 161.729L123.992 162.437L123.992 162.437L123.285 161.729ZM114.941 163.608L115.276 162.666L115.252 162.658L115.227 162.65L114.941 163.608ZM79.5142 129.535L78.807 130.242L78.8071 130.242L79.5142 129.535ZM79.5142 118.222L78.8072 117.514L78.807 117.515L79.5142 118.222ZM82.3433 115.394L83.0502 116.101L83.0504 116.101L82.3433 115.394ZM117.497 139.233L116.789 139.941L117.497 140.648L118.204 139.941L117.497 139.233ZM163.386 93.3438L164.093 94.0509C166.827 91.3172 171.26 91.3172 173.994 94.0509L174.701 93.3438L175.408 92.6366C171.893 89.1219 166.194 89.1219 162.679 92.6366L163.386 93.3438ZM174.701 93.3438L173.994 94.0509L176.822 96.879L177.529 96.1719L178.236 95.4648L175.408 92.6366L174.701 93.3438ZM177.529 96.1719L176.822 96.879C179.555 99.6126 179.555 104.045 176.822 106.778L177.529 107.485L178.236 108.192C181.751 104.678 181.75 98.9795 178.236 95.4648L177.529 96.1719ZM177.529 107.485L176.822 106.778L122.578 161.022L123.285 161.729L123.992 162.437L178.236 108.192L177.529 107.485ZM123.285 161.729L122.578 161.022C120.604 162.995 117.745 163.545 115.276 162.666L114.941 163.608L114.606 164.551C117.774 165.678 121.452 164.976 123.992 162.437L123.285 161.729ZM114.941 163.608L115.227 162.65C114.152 162.329 113.138 161.745 112.287 160.893L111.58 161.601L110.872 162.308C111.964 163.4 113.27 164.153 114.655 164.567L114.941 163.608ZM111.58 161.601L112.287 160.893L80.2213 128.828L79.5142 129.535L78.8071 130.242L110.872 162.308L111.58 161.601ZM79.5142 129.535L80.2213 128.828C77.488 126.094 77.4879 121.662 80.2213 118.929L79.5142 118.222L78.807 117.515C75.2925 121.029 75.2928 126.728 78.807 130.242L79.5142 129.535ZM79.5142 118.222L80.2211 118.929L83.0502 116.101L82.3433 115.394L81.6363 114.686L78.8072 117.514L79.5142 118.222ZM82.3433 115.394L83.0504 116.101C85.784 113.367 90.216 113.367 92.9496 116.101L93.6567 115.394L94.3638 114.686C90.8491 111.172 85.1509 111.172 81.6362 114.686L82.3433 115.394ZM93.6567 115.394L92.9496 116.101L116.789 139.941L117.497 139.233L118.204 138.526L94.3638 114.686L93.6567 115.394ZM117.497 139.233L118.204 139.941L164.093 94.0509L163.386 93.3438L162.679 92.6366L116.789 138.526L117.497 139.233Z" fill="#0D0D0D" mask="url(#path-9-inside-3_135_3863)"/>
<path d="M166.25 163C166.013 163 165.809 163.166 165.761 163.398L163.152 175.941L150.401 178.51C150.168 178.557 150 178.762 150 179C150 179.238 150.168 179.443 150.401 179.49L163.152 182.058L165.761 194.602C165.809 194.834 166.013 195 166.25 195C166.487 195 166.691 194.834 166.739 194.602L169.349 182.058L182.099 179.49C182.332 179.443 182.5 179.238 182.5 179C182.5 178.762 182.332 178.557 182.099 178.51L169.349 175.941L166.739 163.398L166.715 163.314C166.64 163.127 166.457 163 166.25 163Z" fill="white" stroke="#0D0D0D" stroke-linejoin="round"/>
<path d="M54.25 79.5C54.4869 79.5 54.691 79.6665 54.7393 79.8984L57.3477 92.4414L70.0986 95.0098C70.332 95.0568 70.5 95.2619 70.5 95.5C70.5 95.7381 70.332 95.9432 70.0986 95.9902L57.3477 98.5576L54.7393 111.102C54.691 111.334 54.4869 111.5 54.25 111.5C54.0131 111.5 53.809 111.334 53.7607 111.102L51.1514 98.5576L38.4014 95.9902C38.168 95.9432 38 95.7381 38 95.5C38 95.2619 38.168 95.0568 38.4014 95.0098L51.1514 92.4414L53.7607 79.8984L53.7852 79.8145C53.8598 79.6272 54.0427 79.5 54.25 79.5Z" fill="white" stroke="#0D0D0D" stroke-linejoin="round"/>
</svg>
