<svg width="14" height="16" viewBox="0 0 14 16" fill="none" xmlns="http://www.w3.org/2000/svg">
<path d="M2.68 1.76001L1.64 3.14668C1.43401 3.42133 1.33102 3.55865 1.33341 3.6736C1.33549 3.77364 1.38239 3.86744 1.46117 3.92913C1.55169 4.00001 1.72335 4.00001 2.06667 4.00001H11.9333C12.2766 4.00001 12.4483 4.00001 12.5388 3.92913C12.6176 3.86744 12.6645 3.77364 12.6666 3.6736C12.669 3.55865 12.566 3.42133 12.36 3.14668L11.32 1.76001M2.68 1.76001C2.79733 1.60357 2.856 1.52534 2.93035 1.46893C2.9962 1.41896 3.07077 1.38167 3.15026 1.35897C3.24 1.33334 3.33778 1.33334 3.53333 1.33334H10.4667C10.6622 1.33334 10.76 1.33334 10.8497 1.35897C10.9292 1.38167 11.0038 1.41896 11.0697 1.46893C11.144 1.52534 11.2027 1.60357 11.32 1.76001M2.68 1.76001L1.42667 3.43112C1.26836 3.6422 1.18921 3.74773 1.133 3.86396C1.08312 3.96709 1.04675 4.07622 1.02477 4.18865C1 4.31535 1 4.44727 1 4.71112L1 12.5333C1 13.2801 1 13.6534 1.14532 13.9387C1.27316 14.1895 1.47713 14.3935 1.72801 14.5213C2.01323 14.6667 2.3866 14.6667 3.13333 14.6667L10.8667 14.6667C11.6134 14.6667 11.9868 14.6667 12.272 14.5214C12.5229 14.3935 12.7268 14.1895 12.8547 13.9387C13 13.6534 13 13.2801 13 12.5333V4.71112C13 4.44728 13 4.31535 12.9752 4.18865C12.9533 4.07622 12.9169 3.96709 12.867 3.86396C12.8108 3.74774 12.7316 3.6422 12.5733 3.43112L11.32 1.76001M9.66667 6.66668C9.66667 7.37392 9.38572 8.0522 8.88562 8.55229C8.38552 9.05239 7.70724 9.33334 7 9.33334C6.29276 9.33334 5.61448 9.05239 5.11438 8.55229C4.61428 8.0522 4.33333 7.37392 4.33333 6.66668" stroke="#0D0D0D" stroke-width="1.33333" stroke-linecap="round" stroke-linejoin="round"/>
</svg>
