<svg width="16" height="16" viewBox="0 0 16 16" fill="none" xmlns="http://www.w3.org/2000/svg">
<path d="M12.0933 14.4133C11.5066 14.5867 10.8133 14.6667 9.99995 14.6667H5.99995C5.18662 14.6667 4.49328 14.5867 3.90662 14.4133C4.05328 12.68 5.83328 11.3133 7.99995 11.3133C10.1666 11.3133 11.9466 12.68 12.0933 14.4133Z" fill="#0D0D0D" stroke="#0D0D0D" stroke-width="1.33"/>
<path d="M10 1.33334H6.00004C2.66671 1.33334 1.33337 2.66668 1.33337 6.00001V10C1.33337 12.52 2.09337 13.9 3.90671 14.4133C4.05337 12.68 5.83337 11.3133 8.00004 11.3133C10.1667 11.3133 11.9467 12.68 12.0934 14.4133C13.9067 13.9 14.6667 12.52 14.6667 10V6.00001C14.6667 2.66668 13.3334 1.33334 10 1.33334Z" stroke="#0D0D0D" stroke-width="1.33" stroke-linecap="round" stroke-linejoin="round"/>
<path d="M10.4979 7.49653C10.4979 8.87729 9.38107 10 7.99896 10C6.61685 10 5.5 8.87729 5.5 7.49653C5.5 6.11577 6.61685 5 7.99896 5C9.38107 5 10.4979 6.11577 10.4979 7.49653Z" fill="#0D0D0D"/>
</svg>
