<svg width="36" height="36" viewBox="0 0 36 36" fill="none" xmlns="http://www.w3.org/2000/svg">
<path fill-rule="evenodd" clip-rule="evenodd" d="M17.7249 3.42212C17.8133 3.45167 17.9018 3.47136 18 3.47136C18.1965 3.47136 18.3832 3.39258 18.5207 3.25471C18.6582 3.12668 18.7368 2.92972 18.7368 2.73277C18.7368 2.53581 18.6582 2.3487 18.5207 2.21082C18.3144 2.00402 17.9902 1.94493 17.7249 2.05326C17.6267 2.09265 17.5481 2.14189 17.4793 2.21082C17.4105 2.27976 17.3614 2.36839 17.3221 2.45702C17.2828 2.54565 17.2632 2.63429 17.2632 2.73277C17.2632 2.92972 17.3418 3.11684 17.4793 3.25471C17.5481 3.32364 17.6267 3.38273 17.7249 3.42212ZM23.0597 15.092C23.1756 15.276 23.1775 15.498 23.1122 15.6927H27.3235L27.8049 16.9828L18.5207 25.127C18.6386 25.255 18.7172 25.4323 18.7172 25.6194C18.7172 26.033 18.393 26.358 17.9804 26.358C17.7544 26.358 17.5579 26.2497 17.4204 26.0921L15.3572 27.9041L14.1881 27.0769L16.8997 20.2917H14.247C14.3649 20.6166 14.2569 20.9909 13.9326 21.178C13.8246 21.2371 13.6969 21.2765 13.5691 21.2765C13.3137 21.2765 13.0681 21.1386 12.9305 20.9022C12.8225 20.7053 12.8225 20.4886 12.8912 20.2917H8.66668L8.18527 19.0016L17.4695 10.8672C17.3516 10.7293 17.273 10.5619 17.273 10.3649C17.273 9.96117 17.607 9.62634 18.0098 9.62634C18.2358 9.62634 18.4323 9.73467 18.5698 9.90208L20.633 8.09006L21.8021 8.91729L19.0905 15.7025H21.7432C21.6253 15.3677 21.7432 15.0033 22.0576 14.8162C22.4112 14.6094 22.8632 14.7374 23.0597 15.092ZM17.3025 23.2953C17.3811 23.5415 17.5776 23.7286 17.833 23.7975L16.713 24.7823L17.3025 23.3051V23.2953ZM18.727 23.0196C18.6877 22.6453 18.393 22.3597 18.0098 22.3597C17.8723 22.3597 17.7544 22.409 17.6463 22.4681L18.1277 21.2765C18.4814 21.2174 18.7467 20.9219 18.7467 20.5576C18.7467 20.3901 18.6779 20.2424 18.5895 20.1144L18.6976 19.8387L18.0098 18.8243H10.6414L13.6576 16.1851C13.8835 16.1654 14.1095 16.0472 14.2274 15.8305C14.2667 15.7616 14.2863 15.6927 14.2961 15.6237L19.2969 11.2414L17.3221 16.1851L18.0098 17.1994H19.6702C19.8077 17.3767 20.0042 17.485 20.2204 17.485C20.3481 17.485 20.4758 17.4555 20.5937 17.3865C20.6821 17.3373 20.7509 17.2782 20.8098 17.1994H25.3881L18.7369 23.0294L18.727 23.0196ZM11.7418 7.1939C11.6239 7.25299 11.4961 7.29238 11.3684 7.29238C11.113 7.29238 10.8674 7.15451 10.7298 6.91816C10.5333 6.56363 10.6512 6.11063 11.0049 5.91367C11.3586 5.70686 11.8105 5.82504 12.007 6.17956C12.2133 6.53409 12.0856 6.98709 11.7418 7.1939ZM13.579 6.02198C13.7067 6.02198 13.8344 5.98259 13.9425 5.9235C14.306 5.71669 14.4239 5.26369 14.2176 4.90916C14.0211 4.55463 13.5691 4.43646 13.2154 4.64327C12.8618 4.84022 12.7439 5.29323 12.9404 5.64776C13.0779 5.88411 13.3235 6.02198 13.579 6.02198ZM16.1628 4.64326C16.0449 4.71219 15.9172 4.74174 15.7895 4.74174C15.534 4.74174 15.2884 4.61371 15.1509 4.37736C14.9544 4.02284 15.0723 3.56983 15.426 3.36302C15.7797 3.16607 16.2316 3.28424 16.4281 3.63877C16.6344 3.99329 16.5067 4.4463 16.1628 4.64326ZM9.1579 8.56276C9.28562 8.56276 9.41334 8.53322 9.52141 8.46428C9.8751 8.25748 10.0028 7.80447 9.7965 7.45979C9.60001 7.10527 9.14808 6.97724 8.79439 7.18405C8.44071 7.39086 8.32282 7.84386 8.51931 8.18854C8.65685 8.42489 8.90247 8.56276 9.1579 8.56276ZM6.30878 9.4589C6.11229 9.11422 6.23018 8.66121 6.58387 8.45441C6.93755 8.2476 7.38948 8.37562 7.58597 8.73015C7.79229 9.08467 7.66457 9.53768 7.32071 9.73464C7.20282 9.80357 7.0751 9.83312 6.94738 9.83312C6.69194 9.83312 6.44632 9.70509 6.30878 9.4589ZM5.25754 9.84297C5.1986 9.77404 5.11018 9.7248 5.02175 9.68541C4.74667 9.56723 4.42246 9.63617 4.21614 9.84297C4.0786 9.98085 4 10.1778 4 10.3649C4 10.5619 4.0786 10.749 4.21614 10.8869C4.28491 10.9558 4.37333 11.0149 4.46175 11.0543C4.55018 11.0838 4.64842 11.1035 4.73684 11.1035C4.83509 11.1035 4.93333 11.0838 5.02175 11.0543C5.11018 11.0149 5.1986 10.9558 5.25754 10.8869C5.39509 10.7588 5.47368 10.5619 5.47368 10.3649C5.47368 10.2763 5.45404 10.1778 5.42456 10.0892C5.38526 10.0005 5.32632 9.91191 5.25754 9.84297ZM31.7839 10.8869C31.6463 11.0247 31.4596 11.1134 31.2632 11.1134C31.0765 11.1134 30.88 11.0247 30.7425 10.8869C30.6049 10.7588 30.5263 10.5619 30.5263 10.3649C30.5263 10.2763 30.546 10.1778 30.5853 10.0892C30.6246 9.9907 30.6737 9.91191 30.7425 9.84298C30.8112 9.77404 30.8898 9.7248 30.9881 9.68541C31.2533 9.56724 31.5775 9.63617 31.7839 9.84298C31.8526 9.91191 31.9116 10.0005 31.9509 10.0892C31.9804 10.1778 32 10.2763 32 10.3649C32 10.5619 31.9214 10.7588 31.7839 10.8869ZM26.8421 13.6542C26.9698 13.6542 27.0976 13.6148 27.2154 13.5557C27.5593 13.3489 27.687 12.8959 27.4807 12.5413C27.2842 12.1967 26.8323 12.0686 26.4786 12.2754C26.1249 12.4724 26.007 12.9254 26.2035 13.2799C26.3411 13.5163 26.5867 13.6542 26.8421 13.6542ZM28.414 12.0095C28.2176 11.655 28.3354 11.202 28.6891 11.005C29.0428 10.7982 29.4947 10.9164 29.6912 11.2709C29.8976 11.6255 29.7698 12.0785 29.4161 12.2853C29.3081 12.3444 29.1804 12.3739 29.0526 12.3739C28.7972 12.3739 28.5516 12.2459 28.414 12.0095ZM24.6316 14.9245C24.7593 14.9245 24.887 14.895 25.0049 14.8261C25.3586 14.6193 25.4765 14.1662 25.2702 13.8117C25.0737 13.467 24.6218 13.339 24.2681 13.5458C23.9144 13.7428 23.7965 14.1958 23.993 14.5503C24.1305 14.7867 24.3761 14.9245 24.6316 14.9245ZM17.2632 17.9971C17.2632 17.81 17.3418 17.613 17.4793 17.4752C17.7642 17.1994 18.2456 17.1994 18.5207 17.4752C18.6582 17.613 18.7368 17.81 18.7368 17.9971C18.7368 18.0956 18.7172 18.1941 18.6877 18.2827C18.6484 18.3713 18.5895 18.4501 18.5207 18.519C18.3832 18.6569 18.1965 18.7455 18 18.7455C17.9018 18.7455 17.8133 18.716 17.7249 18.6865C17.6267 18.6471 17.5481 18.588 17.4793 18.519C17.4105 18.4501 17.3614 18.3713 17.3221 18.2827C17.2828 18.1941 17.2632 18.0956 17.2632 17.9971ZM4.73684 23.8271C5.14379 23.8271 5.47368 23.4964 5.47368 23.0885C5.47368 22.6806 5.14379 22.3499 4.73684 22.3499C4.3299 22.3499 4 22.6806 4 23.0885C4 23.4964 4.3299 23.8271 4.73684 23.8271ZM5.47368 15.4563C5.47368 15.8642 5.14379 16.1949 4.73684 16.1949C4.3299 16.1949 4 15.8642 4 15.4563C4 15.0484 4.3299 14.7177 4.73684 14.7177C5.14379 14.7177 5.47368 15.0484 5.47368 15.4563ZM4.73684 13.6541C5.14379 13.6541 5.47368 13.3235 5.47368 12.9155C5.47368 12.5076 5.14379 12.1769 4.73684 12.1769C4.3299 12.1769 4 12.5076 4 12.9155C4 13.3235 4.3299 13.6541 4.73684 13.6541ZM5.47368 17.9971C5.47368 18.405 5.14379 18.7357 4.73684 18.7357C4.3299 18.7357 4 18.405 4 17.9971C4 17.5892 4.3299 17.2585 4.73684 17.2585C5.14379 17.2585 5.47368 17.5892 5.47368 17.9971ZM4.73684 21.2863C5.14379 21.2863 5.47368 20.9556 5.47368 20.5477C5.47368 20.1398 5.14379 19.8091 4.73684 19.8091C4.3299 19.8091 4 20.1398 4 20.5477C4 20.9556 4.3299 21.2863 4.73684 21.2863ZM5.02175 24.9497C5.11018 24.9891 5.1986 25.0384 5.25754 25.1073C5.32632 25.1762 5.38526 25.2649 5.42456 25.3535C5.45404 25.4421 5.47368 25.5406 5.47368 25.6292C5.47368 25.8262 5.39509 26.0232 5.25754 26.1512C5.1986 26.2201 5.11018 26.2792 5.02175 26.3186C4.93333 26.3481 4.83509 26.3678 4.73684 26.3678C4.64842 26.3678 4.55018 26.3481 4.46175 26.3186C4.37333 26.2792 4.28491 26.2201 4.21614 26.1512C4.0786 26.0133 4 25.8262 4 25.6292C4 25.4421 4.0786 25.2452 4.21614 25.1073C4.42246 24.9005 4.74667 24.8316 5.02175 24.9497ZM18 8.56276C18.4069 8.56276 18.7368 8.23208 18.7368 7.82417C18.7368 7.41625 18.4069 7.08557 18 7.08557C17.5931 7.08557 17.2632 7.41625 17.2632 7.82417C17.2632 8.23208 17.5931 8.56276 18 8.56276ZM18.7368 5.28338C18.7368 5.6913 18.4069 6.02198 18 6.02198C17.5931 6.02198 17.2632 5.6913 17.2632 5.28338C17.2632 4.87547 17.5931 4.54478 18 4.54478C18.4069 4.54478 18.7368 4.87547 18.7368 5.28338ZM18 31.4592C18.4069 31.4592 18.7368 31.1286 18.7368 30.7207C18.7368 30.3127 18.4069 29.9821 18 29.9821C17.5931 29.9821 17.2632 30.3127 17.2632 30.7207C17.2632 31.1286 17.5931 31.4592 18 31.4592ZM18.7368 28.1799C18.7368 28.5878 18.4069 28.9185 18 28.9185C17.5931 28.9185 17.2632 28.5878 17.2632 28.1799C17.2632 27.7719 17.5931 27.4413 18 27.4413C18.4069 27.4413 18.7368 27.7719 18.7368 28.1799ZM18.5207 32.7395C18.3144 32.5327 17.9902 32.4736 17.7249 32.5819C17.6267 32.6213 17.5481 32.6705 17.4793 32.7395C17.4105 32.8084 17.3614 32.897 17.3221 32.9857C17.2828 33.0743 17.2632 33.1728 17.2632 33.2614C17.2632 33.4584 17.3418 33.6455 17.4793 33.7833C17.6168 33.9212 17.8133 34 18 34C18.1965 34 18.3832 33.9212 18.5207 33.7833C18.6582 33.6553 18.7368 33.4584 18.7368 33.2614C18.7368 33.1728 18.7172 33.0743 18.6877 32.9857C18.6484 32.8872 18.5895 32.8084 18.5207 32.7395ZM28.414 23.9945C28.6204 23.64 29.0723 23.5218 29.4161 23.7188C29.7698 23.9256 29.8976 24.3786 29.6912 24.7331C29.5635 24.9694 29.3081 25.0975 29.0526 25.0975C28.9249 25.0975 28.807 25.0679 28.6891 24.999C28.3354 24.802 28.2176 24.349 28.414 23.9945ZM27.2154 22.4484C26.8618 22.2416 26.4098 22.3696 26.2035 22.7241C26.007 23.0688 26.1249 23.5218 26.4786 23.7286C26.5965 23.7975 26.7144 23.8271 26.8421 23.8271C27.0976 23.8271 27.3432 23.6892 27.4807 23.4529C27.687 23.0983 27.5593 22.6552 27.2154 22.4484ZM23.993 21.4438C24.1993 21.0992 24.6512 20.9711 25.0049 21.178C25.3586 21.3749 25.4765 21.8279 25.2702 22.1824C25.1326 22.4188 24.887 22.5567 24.6316 22.5567C24.5137 22.5567 24.386 22.5271 24.2681 22.4582C23.9144 22.2514 23.7965 21.7984 23.993 21.4438ZM30.7425 25.1073C30.6049 25.2452 30.5263 25.4422 30.5263 25.6293C30.5263 25.7277 30.546 25.8262 30.5853 25.9149C30.6246 26.0035 30.6737 26.0823 30.7425 26.1512C30.88 26.2891 31.0765 26.3679 31.2632 26.3679C31.4596 26.3679 31.6463 26.2891 31.7839 26.1512C31.8526 26.0921 31.9116 26.0035 31.9509 25.9149C31.9804 25.8262 32 25.7277 32 25.6293C32 25.4422 31.9214 25.2452 31.7839 25.1073C31.5088 24.8316 31.0274 24.8316 30.7425 25.1073ZM9.1579 13.6542C9.03018 13.6542 8.91229 13.6246 8.79439 13.5557C8.44071 13.3489 8.32282 12.8959 8.51931 12.5413C8.72562 12.1967 9.17755 12.0686 9.52141 12.2754C9.8751 12.4724 10.0028 12.9254 9.7965 13.2799C9.65896 13.5163 9.41334 13.6542 9.1579 13.6542ZM7.32071 11.005C6.96703 10.7982 6.5151 10.9164 6.30878 11.2709C6.11229 11.6255 6.23018 12.0785 6.58387 12.2754C6.70176 12.3444 6.81966 12.3837 6.94738 12.3837C7.20282 12.3837 7.44843 12.2459 7.58597 12.0095C7.79229 11.655 7.66457 11.202 7.32071 11.005ZM15.1509 16.3623C15.3572 16.0078 15.8091 15.8896 16.1628 16.0866C16.5067 16.2934 16.6344 16.7464 16.4281 17.0911C16.2905 17.3373 16.0449 17.4653 15.7895 17.4653C15.6716 17.4653 15.5439 17.4358 15.426 17.3668C15.0723 17.16 14.9544 16.7168 15.1509 16.3623ZM11.0049 14.8261C11.1228 14.895 11.2505 14.9245 11.3684 14.9245C11.6239 14.9245 11.8695 14.7867 12.007 14.5503C12.2133 14.1958 12.0856 13.7428 11.7418 13.5458C11.3881 13.339 10.9361 13.467 10.7298 13.8117C10.5333 14.1662 10.6512 14.6193 11.0049 14.8261ZM10.7298 29.0859C10.9361 28.7215 11.3881 28.6033 11.7418 28.8101C12.0856 29.0071 12.2133 29.4601 12.007 29.8146C11.8695 30.051 11.6239 30.1889 11.3684 30.1889C11.2505 30.1889 11.1228 30.1593 11.0049 30.0904C10.6512 29.8836 10.5333 29.4306 10.7298 29.0859ZM13.9425 30.0805C13.5986 29.8737 13.1467 30.0018 12.9404 30.3563C12.7439 30.701 12.8618 31.154 13.2154 31.3608C13.3333 31.4297 13.4512 31.4592 13.579 31.4592C13.8344 31.4592 14.08 31.3214 14.2176 31.085C14.4239 30.7305 14.306 30.2775 13.9425 30.0805ZM6.30878 26.5353C6.5151 26.1807 6.96703 26.0625 7.32071 26.2595C7.66457 26.4663 7.79229 26.9193 7.58597 27.2738C7.44843 27.5102 7.20282 27.6382 6.94738 27.6382C6.81966 27.6382 6.70176 27.6087 6.58387 27.5397C6.23018 27.3428 6.11229 26.8898 6.30878 26.5353ZM16.1628 31.3509C15.8091 31.1539 15.3572 31.2721 15.1509 31.6267C14.9544 31.9812 15.0723 32.4342 15.426 32.6311C15.5439 32.7001 15.6716 32.7296 15.7895 32.7296C16.0449 32.7296 16.2905 32.6016 16.4281 32.3652C16.6344 32.0107 16.5067 31.5577 16.1628 31.3509ZM8.51931 27.8056C8.72562 27.4511 9.17755 27.3329 9.52141 27.5398C9.8751 27.7367 10.0028 28.1897 9.7965 28.5442C9.65896 28.7806 9.41334 28.9185 9.1579 28.9185C9.03018 28.9185 8.91229 28.8791 8.79439 28.82C8.44071 28.6132 8.32282 28.1602 8.51931 27.8056ZM24.2681 7.19391C24.386 7.26284 24.5137 7.29239 24.6316 7.29239C24.887 7.29239 25.1326 7.15451 25.2702 6.91816C25.4765 6.56364 25.3586 6.11063 25.0049 5.91367C24.6512 5.70687 24.1993 5.83489 23.993 6.17957C23.7965 6.53409 23.9144 6.9871 24.2681 7.19391ZM22.4211 6.02198C22.2933 6.02198 22.1754 5.98259 22.0576 5.92351C21.7039 5.7167 21.586 5.26369 21.7825 4.90917C21.9888 4.56449 22.4407 4.43646 22.7944 4.64327C23.1481 4.84023 23.266 5.29324 23.0597 5.64776C22.9319 5.88411 22.6765 6.02198 22.4211 6.02198ZM19.847 4.65311C19.9649 4.7122 20.0828 4.74175 20.2105 4.74175C20.466 4.74175 20.7116 4.61372 20.8491 4.37737C21.0554 4.02285 20.9376 3.56984 20.5839 3.37288C20.2302 3.16607 19.7783 3.28425 19.5719 3.63877C19.3754 3.9933 19.4933 4.44631 19.847 4.65311ZM28.414 8.73015C28.6204 8.37562 29.0723 8.2476 29.4161 8.45441C29.7698 8.66121 29.8976 9.11422 29.6912 9.4589C29.5635 9.70509 29.3081 9.83312 29.0526 9.83312C28.9249 9.83312 28.807 9.80357 28.6891 9.73464C28.3354 9.53768 28.2176 9.08467 28.414 8.73015ZM26.4786 8.46428C26.5965 8.53322 26.7144 8.56276 26.8421 8.56276C27.0976 8.56276 27.3432 8.42489 27.4807 8.18854C27.687 7.83401 27.5593 7.39086 27.2154 7.18405C26.8618 6.97724 26.4098 7.10527 26.2035 7.45979C26.007 7.80447 26.1249 8.25748 26.4786 8.46428ZM32 23.0885C32 23.4964 31.6701 23.8271 31.2632 23.8271C30.8562 23.8271 30.5263 23.4964 30.5263 23.0885C30.5263 22.6806 30.8562 22.3499 31.2632 22.3499C31.6701 22.3499 32 22.6806 32 23.0885ZM31.2632 13.6541C31.6701 13.6541 32 13.3235 32 12.9155C32 12.5076 31.6701 12.1769 31.2632 12.1769C30.8562 12.1769 30.5263 12.5076 30.5263 12.9155C30.5263 13.3235 30.8562 13.6541 31.2632 13.6541ZM32 17.9971C32 18.405 31.6701 18.7357 31.2632 18.7357C30.8562 18.7357 30.5263 18.405 30.5263 17.9971C30.5263 17.5892 30.8562 17.2585 31.2632 17.2585C31.6701 17.2585 32 17.5892 32 17.9971ZM31.2632 16.1949C31.6701 16.1949 32 15.8642 32 15.4563C32 15.0484 31.6701 14.7177 31.2632 14.7177C30.8562 14.7177 30.5263 15.0484 30.5263 15.4563C30.5263 15.8642 30.8562 16.1949 31.2632 16.1949ZM32 20.5477C32 20.9556 31.6701 21.2863 31.2632 21.2863C30.8562 21.2863 30.5263 20.9556 30.5263 20.5477C30.5263 20.1398 30.8562 19.8091 31.2632 19.8091C31.6701 19.8091 32 20.1398 32 20.5477ZM19.847 31.3509C19.4933 31.5577 19.3754 32.0107 19.5719 32.3652C19.7095 32.6016 19.9551 32.7296 20.2105 32.7296C20.3383 32.7296 20.466 32.7001 20.5839 32.6311C20.9376 32.4342 21.0554 31.9812 20.8491 31.6267C20.6526 31.2721 20.2007 31.1539 19.847 31.3509ZM23.993 29.8146C23.7965 29.4601 23.9144 29.0071 24.2681 28.8101C24.6218 28.6033 25.0737 28.7313 25.2702 29.076C25.4765 29.4305 25.3586 29.8836 25.0049 30.0904C24.887 30.1593 24.7593 30.1888 24.6316 30.1888C24.3761 30.1888 24.1305 30.051 23.993 29.8146ZM22.0576 30.0805C21.7039 30.2873 21.586 30.7305 21.7825 31.085C21.92 31.3214 22.1656 31.4592 22.4211 31.4592C22.5488 31.4592 22.6765 31.4297 22.7944 31.3608C23.1481 31.154 23.266 30.7108 23.0597 30.3563C22.8632 30.0018 22.4112 29.8737 22.0576 30.0805ZM28.414 27.2739C28.2176 26.9193 28.3354 26.4663 28.6891 26.2694C29.0428 26.0626 29.4947 26.1807 29.6912 26.5353C29.8976 26.8898 29.7698 27.3428 29.4161 27.5398C29.3081 27.6087 29.1804 27.6481 29.0526 27.6481C28.7972 27.6481 28.5516 27.5102 28.414 27.2739ZM26.4786 27.5398C26.1249 27.7367 26.007 28.1897 26.2035 28.5442C26.3411 28.7806 26.5867 28.9185 26.8421 28.9185C26.9698 28.9185 27.0976 28.8889 27.2154 28.82C27.5593 28.6132 27.687 28.1602 27.4807 27.8057C27.2842 27.461 26.8323 27.3329 26.4786 27.5398ZM6.30878 24.7232C6.11229 24.3786 6.23018 23.9256 6.58387 23.7188C6.93755 23.5218 7.38948 23.64 7.58597 23.9945C7.79229 24.349 7.66457 24.802 7.32071 24.999C7.20282 25.0679 7.0751 25.0975 6.94738 25.0975C6.69194 25.0975 6.44632 24.9694 6.30878 24.7232ZM8.79439 22.4484C8.44071 22.6552 8.32282 23.0983 8.51931 23.4529C8.65685 23.6892 8.90247 23.8271 9.1579 23.8271C9.28562 23.8271 9.41334 23.7975 9.52141 23.7286C9.8751 23.5218 10.0028 23.0786 9.7965 22.7241C9.60001 22.3696 9.14808 22.2416 8.79439 22.4484ZM10.7298 22.1824C10.5333 21.8279 10.6512 21.3749 11.0049 21.178C11.3586 20.9711 11.8105 21.0992 12.007 21.4438C12.2133 21.7984 12.0856 22.2514 11.7418 22.4582C11.6239 22.5271 11.4961 22.5567 11.3684 22.5567C11.113 22.5567 10.8674 22.4188 10.7298 22.1824Z" fill="#0D0D0D"/>
</svg>
