<svg width="240" height="240" viewBox="0 0 240 240" fill="none" xmlns="http://www.w3.org/2000/svg">
<rect width="240" height="240" transform="matrix(-1 0 0 1 240 0)" fill="white"/>
<path d="M120 202L34 151.998L120 102L206 151.998L120 202Z" fill="#B5FF00" fill-opacity="0.5"/>
<path d="M206 185.998L120.005 235.999L120 202L206 151.998V185.998Z" fill="#B5FF00" fill-opacity="0.5"/>
<path d="M120.005 235.999L34.014 185.999L34 151.998L120 202L120.005 235.999Z" fill="#B5FF00" fill-opacity="0.5"/>
<path d="M120 202L34 151.998M120 202L206 151.998M120 202L120.005 235.999M34 151.998L120 102L206 151.998M34 151.998L34.014 185.999M206 151.998V185.998M206 185.998L120.005 235.999M206 185.998L120 236L34.014 185.999M120.005 235.999L34.014 185.999" stroke="black" stroke-opacity="0.75" stroke-linecap="round" stroke-linejoin="round" stroke-dasharray="4 4"/>
<path d="M120 148.343L50 107.67L120 67L190 107.67L120 148.343Z" fill="white" fill-opacity="0.5"/>
<path d="M190 135.327L120.004 176L120 148.343L190 107.67V135.327Z" fill="white" fill-opacity="0.5"/>
<path d="M120.004 176L50.0114 135.327L50 107.67L120 148.343L120.004 176Z" fill="white" fill-opacity="0.5"/>
<path d="M120 148.343L50 107.67M120 148.343L190 107.67M120 148.343L120.004 176M50 107.67L120 67L190 107.67M50 107.67L50.0114 135.327M190 107.67V135.327M190 135.327L120.004 176M190 135.327L120 176L50.0114 135.327M120.004 176L50.0114 135.327" stroke="#0D0D0D" stroke-linecap="round" stroke-linejoin="round" stroke-dasharray="4 4"/>
<path d="M120 98.1791L65 66.0882L120 34L175 66.0882L120 98.1791Z" fill="#B5FF00"/>
<path d="M175 87.9091L120.003 120L120 98.1791L175 66.0882V87.9091Z" fill="#B5FF00"/>
<path d="M120.003 120L65.0089 87.9096L65 66.0882L120 98.1791L120.003 120Z" fill="#B5FF00"/>
<path d="M120 98.1791L65 66.0882M120 98.1791L175 66.0882M120 98.1791L120.003 120M65 66.0882L120 34L175 66.0882M65 66.0882L65.0089 87.9096M175 66.0882V87.9091M175 87.9091L120.003 120M175 87.9091L120 120L65.0089 87.9096M120.003 120L65.0089 87.9096" stroke="black" stroke-linecap="round" stroke-linejoin="round"/>
<path d="M120 50.2687L80 27.1333L120 4L160 27.1333L120 50.2687Z" fill="white" fill-opacity="0.5"/>
<path d="M160 42.8647L120.002 65.9997L120 50.2687L160 27.1333V42.8647Z" fill="white" fill-opacity="0.5"/>
<path d="M120.002 65.9997L80.0065 42.865L80 27.1333L120 50.2687L120.002 65.9997Z" fill="white" fill-opacity="0.5"/>
<path d="M120 50.2687L80 27.1333M120 50.2687L160 27.1333M120 50.2687L120.002 65.9997M80 27.1333L120 4L160 27.1333M80 27.1333L80.0065 42.865M160 27.1333V42.8647M160 42.8647L120.002 65.9997M160 42.8647L120 66L80.0065 42.865M120.002 65.9997L80.0065 42.865" stroke="#0D0D0D" stroke-linecap="round" stroke-linejoin="round" stroke-dasharray="4 4"/>
</svg>
