<svg width="40" height="40" viewBox="0 0 40 40" fill="none" xmlns="http://www.w3.org/2000/svg">
<rect width="40" height="40" rx="4" fill="#EEF4EC" fill-opacity="0.5"/>
<path d="M20 32.5C26.9271 32.5 32.5 26.9271 32.5 20C32.5 13.0729 26.9271 7.5 20 7.5C13.0729 7.5 7.5 13.0729 7.5 20C7.5 26.9271 13.0729 32.5 20 32.5Z" fill="#2775CA"/>
<path d="M23.4362 21.979C23.4362 20.1561 22.3424 19.5311 20.1549 19.2708C18.5924 19.0624 18.2799 18.6458 18.2799 17.9165C18.2799 17.1873 18.8008 16.7186 19.8424 16.7186C20.7799 16.7186 21.3008 17.0311 21.5612 17.8124C21.6133 17.9686 21.7695 18.0728 21.9258 18.0728H22.759C22.9674 18.0728 23.1237 17.9165 23.1237 17.7083V17.6561C22.9153 16.5103 21.9778 15.6249 20.7799 15.5208V14.2708C20.7799 14.0624 20.6237 13.9061 20.3633 13.854H19.582C19.3737 13.854 19.2174 14.0103 19.1653 14.2708V15.4686C17.6028 15.677 16.6133 16.7186 16.6133 18.0208C16.6133 19.7395 17.6549 20.4165 19.8424 20.677C21.3008 20.9374 21.7695 21.2499 21.7695 22.0833C21.7695 22.9166 21.0403 23.4895 20.0508 23.4895C18.6965 23.4895 18.2278 22.9165 18.0715 22.1353C18.0195 21.927 17.8633 21.8228 17.707 21.8228H16.8215C16.6133 21.8228 16.457 21.979 16.457 22.1874V22.2395C16.6653 23.5415 17.4987 24.479 19.2174 24.7395V25.9895C19.2174 26.1978 19.3737 26.354 19.634 26.4061H20.4153C20.6237 26.4061 20.7799 26.2499 20.832 25.9895V24.7395C22.3945 24.479 23.4362 23.3853 23.4362 21.979Z" fill="white"/>
<path d="M17.3438 27.448C13.2813 25.9897 11.1979 21.4585 12.7084 17.448C13.4897 15.2605 15.2084 13.5939 17.3438 12.8126C17.5522 12.7085 17.6563 12.5522 17.6563 12.2917V11.5626C17.6563 11.3542 17.5522 11.198 17.3438 11.146C17.2917 11.146 17.1875 11.146 17.1354 11.198C12.1875 12.7605 9.47916 18.021 11.0417 22.9689C11.9792 25.8855 14.2188 28.1251 17.1354 29.0626C17.3438 29.1667 17.5522 29.0626 17.6042 28.8542C17.6563 28.8022 17.6563 28.7501 17.6563 28.646V27.9167C17.6563 27.7605 17.5 27.5522 17.3438 27.448ZM22.8647 11.198C22.6563 11.0939 22.4479 11.198 22.3959 11.4064C22.3438 11.4585 22.3438 11.5105 22.3438 11.6147V12.3439C22.3438 12.5522 22.5 12.7605 22.6563 12.8647C26.7188 14.323 28.8022 18.8542 27.2917 22.8647C26.5104 25.0522 24.7917 26.7189 22.6563 27.5001C22.4479 27.6042 22.3438 27.7605 22.3438 28.021V28.7501C22.3438 28.9585 22.4479 29.1147 22.6563 29.1667C22.7084 29.1667 22.8125 29.1667 22.8647 29.1147C27.8125 27.5522 30.5209 22.2917 28.9584 17.3439C28.0209 14.3751 25.7292 12.1355 22.8647 11.198Z" fill="white"/>
</svg>
