<svg width="40" height="40" viewBox="0 0 40 40" fill="none" xmlns="http://www.w3.org/2000/svg">
<rect width="40" height="40" rx="4" fill="#EEF4EC" fill-opacity="0.5"/>
<path fill-rule="evenodd" clip-rule="evenodd" d="M12.2396 8.74994H28.0802C28.4589 8.74994 28.8078 8.94679 28.9947 9.26326L33.6096 17.0428C33.8488 17.4465 33.7765 17.9548 33.4376 18.2837L20.7342 30.4563C20.3231 30.8501 19.6602 30.8501 19.2491 30.4563L6.56315 18.2987C6.21429 17.9648 6.1495 17.439 6.40616 17.0328L11.3375 9.23834C11.5294 8.93434 11.8708 8.74994 12.2371 8.74994H12.2396ZM26.0344 12.2236V14.4064H21.5217V15.919C24.6913 16.0809 27.0685 16.7438 27.0859 17.5411V19.2007C27.0685 19.9956 24.6913 20.6609 21.5217 20.8229V24.5357H18.5265V20.8229C15.3568 20.6609 12.9796 19.9981 12.9622 19.2007V17.5411C12.9796 16.7438 15.3568 16.0809 18.5265 15.919V14.4064H14.0137V12.2236H26.0344ZM20.0241 19.6841C23.4055 19.6841 26.2337 19.1235 26.924 18.3734C26.3384 17.738 24.2153 17.2371 21.5217 17.1001V18.6849C21.0382 18.7098 20.5374 18.7223 20.0241 18.7223C19.5107 18.7223 19.0099 18.7098 18.5265 18.6849V17.1001C15.8328 17.2371 13.7097 17.738 13.1242 18.3734C13.8169 19.1235 16.6426 19.6841 20.0241 19.6841Z" fill="#009393"/>
</svg>
