<svg width="28" height="32" viewBox="0 0 28 32" fill="none" xmlns="http://www.w3.org/2000/svg">
<path fill-rule="evenodd" clip-rule="evenodd" d="M10.6014 2V6L14 8L17.3985 6V2L14 0L10.6014 2ZM15.8768 5.14999L14 6.25L12.1232 5.14999V2.85001L14 1.75L15.8768 2.85001V5.14999ZM0 8V12L3.39856 14L6.7971 12V8L3.39856 6L0 8ZM5.27536 11.15L3.39856 12.25L1.52173 11.15V8.85L3.39856 7.75L5.27536 8.85V11.15ZM0 24V20L3.39856 18L6.7971 20V24L3.39856 26L0 24ZM3.39856 24.25L5.27536 23.15V20.85L3.39856 19.75L1.52173 20.85V23.15L3.39856 24.25ZM24.6014 6L21.2029 8V12L24.6014 14L28 12V8L24.6014 6ZM26.4782 11.15L24.6014 12.25L22.7246 11.15V8.85L24.6014 7.75L26.4782 8.85V11.15ZM21.2029 24V20L24.6014 18L28 20V24L24.6014 26L21.2029 24ZM24.6014 24.25L26.4782 23.15V20.85L24.6014 19.75L22.7246 20.85V23.15L24.6014 24.25ZM10.6014 14V18L14 20L17.3985 18V14L14 12L10.6014 14ZM15.8768 17.15L14 18.25L12.1232 17.15V14.85L14 13.75L15.8768 14.85V17.15ZM10.6014 30V26L14 24L17.3985 26V30L14 32L10.6014 30ZM14 30.25L15.8768 29.15V26.85L14 25.75L12.1232 26.85V29.15L14 30.25ZM7.2638 6.94C6.8985 7.14999 6.7667 7.61002 6.9797 7.97C7.1217 8.21 7.3753 8.34 7.6391 8.34C7.771 8.34 7.8927 8.31 8.0145 8.24C8.3797 8.04 8.5116 7.58002 8.2985 7.22C8.0855 6.86002 7.6188 6.74002 7.2638 6.94ZM9.1 6.76999C8.887 6.41 9.0188 5.94998 9.3841 5.73999C9.7391 5.54001 10.2058 5.66 10.4188 6.01999C10.6319 6.38 10.5 6.84 10.1348 7.04001C10.0232 7.10999 9.8913 7.13998 9.7594 7.13998C9.4956 7.13998 9.242 7.00998 9.1 6.76999ZM17.8652 12.94C17.5 13.15 17.3783 13.61 17.5812 13.97C17.7232 14.21 17.9768 14.34 18.2406 14.34C18.3725 14.34 18.5044 14.31 18.616 14.24C18.9812 14.04 19.1131 13.58 18.9 13.22C18.687 12.86 18.2304 12.74 17.8652 12.94ZM19.7015 12.77C19.4884 12.41 19.6203 11.95 19.9855 11.74C20.3507 11.54 20.8073 11.66 21.0203 12.02C21.2333 12.38 21.1015 12.84 20.7362 13.04C20.6247 13.11 20.4928 13.14 20.3609 13.14C20.0971 13.14 19.8435 13.01 19.7015 12.77ZM3.39856 17.94C3.81879 17.94 4.15942 17.6042 4.15942 17.19C4.15942 16.7758 3.81879 16.44 3.39856 16.44C2.97836 16.44 2.6377 16.7758 2.6377 17.19C2.6377 17.6042 2.97836 17.94 3.39856 17.94ZM4.15942 14.79C4.15942 15.2042 3.81879 15.54 3.39856 15.54C2.97836 15.54 2.6377 15.2042 2.6377 14.79C2.6377 14.3758 2.97836 14.04 3.39856 14.04C3.81879 14.04 4.15942 14.3758 4.15942 14.79ZM14 23.94C14.4202 23.94 14.7609 23.6042 14.7609 23.19C14.7609 22.7758 14.4202 22.44 14 22.44C13.5798 22.44 13.2391 22.7758 13.2391 23.19C13.2391 23.6042 13.5798 23.94 14 23.94ZM14.7609 20.79C14.7609 21.2042 14.4202 21.54 14 21.54C13.5798 21.54 13.2391 21.2042 13.2391 20.79C13.2391 20.3758 13.5798 20.04 14 20.04C14.4202 20.04 14.7609 20.3758 14.7609 20.79ZM10.1348 12.94C9.7696 12.74 9.313 12.86 9.1 13.22C8.887 13.58 9.0188 14.04 9.3841 14.24C9.4956 14.31 9.6275 14.34 9.7594 14.34C10.0232 14.34 10.2768 14.21 10.4188 13.97C10.6319 13.61 10.5 13.15 10.1348 12.94ZM6.9797 12.02C7.1826 11.66 7.6493 11.54 8.0145 11.74C8.3797 11.95 8.5014 12.41 8.2985 12.77C8.1565 13.01 7.9029 13.14 7.6391 13.14C7.5072 13.14 7.3753 13.11 7.2638 13.04C6.8985 12.84 6.7667 12.38 6.9797 12.02ZM10.1348 24.94C9.7696 24.74 9.313 24.86 9.1 25.22C8.887 25.58 9.0188 26.04 9.3841 26.24C9.4956 26.31 9.6275 26.34 9.7594 26.34C10.0232 26.34 10.2768 26.21 10.4188 25.97C10.6319 25.61 10.5 25.15 10.1348 24.94ZM6.9797 24.02C7.1826 23.66 7.6493 23.54 8.0145 23.74C8.3797 23.95 8.5014 24.41 8.2985 24.77C8.1565 25.01 7.9029 25.14 7.6391 25.14C7.5072 25.14 7.3753 25.11 7.2638 25.04C6.8985 24.84 6.7667 24.38 6.9797 24.02ZM20.7362 6.94C20.3812 6.74002 19.9145 6.86002 19.7015 7.22C19.4884 7.58002 19.6203 8.04 19.9855 8.24C20.1073 8.31 20.229 8.34 20.3609 8.34C20.6247 8.34 20.8783 8.21 21.0203 7.97C21.2333 7.61002 21.1015 7.14999 20.7362 6.94ZM17.5812 6.01999C17.7942 5.66 18.2507 5.54001 18.616 5.73999C18.9812 5.94998 19.1131 6.41 18.9 6.76999C18.758 7.00998 18.5044 7.13998 18.2406 7.13998C18.1087 7.13998 17.9768 7.10999 17.8652 7.04001C17.5 6.84 17.3783 6.38 17.5812 6.01999ZM24.6014 17.94C25.0217 17.94 25.3623 17.6042 25.3623 17.19C25.3623 16.7758 25.0217 16.44 24.6014 16.44C24.1812 16.44 23.8406 16.7758 23.8406 17.19C23.8406 17.6042 24.1812 17.94 24.6014 17.94ZM25.3623 14.79C25.3623 15.2042 25.0217 15.54 24.6014 15.54C24.1812 15.54 23.8406 15.2042 23.8406 14.79C23.8406 14.3758 24.1812 14.04 24.6014 14.04C25.0217 14.04 25.3623 14.3758 25.3623 14.79ZM17.8652 24.94C17.5 25.15 17.3783 25.61 17.5812 25.97C17.7232 26.21 17.9768 26.34 18.2406 26.34C18.3725 26.34 18.5044 26.31 18.616 26.24C18.9812 26.04 19.1131 25.58 18.9 25.22C18.687 24.86 18.2304 24.74 17.8652 24.94ZM19.7015 24.77C19.4884 24.41 19.6203 23.95 19.9855 23.74C20.3507 23.54 20.8073 23.66 21.0203 24.02C21.2333 24.38 21.1015 24.84 20.7362 25.04C20.6247 25.11 20.4928 25.14 20.3609 25.14C20.0971 25.14 19.8435 25.01 19.7015 24.77Z" fill="#0D0D0D"/>
</svg>
