<svg width="24" height="24" viewBox="0 0 24 24" fill="none" xmlns="http://www.w3.org/2000/svg">
<path d="M11.9196 8.73319C11.7544 8.30705 11.3527 8.00634 10.8834 8H9.63341C9.10008 8 8.66675 8.45833 8.66675 9.01667C8.66675 9.625 8.93341 9.84167 9.33341 9.98333L11.3334 10.6833C11.7251 10.825 11.9917 11.0417 11.9917 11.65C11.9917 12.2083 11.5584 12.6667 11.0251 12.6667H9.77508C9.33611 12.6667 8.95356 12.3933 8.77456 12" stroke="#0D0D0D" stroke-width="2" stroke-linecap="round" stroke-linejoin="round"/>
<path d="M10.3333 13V13.6167" stroke="#101010" stroke-width="1.25" stroke-linecap="round" stroke-linejoin="round"/>
<path d="M10.3333 7V7.65" stroke="#101010" stroke-width="1.25" stroke-linecap="round" stroke-linejoin="round"/>
<path d="M10.3251 16.9834C14.0024 16.9834 16.9834 14.0024 16.9834 10.3251C16.9834 6.64779 14.0024 3.66675 10.3251 3.66675C6.64779 3.66675 3.66675 6.64779 3.66675 10.3251C3.66675 14.0024 6.64779 16.9834 10.3251 16.9834Z" stroke="#0D0D0D" stroke-width="2" stroke-linejoin="round"/>
<path d="M12.8167 18.5666C13.5667 19.6249 14.7917 20.3166 16.1917 20.3166C18.4667 20.3166 20.3167 18.4666 20.3167 16.1916C20.3167 14.8083 19.6333 13.5833 18.5917 12.8333" stroke="#0D0D0D" stroke-width="2" stroke-linecap="round" stroke-linejoin="round"/>
</svg>
