<svg width="24" height="24" viewBox="0 0 24 24" fill="none" xmlns="http://www.w3.org/2000/svg">
<path d="M9.47493 20.3334H14.4749C18.6416 20.3334 20.3083 18.6667 20.3083 14.5001V9.50008C20.3083 5.33341 18.6416 3.66675 14.4749 3.66675H9.47493C5.30827 3.66675 3.6416 5.33341 3.6416 9.50008V14.5001C3.6416 18.6667 5.30827 20.3334 9.47493 20.3334Z" stroke="#0D0D0D" stroke-width="2" stroke-linejoin="round"/>
<path d="M3.6416 12.5833L8.6416 12.5667C9.2666 12.5667 9.9666 13.0417 10.1999 13.625L11.1499 16.025C11.3666 16.5667 11.7083 16.5667 11.9249 16.025L13.8333 11.1833C14.0166 10.7167 14.3583 10.7 14.5916 11.1417L15.4583 12.7833C15.7166 13.275 16.3833 13.675 16.9333 13.675H20.3166" stroke="#0D0D0D" stroke-width="2" stroke-linejoin="round"/>
</svg>
