<svg width="24" height="25" viewBox="0 0 24 25" fill="none" xmlns="http://www.w3.org/2000/svg">
<path d="M14.9951 3.5C15.0281 3.49941 17.5924 3.46045 20.2871 5.32715C20.2958 5.34877 23 12.0538 23 17.6465C22.9939 17.6806 22.4256 20.7957 18.2861 20.917C18.2861 20.917 17.0345 19.7767 16.207 18.9551C16.6413 18.832 17.0802 18.6849 17.5254 18.5127C18.2362 18.2678 19.0189 17.9133 19.835 17.417L18.9707 16.2051C18.2481 16.6446 17.5664 16.9504 16.9629 17.1572L16.9531 17.1602L16.9453 17.1631L16.9316 17.168C16.0414 17.5134 15.195 17.7408 14.373 17.8701L14.3604 17.8721C12.6663 18.1654 11.1094 18.0856 9.77344 17.8555C8.75854 17.6743 7.88305 17.4106 7.14453 17.1445C6.40554 16.8774 5.77297 16.5947 5.16113 16.1992L4.25977 17.3887C5.00769 17.8722 5.76363 18.2038 6.57227 18.4961C6.97921 18.6428 7.42832 18.7899 7.91895 18.9258C7.05424 19.7551 5.71387 20.917 5.71387 20.917C1.57429 20.7957 1.00611 17.6806 1 17.6465C1 12.0712 3.68655 5.39009 3.71191 5.32715C6.41088 3.45754 8.97968 3.49954 9.00488 3.5L9.24414 4.98438C9.25903 4.98291 10.9639 4.81568 12 4.80664C13.0407 4.79756 14.5742 4.9375 14.5742 4.9375L14.9951 3.5ZM8.33301 9.91797C7.32074 9.91814 6.50018 10.7387 6.5 11.751C6.5 12.7634 7.32064 13.5848 8.33301 13.585C9.34553 13.585 10.167 12.7635 10.167 11.751C10.1668 10.7386 9.34542 9.91797 8.33301 9.91797ZM15.667 9.91797C14.6546 9.91797 13.8342 10.7386 13.834 11.751C13.834 12.7635 14.6545 13.585 15.667 13.585C16.6794 13.5849 17.5 12.7634 17.5 11.751C17.4998 10.7387 16.6793 9.91806 15.667 9.91797Z" fill="#0D0D0D"/>
</svg>
