<svg width="24" height="25" viewBox="0 0 24 25" fill="none" xmlns="http://www.w3.org/2000/svg">
<path d="M22.99 5.3539C23.0327 5.09746 22.9365 4.83757 22.7371 4.67079C22.5377 4.50402 22.2648 4.45529 22.02 4.54273L1.48669 11.8761C1.21004 11.9749 1.01905 12.2292 1.00134 12.5225C0.983633 12.8157 1.14263 13.0912 1.40538 13.2226L7.27204 16.1559C7.50742 16.2736 7.78782 16.2561 8.00678 16.1102L12.8767 12.8636L9.96069 16.5086C9.8323 16.6691 9.77715 16.8761 9.80868 17.0792C9.84021 17.2823 9.95553 17.4628 10.1266 17.5768L15.2599 23.4435C15.4669 23.5815 15.7298 23.6051 15.9582 23.5062C16.1865 23.4073 16.3491 23.1993 16.39 22.9539L22.99 5.3539Z" fill="#0D0D0D"/>
</svg>
