<svg width="16" height="17" viewBox="0 0 16 17" fill="none" xmlns="http://www.w3.org/2000/svg">
<path d="M9.33317 2.01294V4.76663C9.33317 5.14 9.33317 5.32669 9.40583 5.46929C9.46975 5.59473 9.57174 5.69672 9.69718 5.76064C9.83978 5.8333 10.0265 5.8333 10.3998 5.8333H13.1535M9.33317 11.8333H5.33317M10.6665 9.16659H5.33317M13.3332 7.15874V11.9666C13.3332 13.0867 13.3332 13.6467 13.1152 14.0746C12.9234 14.4509 12.6175 14.7569 12.2412 14.9486C11.8133 15.1666 11.2533 15.1666 10.1332 15.1666H5.8665C4.7464 15.1666 4.18635 15.1666 3.75852 14.9486C3.3822 14.7569 3.07624 14.4509 2.88449 14.0746C2.6665 13.6467 2.6665 13.0867 2.6665 11.9666V5.03325C2.6665 3.91315 2.6665 3.35309 2.88449 2.92527C3.07624 2.54895 3.3822 2.24299 3.75852 2.05124C4.18635 1.83325 4.7464 1.83325 5.8665 1.83325H8.00769C8.49687 1.83325 8.74146 1.83325 8.97163 1.88851C9.17571 1.93751 9.3708 2.01831 9.54974 2.12797C9.75157 2.25166 9.92453 2.42461 10.2704 2.77051L12.3959 4.89599C12.7418 5.2419 12.9148 5.41485 13.0385 5.61668C13.1481 5.79563 13.2289 5.99072 13.2779 6.19479C13.3332 6.42496 13.3332 6.66955 13.3332 7.15874Z" stroke="#101828" stroke-width="1.5" stroke-linecap="round" stroke-linejoin="round"/>
</svg>
