<svg width="200" height="200" viewBox="0 0 200 200" fill="none" xmlns="http://www.w3.org/2000/svg">
<rect x="-0.375" y="-0.375" width="113.25" height="171.75" rx="7.625" transform="matrix(4.36237e-08 -1 -1 -4.37993e-08 184.75 154.25)" fill="#0D0D0D" stroke="#0D0D0D" stroke-width="0.75"/>
<rect x="-0.5" y="-0.5" width="113" height="171.5" rx="7.5" transform="matrix(4.36237e-08 -1 -1 -4.37993e-08 180.5 152)" fill="white" stroke="#0D0D0D"/>
<rect width="109" height="19" transform="translate(29 76)" fill="#B5FF00"/>
<path d="M42.3636 83C42.2386 82.6174 42.0739 82.2746 41.8693 81.9716C41.6686 81.6648 41.428 81.4034 41.1477 81.1875C40.8712 80.9716 40.5568 80.8068 40.2045 80.6932C39.8523 80.5795 39.4659 80.5227 39.0455 80.5227C38.3561 80.5227 37.7292 80.7008 37.1648 81.0568C36.6004 81.4129 36.1515 81.9375 35.8182 82.6307C35.4848 83.3239 35.3182 84.1742 35.3182 85.1818C35.3182 86.1894 35.4867 87.0398 35.8239 87.733C36.161 88.4261 36.6174 88.9508 37.1932 89.3068C37.7689 89.6629 38.4167 89.8409 39.1364 89.8409C39.803 89.8409 40.3902 89.6989 40.8977 89.4148C41.4091 89.1269 41.8068 88.7216 42.0909 88.1989C42.3788 87.6723 42.5227 87.053 42.5227 86.3409L42.9545 86.4318H39.4545V85.1818H43.8864V86.4318C43.8864 87.3902 43.6818 88.2235 43.2727 88.9318C42.8674 89.6402 42.3068 90.1894 41.5909 90.5795C40.8788 90.9659 40.0606 91.1591 39.1364 91.1591C38.1061 91.1591 37.2008 90.9167 36.4205 90.4318C35.6439 89.947 35.0379 89.2576 34.6023 88.3636C34.1705 87.4697 33.9545 86.4091 33.9545 85.1818C33.9545 84.2614 34.0777 83.4337 34.3239 82.6989C34.5739 81.9602 34.9261 81.3314 35.3807 80.8125C35.8352 80.2936 36.3731 79.8958 36.9943 79.6193C37.6155 79.3428 38.2992 79.2045 39.0455 79.2045C39.6591 79.2045 40.2311 79.2973 40.7614 79.483C41.2955 79.6648 41.7708 79.9242 42.1875 80.2614C42.608 80.5947 42.9583 80.9943 43.2386 81.4602C43.5189 81.9223 43.7121 82.4356 43.8182 83H42.3636ZM49.777 91.1818C48.9361 91.1818 48.2107 90.9962 47.6009 90.625C46.9948 90.25 46.527 89.7273 46.1974 89.0568C45.8717 88.3826 45.7088 87.5985 45.7088 86.7045C45.7088 85.8106 45.8717 85.0227 46.1974 84.3409C46.527 83.6553 46.9853 83.1212 47.5724 82.7386C48.1634 82.3523 48.8527 82.1591 49.6406 82.1591C50.0952 82.1591 50.544 82.2348 50.9872 82.3864C51.4304 82.5379 51.8338 82.7841 52.1974 83.125C52.5611 83.4621 52.8509 83.9091 53.0668 84.4659C53.2827 85.0227 53.3906 85.7083 53.3906 86.5227V87.0909H46.6634V85.9318H52.027C52.027 85.4394 51.9285 85 51.7315 84.6136C51.5384 84.2273 51.2618 83.9223 50.902 83.6989C50.5459 83.4754 50.1255 83.3636 49.6406 83.3636C49.1065 83.3636 48.6444 83.4962 48.2543 83.7614C47.8679 84.0227 47.5705 84.3636 47.3622 84.7841C47.1539 85.2045 47.0497 85.6553 47.0497 86.1364V86.9091C47.0497 87.5682 47.1634 88.1269 47.3906 88.5852C47.6217 89.0398 47.9418 89.3864 48.3509 89.625C48.7599 89.8598 49.2353 89.9773 49.777 89.9773C50.1293 89.9773 50.4474 89.928 50.7315 89.8295C51.0194 89.7273 51.2675 89.5758 51.4759 89.375C51.6842 89.1705 51.8452 88.9167 51.9588 88.6136L53.2543 88.9773C53.1179 89.4167 52.8887 89.803 52.5668 90.1364C52.2448 90.4659 51.8471 90.7235 51.3736 90.9091C50.9001 91.0909 50.3679 91.1818 49.777 91.1818ZM56.7713 85.75V91H55.4304V82.2727H56.7259V83.6364H56.8395C57.044 83.1932 57.3546 82.8371 57.7713 82.5682C58.188 82.2955 58.7259 82.1591 59.3849 82.1591C59.9759 82.1591 60.4929 82.2803 60.9361 82.5227C61.3793 82.7614 61.724 83.125 61.9702 83.6136C62.2164 84.0985 62.3395 84.7121 62.3395 85.4545V91H60.9986V85.5455C60.9986 84.8598 60.8205 84.3258 60.4645 83.9432C60.1084 83.5568 59.6198 83.3636 58.9986 83.3636C58.5705 83.3636 58.188 83.4564 57.8509 83.642C57.5175 83.8277 57.2543 84.0985 57.0611 84.4545C56.8679 84.8106 56.7713 85.2424 56.7713 85.75ZM68.4489 91.1818C67.608 91.1818 66.8826 90.9962 66.2727 90.625C65.6667 90.25 65.1989 89.7273 64.8693 89.0568C64.5436 88.3826 64.3807 87.5985 64.3807 86.7045C64.3807 85.8106 64.5436 85.0227 64.8693 84.3409C65.1989 83.6553 65.6572 83.1212 66.2443 82.7386C66.8352 82.3523 67.5246 82.1591 68.3125 82.1591C68.767 82.1591 69.2159 82.2348 69.6591 82.3864C70.1023 82.5379 70.5057 82.7841 70.8693 83.125C71.233 83.4621 71.5227 83.9091 71.7386 84.4659C71.9545 85.0227 72.0625 85.7083 72.0625 86.5227V87.0909H65.3352V85.9318H70.6989C70.6989 85.4394 70.6004 85 70.4034 84.6136C70.2102 84.2273 69.9337 83.9223 69.5739 83.6989C69.2178 83.4754 68.7973 83.3636 68.3125 83.3636C67.7784 83.3636 67.3163 83.4962 66.9261 83.7614C66.5398 84.0227 66.2424 84.3636 66.0341 84.7841C65.8258 85.2045 65.7216 85.6553 65.7216 86.1364V86.9091C65.7216 87.5682 65.8352 88.1269 66.0625 88.5852C66.2936 89.0398 66.6136 89.3864 67.0227 89.625C67.4318 89.8598 67.9072 89.9773 68.4489 89.9773C68.8011 89.9773 69.1193 89.928 69.4034 89.8295C69.6913 89.7273 69.9394 89.5758 70.1477 89.375C70.3561 89.1705 70.517 88.9167 70.6307 88.6136L71.9261 88.9773C71.7898 89.4167 71.5606 89.803 71.2386 90.1364C70.9167 90.4659 70.5189 90.7235 70.0455 90.9091C69.572 91.0909 69.0398 91.1818 68.4489 91.1818ZM80.2841 84.2273L79.0795 84.5682C79.0038 84.3674 78.892 84.1723 78.7443 83.983C78.6004 83.7898 78.4034 83.6307 78.1534 83.5057C77.9034 83.3807 77.5833 83.3182 77.1932 83.3182C76.6591 83.3182 76.214 83.4413 75.858 83.6875C75.5057 83.9299 75.3295 84.2386 75.3295 84.6136C75.3295 84.947 75.4508 85.2102 75.6932 85.4034C75.9356 85.5966 76.3144 85.7576 76.8295 85.8864L78.125 86.2045C78.9053 86.3939 79.4867 86.6837 79.8693 87.0739C80.2519 87.4602 80.4432 87.9583 80.4432 88.5682C80.4432 89.0682 80.2992 89.5152 80.0114 89.9091C79.7273 90.303 79.3295 90.6136 78.8182 90.8409C78.3068 91.0682 77.7121 91.1818 77.0341 91.1818C76.1439 91.1818 75.4072 90.9886 74.8239 90.6023C74.2405 90.2159 73.8712 89.6515 73.7159 88.9091L74.9886 88.5909C75.1098 89.0606 75.339 89.4129 75.6761 89.6477C76.017 89.8826 76.4621 90 77.0114 90C77.6364 90 78.1326 89.8674 78.5 89.6023C78.8712 89.3333 79.0568 89.0114 79.0568 88.6364C79.0568 88.3333 78.9508 88.0795 78.7386 87.875C78.5265 87.6667 78.2008 87.5114 77.7614 87.4091L76.3068 87.0682C75.5076 86.8788 74.9205 86.5852 74.5455 86.1875C74.1742 85.786 73.9886 85.2841 73.9886 84.6818C73.9886 84.1894 74.1269 83.7538 74.4034 83.375C74.6837 82.9962 75.0644 82.6989 75.5455 82.483C76.0303 82.267 76.5795 82.1591 77.1932 82.1591C78.0568 82.1591 78.7348 82.3485 79.2273 82.7273C79.7235 83.1061 80.0758 83.6061 80.2841 84.2273ZM82.4616 91V82.2727H83.8026V91H82.4616ZM83.1435 80.8182C82.8821 80.8182 82.6567 80.7292 82.4673 80.5511C82.2817 80.3731 82.1889 80.1591 82.1889 79.9091C82.1889 79.6591 82.2817 79.4451 82.4673 79.267C82.6567 79.089 82.8821 79 83.1435 79C83.4048 79 83.6283 79.089 83.8139 79.267C84.0033 79.4451 84.098 79.6591 84.098 79.9091C84.098 80.1591 84.0033 80.3731 83.8139 80.5511C83.6283 80.7292 83.4048 80.8182 83.1435 80.8182ZM92.4403 84.2273L91.2358 84.5682C91.16 84.3674 91.0483 84.1723 90.9006 83.983C90.7566 83.7898 90.5597 83.6307 90.3097 83.5057C90.0597 83.3807 89.7396 83.3182 89.3494 83.3182C88.8153 83.3182 88.3703 83.4413 88.0142 83.6875C87.6619 83.9299 87.4858 84.2386 87.4858 84.6136C87.4858 84.947 87.607 85.2102 87.8494 85.4034C88.0919 85.5966 88.4706 85.7576 88.9858 85.8864L90.2812 86.2045C91.0616 86.3939 91.643 86.6837 92.0256 87.0739C92.4081 87.4602 92.5994 87.9583 92.5994 88.5682C92.5994 89.0682 92.4555 89.5152 92.1676 89.9091C91.8835 90.303 91.4858 90.6136 90.9744 90.8409C90.4631 91.0682 89.8684 91.1818 89.1903 91.1818C88.3002 91.1818 87.5634 90.9886 86.9801 90.6023C86.3968 90.2159 86.0275 89.6515 85.8722 88.9091L87.1449 88.5909C87.2661 89.0606 87.4953 89.4129 87.8324 89.6477C88.1733 89.8826 88.6184 90 89.1676 90C89.7926 90 90.2888 89.8674 90.6562 89.6023C91.0275 89.3333 91.2131 89.0114 91.2131 88.6364C91.2131 88.3333 91.107 88.0795 90.8949 87.875C90.6828 87.6667 90.357 87.5114 89.9176 87.4091L88.4631 87.0682C87.6638 86.8788 87.0767 86.5852 86.7017 86.1875C86.3305 85.786 86.1449 85.2841 86.1449 84.6818C86.1449 84.1894 86.2831 83.7538 86.5597 83.375C86.84 82.9962 87.2206 82.6989 87.7017 82.483C88.1866 82.267 88.7358 82.1591 89.3494 82.1591C90.2131 82.1591 90.8911 82.3485 91.3835 82.7273C91.8797 83.1061 92.232 83.6061 92.4403 84.2273ZM99.2997 91V79.3636H103.232C104.144 79.3636 104.891 79.5284 105.47 79.858C106.054 80.1837 106.485 80.625 106.766 81.1818C107.046 81.7386 107.186 82.3598 107.186 83.0455C107.186 83.7311 107.046 84.3542 106.766 84.9148C106.489 85.4754 106.061 85.9223 105.482 86.2557C104.902 86.5852 104.16 86.75 103.254 86.75H100.436V85.5H103.209C103.834 85.5 104.336 85.392 104.714 85.1761C105.093 84.9602 105.368 84.6686 105.538 84.3011C105.713 83.9299 105.8 83.5114 105.8 83.0455C105.8 82.5795 105.713 82.1629 105.538 81.7955C105.368 81.428 105.091 81.1402 104.709 80.9318C104.326 80.7197 103.819 80.6136 103.186 80.6136H100.709V91H99.2997ZM111.842 91.2045C111.289 91.2045 110.787 91.1004 110.337 90.892C109.886 90.6799 109.528 90.375 109.263 89.9773C108.998 89.5758 108.865 89.0909 108.865 88.5227C108.865 88.0227 108.964 87.6174 109.161 87.3068C109.357 86.9924 109.621 86.7462 109.95 86.5682C110.28 86.3902 110.643 86.2576 111.041 86.1705C111.443 86.0795 111.846 86.0076 112.251 85.9545C112.782 85.8864 113.212 85.8352 113.541 85.8011C113.875 85.7633 114.117 85.7008 114.268 85.6136C114.424 85.5265 114.501 85.375 114.501 85.1591V85.1136C114.501 84.553 114.348 84.1174 114.041 83.8068C113.738 83.4962 113.278 83.3409 112.661 83.3409C112.02 83.3409 111.518 83.4811 111.155 83.7614C110.791 84.0417 110.536 84.3409 110.388 84.6591L109.115 84.2045C109.342 83.6742 109.645 83.2614 110.024 82.9659C110.407 82.6667 110.823 82.4583 111.274 82.3409C111.729 82.2197 112.176 82.1591 112.615 82.1591C112.895 82.1591 113.217 82.1932 113.581 82.2614C113.948 82.3258 114.303 82.4602 114.643 82.6648C114.988 82.8693 115.274 83.178 115.501 83.5909C115.729 84.0038 115.842 84.5568 115.842 85.25V91H114.501V89.8182H114.433C114.342 90.0076 114.191 90.2102 113.979 90.4261C113.767 90.642 113.484 90.8258 113.132 90.9773C112.78 91.1288 112.35 91.2045 111.842 91.2045ZM112.047 90C112.577 90 113.024 89.8958 113.388 89.6875C113.755 89.4792 114.032 89.2102 114.217 88.8807C114.407 88.5511 114.501 88.2045 114.501 87.8409V86.6136C114.445 86.6818 114.32 86.7443 114.126 86.8011C113.937 86.8542 113.717 86.9015 113.467 86.9432C113.221 86.9811 112.981 87.0152 112.746 87.0455C112.515 87.072 112.327 87.0947 112.183 87.1136C111.835 87.1591 111.509 87.233 111.206 87.3352C110.907 87.4337 110.664 87.5833 110.479 87.7841C110.297 87.9811 110.206 88.25 110.206 88.5909C110.206 89.0568 110.378 89.4091 110.723 89.6477C111.071 89.8826 111.513 90 112.047 90ZM124.472 84.2273L123.267 84.5682C123.191 84.3674 123.08 84.1723 122.932 83.983C122.788 83.7898 122.591 83.6307 122.341 83.5057C122.091 83.3807 121.771 83.3182 121.381 83.3182C120.847 83.3182 120.402 83.4413 120.045 83.6875C119.693 83.9299 119.517 84.2386 119.517 84.6136C119.517 84.947 119.638 85.2102 119.881 85.4034C120.123 85.5966 120.502 85.7576 121.017 85.8864L122.312 86.2045C123.093 86.3939 123.674 86.6837 124.057 87.0739C124.439 87.4602 124.631 87.9583 124.631 88.5682C124.631 89.0682 124.487 89.5152 124.199 89.9091C123.915 90.303 123.517 90.6136 123.006 90.8409C122.494 91.0682 121.9 91.1818 121.222 91.1818C120.331 91.1818 119.595 90.9886 119.011 90.6023C118.428 90.2159 118.059 89.6515 117.903 88.9091L119.176 88.5909C119.297 89.0606 119.527 89.4129 119.864 89.6477C120.205 89.8826 120.65 90 121.199 90C121.824 90 122.32 89.8674 122.688 89.6023C123.059 89.3333 123.244 89.0114 123.244 88.6364C123.244 88.3333 123.138 88.0795 122.926 87.875C122.714 87.6667 122.388 87.5114 121.949 87.4091L120.494 87.0682C119.695 86.8788 119.108 86.5852 118.733 86.1875C118.362 85.786 118.176 85.2841 118.176 84.6818C118.176 84.1894 118.314 83.7538 118.591 83.375C118.871 82.9962 119.252 82.6989 119.733 82.483C120.218 82.267 120.767 82.1591 121.381 82.1591C122.244 82.1591 122.922 82.3485 123.415 82.7273C123.911 83.1061 124.263 83.6061 124.472 84.2273ZM132.831 84.2273L131.626 84.5682C131.551 84.3674 131.439 84.1723 131.291 83.983C131.147 83.7898 130.95 83.6307 130.7 83.5057C130.45 83.3807 130.13 83.3182 129.74 83.3182C129.206 83.3182 128.761 83.4413 128.405 83.6875C128.053 83.9299 127.876 84.2386 127.876 84.6136C127.876 84.947 127.998 85.2102 128.24 85.4034C128.482 85.5966 128.861 85.7576 129.376 85.8864L130.672 86.2045C131.452 86.3939 132.034 86.6837 132.416 87.0739C132.799 87.4602 132.99 87.9583 132.99 88.5682C132.99 89.0682 132.846 89.5152 132.558 89.9091C132.274 90.303 131.876 90.6136 131.365 90.8409C130.854 91.0682 130.259 91.1818 129.581 91.1818C128.691 91.1818 127.954 90.9886 127.371 90.6023C126.787 90.2159 126.418 89.6515 126.263 88.9091L127.536 88.5909C127.657 89.0606 127.886 89.4129 128.223 89.6477C128.564 89.8826 129.009 90 129.558 90C130.183 90 130.679 89.8674 131.047 89.6023C131.418 89.3333 131.604 89.0114 131.604 88.6364C131.604 88.3333 131.498 88.0795 131.286 87.875C131.073 87.6667 130.748 87.5114 130.308 87.4091L128.854 87.0682C128.054 86.8788 127.467 86.5852 127.092 86.1875C126.721 85.786 126.536 85.2841 126.536 84.6818C126.536 84.1894 126.674 83.7538 126.95 83.375C127.231 82.9962 127.611 82.6989 128.092 82.483C128.577 82.267 129.126 82.1591 129.74 82.1591C130.604 82.1591 131.282 82.3485 131.774 82.7273C132.27 83.1061 132.623 83.6061 132.831 84.2273Z" fill="#0D0D0D"/>
<path d="M34.6364 70H30.5114V58.3636H34.6705C35.8409 58.3636 36.8485 58.5966 37.6932 59.0625C38.5379 59.5246 39.1875 60.1894 39.642 61.0568C40.1004 61.9242 40.3295 62.9621 40.3295 64.1705C40.3295 65.3826 40.1004 66.4242 39.642 67.2955C39.1875 68.1667 38.5341 68.8352 37.6818 69.3011C36.8333 69.767 35.8182 70 34.6364 70ZM32.9716 67.892H34.5341C35.2614 67.892 35.8731 67.7633 36.3693 67.5057C36.8693 67.2443 37.2443 66.8409 37.4943 66.2955C37.7481 65.7462 37.875 65.0379 37.875 64.1705C37.875 63.3106 37.7481 62.608 37.4943 62.0625C37.2443 61.517 36.8712 61.1155 36.375 60.858C35.8788 60.6004 35.267 60.4716 34.5398 60.4716H32.9716V67.892ZM48.8679 62.125C48.7884 61.8485 48.6766 61.6042 48.5327 61.392C48.3887 61.1761 48.2126 60.9943 48.0043 60.8466C47.7997 60.6951 47.5649 60.5795 47.2997 60.5C47.0384 60.4205 46.7486 60.3807 46.4304 60.3807C45.8357 60.3807 45.313 60.5284 44.8622 60.8239C44.4152 61.1193 44.0668 61.5492 43.8168 62.1136C43.5668 62.6742 43.4418 63.3598 43.4418 64.1705C43.4418 64.9811 43.5649 65.6705 43.8111 66.2386C44.0573 66.8068 44.4058 67.2405 44.8565 67.5398C45.3073 67.8352 45.8395 67.983 46.4531 67.983C47.0099 67.983 47.4853 67.8845 47.8793 67.6875C48.277 67.4867 48.58 67.2045 48.7884 66.8409C49.0005 66.4773 49.1065 66.0473 49.1065 65.5511L49.6065 65.625H46.6065V63.7727H51.4759V65.2386C51.4759 66.2614 51.2599 67.1402 50.8281 67.875C50.3963 68.6061 49.8016 69.1705 49.044 69.5682C48.2865 69.9621 47.419 70.1591 46.4418 70.1591C45.3509 70.1591 44.3925 69.9186 43.5668 69.4375C42.741 68.9527 42.0971 68.2652 41.6349 67.375C41.1766 66.4811 40.9474 65.4205 40.9474 64.1932C40.9474 63.25 41.0838 62.4091 41.3565 61.6705C41.633 60.928 42.0194 60.2992 42.5156 59.7841C43.0118 59.2689 43.5895 58.8769 44.2486 58.608C44.9077 58.339 45.6217 58.2045 46.3906 58.2045C47.0497 58.2045 47.6634 58.3011 48.2315 58.4943C48.7997 58.6837 49.3035 58.9527 49.7429 59.3011C50.1861 59.6496 50.5478 60.0644 50.8281 60.5455C51.1084 61.0227 51.2884 61.5492 51.3679 62.125H48.8679ZM53.2784 70V61.2727H55.625V62.7955H55.7159C55.875 62.2538 56.142 61.8447 56.517 61.5682C56.892 61.2879 57.3239 61.1477 57.8125 61.1477C57.9337 61.1477 58.0644 61.1553 58.2045 61.1705C58.3447 61.1856 58.4678 61.2064 58.5739 61.233V63.3807C58.4602 63.3466 58.303 63.3163 58.1023 63.2898C57.9015 63.2633 57.7178 63.25 57.5511 63.25C57.1951 63.25 56.8769 63.3277 56.5966 63.483C56.3201 63.6345 56.1004 63.8466 55.9375 64.1193C55.7784 64.392 55.6989 64.7064 55.6989 65.0625V70H53.2784ZM59.8253 70V61.2727H62.2457V70H59.8253ZM61.0412 60.1477C60.6813 60.1477 60.3726 60.0284 60.1151 59.7898C59.8613 59.5473 59.7344 59.2576 59.7344 58.9205C59.7344 58.5871 59.8613 58.3011 60.1151 58.0625C60.3726 57.8201 60.6813 57.6989 61.0412 57.6989C61.401 57.6989 61.7079 57.8201 61.9616 58.0625C62.2192 58.3011 62.348 58.5871 62.348 58.9205C62.348 59.2576 62.2192 59.5473 61.9616 59.7898C61.7079 60.0284 61.401 60.1477 61.0412 60.1477ZM67.4006 70.142C66.7377 70.142 66.1373 69.9716 65.5994 69.6307C65.0653 69.286 64.6411 68.7803 64.3267 68.1136C64.0161 67.4432 63.8608 66.6212 63.8608 65.6477C63.8608 64.6477 64.0218 63.8163 64.3438 63.1534C64.6657 62.4867 65.0938 61.9886 65.6278 61.6591C66.1657 61.3258 66.7547 61.1591 67.3949 61.1591C67.8835 61.1591 68.2907 61.2424 68.6165 61.4091C68.946 61.572 69.2112 61.7765 69.4119 62.0227C69.6165 62.2652 69.7718 62.5038 69.8778 62.7386H69.9517V58.3636H72.3665V70H69.9801V68.6023H69.8778C69.7642 68.8447 69.6032 69.0852 69.3949 69.3239C69.1903 69.5587 68.9233 69.7538 68.5938 69.9091C68.268 70.0644 67.8703 70.142 67.4006 70.142ZM68.1676 68.2159C68.5578 68.2159 68.8873 68.1098 69.1562 67.8977C69.429 67.6818 69.6373 67.3807 69.7812 66.9943C69.929 66.608 70.0028 66.1553 70.0028 65.6364C70.0028 65.1174 69.9309 64.6667 69.7869 64.2841C69.643 63.9015 69.4347 63.6061 69.1619 63.3977C68.8892 63.1894 68.5578 63.0852 68.1676 63.0852C67.7699 63.0852 67.4347 63.1932 67.1619 63.4091C66.8892 63.625 66.6828 63.9242 66.5426 64.3068C66.4025 64.6894 66.3324 65.1326 66.3324 65.6364C66.3324 66.1439 66.4025 66.5928 66.5426 66.983C66.6866 67.3693 66.893 67.6723 67.1619 67.892C67.4347 68.108 67.7699 68.2159 68.1676 68.2159Z" fill="#0D0D0D"/>
<path d="M29 110L84.5 110" stroke="#0D0D0D" stroke-linecap="round"/>
<path d="M29 123L58 123" stroke="#0D0D0D" stroke-linecap="round"/>
<path d="M155.5 15C155.262 15 155.057 15.168 155.01 15.4014L152.442 28.1514L139.898 30.7607C139.666 30.809 139.5 31.0131 139.5 31.25C139.5 31.4869 139.666 31.691 139.898 31.7393L152.442 34.3477L155.01 47.0986C155.057 47.332 155.262 47.5 155.5 47.5C155.738 47.5 155.943 47.332 155.99 47.0986L158.559 34.3477L171.102 31.7393C171.334 31.691 171.5 31.4869 171.5 31.25C171.5 31.0131 171.334 30.809 171.102 30.7607L158.559 28.1514L155.99 15.4014C155.943 15.168 155.738 15 155.5 15Z" fill="white" stroke="#0D0D0D" stroke-linejoin="round"/>
<path d="M42.25 118C42.4874 118 42.6925 118.167 42.7402 118.399L45.0088 129.49L56.1006 131.76C56.3331 131.807 56.5 132.013 56.5 132.25C56.5 132.487 56.3331 132.693 56.1006 132.74L45.0088 135.009L42.7402 146.101C42.6925 146.333 42.4874 146.5 42.25 146.5C42.0126 146.5 41.8075 146.333 41.7598 146.101L39.4902 135.009L28.3994 132.74C28.1669 132.693 28 132.487 28 132.25C28 132.013 28.1669 131.807 28.3994 131.76L39.4902 129.49L41.7598 118.399L41.7852 118.315C41.8596 118.128 42.0423 118 42.25 118Z" fill="white" stroke="#0D0D0D" stroke-linejoin="round"/>
<mask id="path-9-inside-1_1688_4132" fill="white">
<path d="M183.215 99.1711C186.339 96.0472 191.404 96.0473 194.529 99.1711L197.358 102C200.481 105.124 200.482 110.19 197.358 113.314L143.114 167.557C140.86 169.81 137.597 170.437 134.781 169.44C133.546 169.073 132.383 168.403 131.408 167.429L99.343 135.364C96.2191 132.239 96.2191 127.174 99.343 124.05L102.172 121.222C105.296 118.098 110.361 118.098 113.486 121.222L137.325 145.061L183.215 99.1711Z"/>
</mask>
<path d="M183.215 99.1711C186.339 96.0472 191.404 96.0473 194.529 99.1711L197.358 102C200.481 105.124 200.482 110.19 197.358 113.314L143.114 167.557C140.86 169.81 137.597 170.437 134.781 169.44C133.546 169.073 132.383 168.403 131.408 167.429L99.343 135.364C96.2191 132.239 96.2191 127.174 99.343 124.05L102.172 121.222C105.296 118.098 110.361 118.098 113.486 121.222L137.325 145.061L183.215 99.1711Z" fill="#0D0D0D"/>
<path d="M183.215 99.1711L182.685 98.6408L182.685 98.6408L183.215 99.1711ZM194.529 99.1711L195.059 98.6408L195.059 98.6408L194.529 99.1711ZM197.358 102L197.888 101.47L197.888 101.47L197.358 102ZM197.358 113.314L197.888 113.844L197.888 113.844L197.358 113.314ZM143.114 167.557L142.583 167.027L142.583 167.027L143.114 167.557ZM134.781 169.44L135.031 168.733L135.013 168.726L134.994 168.721L134.781 169.44ZM131.408 167.429L130.878 167.959L131.408 167.429ZM99.343 135.364L98.8127 135.894L98.8127 135.894L99.343 135.364ZM99.343 124.05L98.8128 123.52L98.8127 123.52L99.343 124.05ZM102.172 121.222L102.702 121.752L102.702 121.752L102.172 121.222ZM113.486 121.222L112.955 121.752L112.955 121.752L113.486 121.222ZM137.325 145.061L136.795 145.591L137.325 146.121L137.856 145.591L137.325 145.061ZM183.215 99.1711L183.745 99.7015C186.577 96.8704 191.167 96.8705 193.998 99.7015L194.529 99.1711L195.059 98.6408C191.642 95.2241 186.102 95.2239 182.685 98.6408L183.215 99.1711ZM194.529 99.1711L193.998 99.7015L196.827 102.531L197.358 102L197.888 101.47L195.059 98.6408L194.529 99.1711ZM197.358 102L196.827 102.531C199.658 105.362 199.658 109.952 196.827 112.783L197.358 113.314L197.888 113.844C201.305 110.427 201.305 104.887 197.888 101.47L197.358 102ZM197.358 113.314L196.827 112.783L142.583 167.027L143.114 167.557L143.644 168.087L197.888 113.844L197.358 113.314ZM143.114 167.557L142.583 167.027C140.542 169.068 137.585 169.638 135.031 168.733L134.781 169.44L134.53 170.147C137.609 171.237 141.178 170.553 143.644 168.087L143.114 167.557ZM134.781 169.44L134.994 168.721C133.876 168.389 132.823 167.782 131.939 166.899L131.408 167.429L130.878 167.959C131.943 169.024 133.216 169.757 134.567 170.159L134.781 169.44ZM131.408 167.429L131.939 166.899L99.8733 134.833L99.343 135.364L98.8127 135.894L130.878 167.959L131.408 167.429ZM99.343 135.364L99.8734 134.833C97.0423 132.002 97.0423 127.412 99.8734 124.58L99.343 124.05L98.8127 123.52C95.3958 126.937 95.3959 132.477 98.8127 135.894L99.343 135.364ZM99.343 124.05L99.8733 124.58L102.702 121.752L102.172 121.222L101.642 120.692L98.8128 123.52L99.343 124.05ZM102.172 121.222L102.702 121.752C105.534 118.921 110.124 118.921 112.955 121.752L113.486 121.222L114.016 120.692C110.599 117.275 105.059 117.275 101.642 120.692L102.172 121.222ZM113.486 121.222L112.955 121.752L136.795 145.591L137.325 145.061L137.856 144.53L114.016 120.692L113.486 121.222ZM137.325 145.061L137.856 145.591L183.745 99.7015L183.215 99.1711L182.685 98.6408L136.795 144.53L137.325 145.061Z" fill="#0D0D0D" mask="url(#path-9-inside-1_1688_4132)"/>
<mask id="path-11-inside-2_1688_4132" fill="white">
<path d="M178.386 97.3428C181.511 94.2188 186.576 94.219 189.7 97.3428L192.529 100.172C195.653 103.296 195.653 108.361 192.529 111.485L138.285 165.729C136.027 167.986 132.756 168.612 129.935 167.606C128.707 167.239 127.55 166.571 126.58 165.601L94.5144 133.535C91.3906 130.411 91.3904 125.346 94.5144 122.222L97.3435 119.394C100.468 116.269 105.533 116.269 108.657 119.394L132.496 143.232L178.386 97.3428Z"/>
</mask>
<path d="M178.386 97.3428C181.511 94.2188 186.576 94.219 189.7 97.3428L192.529 100.172C195.653 103.296 195.653 108.361 192.529 111.485L138.285 165.729C136.027 167.986 132.756 168.612 129.935 167.606C128.707 167.239 127.55 166.571 126.58 165.601L94.5144 133.535C91.3906 130.411 91.3904 125.346 94.5144 122.222L97.3435 119.394C100.468 116.269 105.533 116.269 108.657 119.394L132.496 143.232L178.386 97.3428Z" fill="#B5FF00"/>
<path d="M178.386 97.3428L177.679 96.6356L177.679 96.6357L178.386 97.3428ZM189.7 97.3428L190.407 96.6357L190.407 96.6356L189.7 97.3428ZM192.529 100.172L193.236 99.4648L193.236 99.4648L192.529 100.172ZM192.529 111.485L193.236 112.192L193.236 112.192L192.529 111.485ZM138.285 165.729L137.578 165.021L137.578 165.021L138.285 165.729ZM129.935 167.606L130.271 166.665L130.247 166.656L130.222 166.648L129.935 167.606ZM126.58 165.601L127.287 164.893L126.58 165.601ZM94.5144 133.535L93.8073 134.242L93.8073 134.242L94.5144 133.535ZM94.5144 122.222L93.8074 121.514L93.8073 121.515L94.5144 122.222ZM97.3435 119.394L98.0505 120.101L98.0506 120.101L97.3435 119.394ZM132.496 143.232L131.789 143.94L132.496 144.647L133.203 143.94L132.496 143.232ZM178.386 97.3428L179.094 98.0499C181.827 95.3165 186.259 95.3166 188.993 98.0499L189.7 97.3428L190.407 96.6356C186.892 93.1214 181.194 93.1212 177.679 96.6356L178.386 97.3428ZM189.7 97.3428L188.993 98.0499L191.822 100.879L192.529 100.172L193.236 99.4648L190.407 96.6357L189.7 97.3428ZM192.529 100.172L191.822 100.879C194.555 103.613 194.555 108.045 191.822 110.778L192.529 111.485L193.236 112.192C196.751 108.678 196.75 102.979 193.236 99.4648L192.529 100.172ZM192.529 111.485L191.822 110.778L137.578 165.021L138.285 165.729L138.992 166.436L193.236 112.192L192.529 111.485ZM138.285 165.729L137.578 165.021C135.603 166.996 132.741 167.546 130.271 166.665L129.935 167.606L129.599 168.548C132.77 169.679 136.451 168.977 138.992 166.436L138.285 165.729ZM129.935 167.606L130.222 166.648C129.148 166.327 128.137 165.743 127.287 164.893L126.58 165.601L125.873 166.308C126.963 167.398 128.266 168.151 129.648 168.564L129.935 167.606ZM126.58 165.601L127.287 164.893L95.2215 132.828L94.5144 133.535L93.8073 134.242L125.873 166.308L126.58 165.601ZM94.5144 133.535L95.2215 132.828C92.4881 130.094 92.4881 125.662 95.2215 122.929L94.5144 122.222L93.8073 121.515C90.2928 125.029 90.293 130.728 93.8073 134.242L94.5144 133.535ZM94.5144 122.222L95.2214 122.929L98.0505 120.101L97.3435 119.394L96.6365 118.686L93.8074 121.514L94.5144 122.222ZM97.3435 119.394L98.0506 120.101C100.784 117.367 105.216 117.367 107.95 120.101L108.657 119.394L109.364 118.686C105.849 115.172 100.151 115.172 96.6364 118.686L97.3435 119.394ZM108.657 119.394L107.95 120.101L131.789 143.94L132.496 143.232L133.203 142.525L109.364 118.686L108.657 119.394ZM132.496 143.232L133.203 143.94L179.094 98.0499L178.386 97.3428L177.679 96.6357L131.789 142.525L132.496 143.232Z" fill="#0D0D0D" mask="url(#path-11-inside-2_1688_4132)"/>
</svg>
