<svg width="256" height="256" viewBox="0 0 256 256" fill="none" xmlns="http://www.w3.org/2000/svg">
<circle cx="81.5" cy="81.5" r="81.125" transform="matrix(-1 0 0 1 213 46.5)" fill="#0D0D0D" stroke="#0D0D0D" stroke-width="0.75"/>
<circle cx="81.5" cy="81.5" r="81" transform="matrix(-1 0 0 1 206 46.5)" fill="white" stroke="#0D0D0D"/>
<circle cx="66.5" cy="66.5" r="66" transform="matrix(-1 0 0 1 191 61.5)" fill="white" stroke="#0D0D0D"/>
<circle cx="51" cy="51" r="50.5" transform="matrix(-1 0 0 1 175.5 77)" fill="white" stroke="#0D0D0D"/>
<mask id="path-5-inside-1_642_33579" fill="white">
<path d="M124.5 61.5C87.7731 61.5 58 91.2731 58 128C58 164.727 87.7731 194.5 124.5 194.5C125.928 194.5 127.345 194.455 128.75 194.366C94.0034 192.175 66.5 163.299 66.5 128C66.5 92.7007 94.0034 63.8243 128.75 61.6328C127.345 61.5442 125.928 61.5 124.5 61.5Z"/>
</mask>
<path d="M124.5 61.5C87.7731 61.5 58 91.2731 58 128C58 164.727 87.7731 194.5 124.5 194.5C125.928 194.5 127.345 194.455 128.75 194.366C94.0034 192.175 66.5 163.299 66.5 128C66.5 92.7007 94.0034 63.8243 128.75 61.6328C127.345 61.5442 125.928 61.5 124.5 61.5Z" fill="#0D0D0D"/>
<path d="M128.75 194.366L128.797 193.618L128.797 195.115L128.75 194.366ZM128.75 61.6328L128.797 60.8843L128.797 62.3813L128.75 61.6328ZM124.5 61.5V62.25C88.1873 62.25 58.75 91.6873 58.75 128H58H57.25C57.25 90.8589 87.3589 60.75 124.5 60.75V61.5ZM58 128H58.75C58.75 164.313 88.1873 193.75 124.5 193.75V194.5V195.25C87.3589 195.25 57.25 165.141 57.25 128H58ZM124.5 194.5V193.75C125.912 193.75 127.313 193.705 128.703 193.618L128.75 194.366L128.797 195.115C127.376 195.204 125.943 195.25 124.5 195.25V194.5ZM128.75 194.366L128.703 195.115C93.5636 192.898 65.75 163.698 65.75 128H66.5H67.25C67.25 162.901 94.4432 191.451 128.797 193.618L128.75 194.366ZM66.5 128H65.75C65.75 92.3023 93.5636 63.1006 128.703 60.8843L128.75 61.6328L128.797 62.3813C94.4432 64.5481 67.25 93.0991 67.25 128H66.5ZM128.75 61.6328L128.703 62.3813C127.314 62.2937 125.912 62.25 124.5 62.25V61.5V60.75C125.943 60.75 127.376 60.7947 128.797 60.8843L128.75 61.6328Z" fill="#0D0D0D" mask="url(#path-5-inside-1_642_33579)"/>
<mask id="path-7-inside-2_642_33579" fill="white">
<path d="M168.215 94.1719C171.34 91.0477 176.405 91.0477 179.529 94.1719L182.357 97C185.481 100.124 185.481 105.189 182.357 108.313L128.114 162.558C125.856 164.815 122.585 165.44 119.765 164.435C118.537 164.067 117.379 163.399 116.409 162.429L84.3433 130.363C81.2192 127.239 81.2191 122.174 84.3433 119.05L87.1714 116.222C90.2955 113.098 95.3607 113.098 98.4849 116.222L122.325 140.062L168.215 94.1719Z"/>
</mask>
<path d="M168.215 94.1719C171.34 91.0477 176.405 91.0477 179.529 94.1719L182.357 97C185.481 100.124 185.481 105.189 182.357 108.313L128.114 162.558C125.856 164.815 122.585 165.44 119.765 164.435C118.537 164.067 117.379 163.399 116.409 162.429L84.3433 130.363C81.2192 127.239 81.2191 122.174 84.3433 119.05L87.1714 116.222C90.2955 113.098 95.3607 113.098 98.4849 116.222L122.325 140.062L168.215 94.1719Z" fill="#0D0D0D"/>
<path d="M168.215 94.1719L168.746 94.7022V94.7022L168.215 94.1719ZM179.529 94.1719L180.059 93.6415L179.529 94.1719ZM182.357 97L181.827 97.5303L182.357 97ZM182.357 108.313L181.827 107.783L181.827 107.783L182.357 108.313ZM128.114 162.558L128.644 163.088L128.644 163.088L128.114 162.558ZM119.765 164.435L120.017 163.728L119.999 163.722L119.98 163.716L119.765 164.435ZM116.409 162.429L115.878 162.959L115.878 162.959L116.409 162.429ZM84.3433 130.363L83.8129 130.894L83.8129 130.894L84.3433 130.363ZM98.4849 116.222L99.0152 115.691L99.0152 115.691L98.4849 116.222ZM122.325 140.062L121.794 140.592L122.325 141.122L122.855 140.592L122.325 140.062ZM168.215 94.1719L168.746 94.7022C171.577 91.8709 176.167 91.8709 178.998 94.7022L179.529 94.1719L180.059 93.6415C176.642 90.2245 171.102 90.2245 167.685 93.6415L168.215 94.1719ZM179.529 94.1719L178.998 94.7022L181.827 97.5303L182.357 97L182.887 96.4697L180.059 93.6415L179.529 94.1719ZM182.357 97L181.827 97.5303C184.658 100.362 184.658 104.952 181.827 107.783L182.357 108.313L182.887 108.844C186.304 105.427 186.304 99.8868 182.887 96.4697L182.357 97ZM182.357 108.313L181.827 107.783L127.583 162.027L128.114 162.558L128.644 163.088L182.887 108.844L182.357 108.313ZM128.114 162.558L127.583 162.027C125.538 164.072 122.575 164.64 120.017 163.728L119.765 164.435L119.513 165.141C122.595 166.24 126.174 165.558 128.644 163.088L128.114 162.558ZM119.765 164.435L119.98 163.716C118.867 163.383 117.819 162.778 116.939 161.898L116.409 162.429L115.878 162.959C116.939 164.02 118.206 164.751 119.55 165.153L119.765 164.435ZM116.409 162.429L116.939 161.898L84.8736 129.833L84.3433 130.363L83.8129 130.894L115.878 162.959L116.409 162.429ZM84.3433 130.363L84.8736 129.833C82.0424 127.002 82.0424 122.411 84.8736 119.58L84.3433 119.05L83.8129 118.519C80.3959 121.937 80.396 127.477 83.8129 130.894L84.3433 130.363ZM84.3433 119.05L84.8736 119.58L87.7017 116.752L87.1714 116.222L86.6411 115.691L83.8129 118.519L84.3433 119.05ZM87.1714 116.222L87.7017 116.752C90.5329 113.921 95.1232 113.921 97.9545 116.752L98.4849 116.222L99.0152 115.691C95.5981 112.274 90.0581 112.274 86.6411 115.691L87.1714 116.222ZM98.4849 116.222L97.9545 116.752L121.794 140.592L122.325 140.062L122.855 139.531L99.0152 115.691L98.4849 116.222ZM122.325 140.062L122.855 140.592L168.746 94.7022L168.215 94.1719L167.685 93.6415L121.794 139.531L122.325 140.062Z" fill="#0D0D0D" mask="url(#path-7-inside-2_642_33579)"/>
<mask id="path-9-inside-3_642_33579" fill="white">
<path d="M163.387 93.3433C166.511 90.2192 171.577 90.2191 174.701 93.3433L177.529 96.1714C180.653 99.2955 180.653 104.361 177.529 107.485L123.286 161.729C121.033 163.982 117.77 164.609 114.954 163.613C113.719 163.246 112.554 162.576 111.58 161.601L79.5151 129.536C76.3909 126.411 76.3909 121.346 79.5151 118.222L82.3433 115.393C85.4674 112.269 90.5326 112.269 93.6567 115.393L117.497 139.233L163.387 93.3433Z"/>
</mask>
<path d="M163.387 93.3433C166.511 90.2192 171.577 90.2191 174.701 93.3433L177.529 96.1714C180.653 99.2955 180.653 104.361 177.529 107.485L123.286 161.729C121.033 163.982 117.77 164.609 114.954 163.613C113.719 163.246 112.554 162.576 111.58 161.601L79.5151 129.536C76.3909 126.411 76.3909 121.346 79.5151 118.222L82.3433 115.393C85.4674 112.269 90.5326 112.269 93.6567 115.393L117.497 139.233L163.387 93.3433Z" fill="#B5FF00"/>
<path d="M163.387 93.3433L162.68 92.6361L162.68 92.6361L163.387 93.3433ZM177.529 96.1714L176.822 96.8785L177.529 96.1714ZM177.529 107.485L178.236 108.192L178.236 108.192L177.529 107.485ZM123.286 161.729L123.993 162.436L123.993 162.436L123.286 161.729ZM114.954 163.613L115.287 162.67L115.263 162.661L115.238 162.654L114.954 163.613ZM111.58 161.601L110.872 162.308L110.872 162.308L111.58 161.601ZM79.5151 129.536L80.2223 128.829L80.2222 128.829L79.5151 129.536ZM79.5151 118.222L80.2222 118.929L80.2224 118.929L79.5151 118.222ZM82.3433 115.393L81.6362 114.686L81.636 114.686L82.3433 115.393ZM93.6567 115.393L94.3638 114.686L94.3638 114.686L93.6567 115.393ZM117.497 139.233L116.789 139.94L117.497 140.647L118.204 139.94L117.497 139.233ZM163.387 93.3433L164.094 94.0504C166.828 91.3168 171.26 91.3168 173.994 94.0504L174.701 93.3433L175.408 92.6362C171.893 89.1215 166.195 89.1216 162.68 92.6361L163.387 93.3433ZM174.701 93.3433L173.994 94.0504L176.822 96.8785L177.529 96.1714L178.236 95.4643L175.408 92.6362L174.701 93.3433ZM177.529 96.1714L176.822 96.8785C179.555 99.6121 179.555 104.044 176.822 106.778L177.529 107.485L178.236 108.192C181.75 104.677 181.751 98.979 178.236 95.4643L177.529 96.1714ZM177.529 107.485L176.822 106.778L122.579 161.022L123.286 161.729L123.993 162.436L178.236 108.192L177.529 107.485ZM123.286 161.729L122.579 161.022C120.608 162.992 117.754 163.543 115.287 162.67L114.954 163.613L114.62 164.555C117.785 165.676 121.457 164.972 123.993 162.436L123.286 161.729ZM114.954 163.613L115.238 162.654C114.159 162.334 113.141 161.748 112.287 160.894L111.58 161.601L110.872 162.308C111.968 163.404 113.279 164.159 114.669 164.571L114.954 163.613ZM111.58 161.601L112.287 160.894L80.2223 128.829L79.5151 129.536L78.808 130.243L110.872 162.308L111.58 161.601ZM79.5151 129.536L80.2222 128.829C77.4886 126.095 77.4886 121.663 80.2222 118.929L79.5151 118.222L78.808 117.515C75.2933 121.03 75.2933 126.728 78.808 130.243L79.5151 129.536ZM79.5151 118.222L80.2224 118.929L83.0505 116.1L82.3433 115.393L81.636 114.686L78.8079 117.515L79.5151 118.222ZM82.3433 115.393L83.0503 116.1C85.784 113.367 90.216 113.367 92.9496 116.1L93.6567 115.393L94.3638 114.686C90.8492 111.171 85.1509 111.171 81.6362 114.686L82.3433 115.393ZM93.6567 115.393L92.9496 116.1L116.789 139.94L117.497 139.233L118.204 138.526L94.3638 114.686L93.6567 115.393ZM117.497 139.233L118.204 139.94L164.094 94.0504L163.387 93.3433L162.68 92.6361L116.789 138.526L117.497 139.233Z" fill="#0D0D0D" mask="url(#path-9-inside-3_642_33579)"/>
<path d="M166.25 163C166.013 163 165.809 163.166 165.761 163.398L163.152 175.941L150.401 178.51C150.168 178.557 150 178.762 150 179C150 179.238 150.168 179.443 150.401 179.49L163.152 182.058L165.761 194.602C165.809 194.834 166.013 195 166.25 195C166.487 195 166.691 194.834 166.739 194.602L169.349 182.058L182.099 179.49C182.332 179.443 182.5 179.238 182.5 179C182.5 178.762 182.332 178.557 182.099 178.51L169.349 175.941L166.739 163.398L166.715 163.314C166.64 163.127 166.457 163 166.25 163Z" fill="white" stroke="#0D0D0D" stroke-linejoin="round"/>
<path d="M54.25 79.5C54.4869 79.5 54.691 79.6665 54.7393 79.8984L57.3477 92.4414L70.0986 95.0098C70.332 95.0568 70.5 95.2619 70.5 95.5C70.5 95.7381 70.332 95.9432 70.0986 95.9902L57.3477 98.5576L54.7393 111.102C54.691 111.334 54.4869 111.5 54.25 111.5C54.0131 111.5 53.809 111.334 53.7607 111.102L51.1514 98.5576L38.4014 95.9902C38.168 95.9432 38 95.7381 38 95.5C38 95.2619 38.168 95.0568 38.4014 95.0098L51.1514 92.4414L53.7607 79.8984L53.7852 79.8145C53.8598 79.6272 54.0427 79.5 54.25 79.5Z" fill="white" stroke="#0D0D0D" stroke-linejoin="round"/>
</svg>
