<svg width="520" height="520" viewBox="0 0 520 520" fill="none" xmlns="http://www.w3.org/2000/svg">
<rect width="520" height="520" fill="white"/>
<path d="M256.981 81.0005L231 65.9994L256.981 51L282.962 65.9994L256.981 81.0005Z" fill="#B5FF00" fill-opacity="0.5"/>
<path d="M282.962 95.9998L256.98 111V80.9995L282.962 66.0002V95.9998Z" fill="#B5FF00" fill-opacity="0.5"/>
<path d="M256.983 111L231.004 95.9996V65.9974L256.985 80.9967V110.997L256.983 111Z" fill="#B5FF00" fill-opacity="0.5"/>
<path d="M256.981 81.0005L231 65.9994L256.981 51L282.962 65.9994L256.981 81.0005Z" stroke="#0D0D0D" stroke-width="0.719649" stroke-linecap="round" stroke-linejoin="round" stroke-dasharray="2.88 2.88"/>
<path d="M282.962 95.9998L256.98 111V80.9995L282.962 66.0002V95.9998Z" stroke="#0D0D0D" stroke-width="0.719649" stroke-linecap="round" stroke-linejoin="round" stroke-dasharray="2.88 2.88"/>
<path d="M256.983 111L231.004 95.9996V65.9974L256.985 80.9967V110.997L256.983 111Z" stroke="#0D0D0D" stroke-width="0.719649" stroke-linecap="round" stroke-linejoin="round" stroke-dasharray="2.88 2.88"/>
<path d="M292.982 102L318.963 86.9994L292.982 72L267.001 86.9994L292.982 102Z" fill="white" fill-opacity="0.75"/>
<path d="M267.001 117L292.982 132V102L267.001 87.0002V117Z" fill="white" fill-opacity="0.75"/>
<path d="M292.98 132L318.959 117V86.9974L292.978 101.997V131.997L292.98 132Z" fill="white" fill-opacity="0.75"/>
<path d="M292.982 102L318.963 86.9994L292.982 72L267.001 86.9994L292.982 102Z" stroke="#0D0D0D" stroke-width="0.719649" stroke-linecap="round" stroke-linejoin="round" stroke-dasharray="2.88 2.88"/>
<path d="M267.001 117L292.982 132V102L267.001 87.0002V117Z" stroke="#0D0D0D" stroke-width="0.719649" stroke-linecap="round" stroke-linejoin="round" stroke-dasharray="2.88 2.88"/>
<path d="M292.98 132L318.959 117V86.9974L292.978 101.997V131.997L292.98 132Z" stroke="#0D0D0D" stroke-width="0.719649" stroke-linecap="round" stroke-linejoin="round" stroke-dasharray="2.88 2.88"/>
<path d="M328.982 123L354.963 107.999L328.982 93L303.001 107.999L328.982 123Z" fill="white" fill-opacity="0.75"/>
<path d="M303.001 138L328.982 153V123L303.001 108V138Z" fill="white" fill-opacity="0.75"/>
<path d="M328.98 153L354.959 138V107.997L328.978 122.997V152.997L328.98 153Z" fill="white" fill-opacity="0.75"/>
<path d="M328.982 123L354.963 107.999L328.982 93L303.001 107.999L328.982 123Z" stroke="#0D0D0D" stroke-width="0.719649" stroke-linecap="round" stroke-linejoin="round" stroke-dasharray="2.88 2.88"/>
<path d="M303.001 138L328.982 153V123L303.001 108V138Z" stroke="#0D0D0D" stroke-width="0.719649" stroke-linecap="round" stroke-linejoin="round" stroke-dasharray="2.88 2.88"/>
<path d="M328.98 153L354.959 138V107.997L328.978 122.997V152.997L328.98 153Z" stroke="#0D0D0D" stroke-width="0.719649" stroke-linecap="round" stroke-linejoin="round" stroke-dasharray="2.88 2.88"/>
<path d="M364.982 144L390.963 128.999L364.982 114L339.001 128.999L364.982 144Z" fill="white" fill-opacity="0.75"/>
<path d="M339.001 159L364.982 174V144L339.001 129V159Z" fill="white" fill-opacity="0.75"/>
<path d="M364.98 174L390.959 159V128.997L364.978 143.997V173.997L364.98 174Z" fill="white" fill-opacity="0.75"/>
<path d="M364.982 144L390.963 128.999L364.982 114L339.001 128.999L364.982 144Z" stroke="#0D0D0D" stroke-width="0.719649" stroke-linecap="round" stroke-linejoin="round" stroke-dasharray="2.88 2.88"/>
<path d="M339.001 159L364.982 174V144L339.001 129V159Z" stroke="#0D0D0D" stroke-width="0.719649" stroke-linecap="round" stroke-linejoin="round" stroke-dasharray="2.88 2.88"/>
<path d="M364.98 174L390.959 159V128.997L364.978 143.997V173.997L364.98 174Z" stroke="#0D0D0D" stroke-width="0.719649" stroke-linecap="round" stroke-linejoin="round" stroke-dasharray="2.88 2.88"/>
<path d="M400.983 345L426.964 329.999L400.983 315L375.001 329.999L400.983 345Z" fill="white" fill-opacity="0.75"/>
<path d="M375.002 360L400.983 375V345L375.002 330V360Z" fill="white" fill-opacity="0.75"/>
<path d="M400.981 375L426.959 360V329.997L400.978 344.997V374.997L400.981 375Z" fill="white" fill-opacity="0.75"/>
<path d="M400.983 345L426.964 329.999L400.983 315L375.001 329.999L400.983 345Z" stroke="#0D0D0D" stroke-width="0.719649" stroke-linecap="round" stroke-linejoin="round" stroke-dasharray="2.88 2.88"/>
<path d="M375.002 360L400.983 375V345L375.002 330V360Z" stroke="#0D0D0D" stroke-width="0.719649" stroke-linecap="round" stroke-linejoin="round" stroke-dasharray="2.88 2.88"/>
<path d="M400.981 375L426.959 360V329.997L400.978 344.997V374.997L400.981 375Z" stroke="#0D0D0D" stroke-width="0.719649" stroke-linecap="round" stroke-linejoin="round" stroke-dasharray="2.88 2.88"/>
<path d="M400.983 300L426.964 284.999L400.983 270L375.001 284.999L400.983 300Z" fill="#B5FF00"/>
<path d="M375.002 315L400.983 330V300L375.002 285V315Z" fill="#B5FF00"/>
<path d="M400.981 330L426.959 315V284.997L400.978 299.997V329.997L400.981 330Z" fill="#B5FF00"/>
<path d="M400.983 300L426.964 284.999L400.983 270L375.001 284.999L400.983 300Z" stroke="black" stroke-linecap="round" stroke-linejoin="round"/>
<path d="M375.002 315L400.983 330V300L375.002 285V315Z" stroke="black" stroke-linecap="round" stroke-linejoin="round"/>
<path d="M400.981 330L426.959 315V284.997L400.978 299.997V329.997L400.981 330Z" stroke="black" stroke-linecap="round" stroke-linejoin="round"/>
<path d="M400.983 255L426.964 239.999L400.983 225L375.001 239.999L400.983 255Z" fill="#B5FF00"/>
<path d="M375.002 270L400.983 285V255L375.002 240V270Z" fill="#B5FF00"/>
<path d="M400.981 285L426.959 270V239.997L400.978 254.997V284.997L400.981 285Z" fill="#B5FF00"/>
<path d="M400.983 255L426.964 239.999L400.983 225L375.001 239.999L400.983 255Z" stroke="black" stroke-linecap="round" stroke-linejoin="round"/>
<path d="M375.002 270L400.983 285V255L375.002 240V270Z" stroke="black" stroke-linecap="round" stroke-linejoin="round"/>
<path d="M400.981 285L426.959 270V239.997L400.978 254.997V284.997L400.981 285Z" stroke="black" stroke-linecap="round" stroke-linejoin="round"/>
<path d="M400.983 210L426.964 194.999L400.983 180L375.001 194.999L400.983 210Z" fill="white" fill-opacity="0.75"/>
<path d="M375.002 225L400.983 240V210L375.002 195V225Z" fill="white" fill-opacity="0.75"/>
<path d="M400.981 240L426.959 225V194.997L400.978 209.997V239.997L400.981 240Z" fill="white" fill-opacity="0.75"/>
<path d="M400.983 210L426.964 194.999L400.983 180L375.001 194.999L400.983 210Z" stroke="#0D0D0D" stroke-width="0.719649" stroke-linecap="round" stroke-linejoin="round" stroke-dasharray="2.88 2.88"/>
<path d="M375.002 225L400.983 240V210L375.002 195V225Z" stroke="#0D0D0D" stroke-width="0.719649" stroke-linecap="round" stroke-linejoin="round" stroke-dasharray="2.88 2.88"/>
<path d="M400.981 240L426.959 225V194.997L400.978 209.997V239.997L400.981 240Z" stroke="#0D0D0D" stroke-width="0.719649" stroke-linecap="round" stroke-linejoin="round" stroke-dasharray="2.88 2.88"/>
<path d="M400.983 165L426.964 149.999L400.983 135L375.001 149.999L400.983 165Z" fill="white" fill-opacity="0.75"/>
<path d="M375.002 180L400.983 195V165L375.002 150V180Z" fill="white" fill-opacity="0.75"/>
<path d="M400.981 195L426.959 180V149.997L400.978 164.997V194.997L400.981 195Z" fill="white" fill-opacity="0.75"/>
<path d="M400.983 165L426.964 149.999L400.983 135L375.001 149.999L400.983 165Z" stroke="#0D0D0D" stroke-width="0.719649" stroke-linecap="round" stroke-linejoin="round" stroke-dasharray="2.88 2.88"/>
<path d="M375.002 180L400.983 195V165L375.002 150V180Z" stroke="#0D0D0D" stroke-width="0.719649" stroke-linecap="round" stroke-linejoin="round" stroke-dasharray="2.88 2.88"/>
<path d="M400.981 195L426.959 180V149.997L400.978 164.997V194.997L400.981 195Z" stroke="#0D0D0D" stroke-width="0.719649" stroke-linecap="round" stroke-linejoin="round" stroke-dasharray="2.88 2.88"/>
<path d="M220.981 102L195 86.9994L220.981 72L246.962 86.9994L220.981 102Z" fill="white" fill-opacity="0.75"/>
<path d="M246.962 117L220.98 132V102L246.962 87.0002V117Z" fill="white" fill-opacity="0.75"/>
<path d="M220.983 132L195.004 117V86.9974L220.985 101.997V131.997L220.983 132Z" fill="white" fill-opacity="0.75"/>
<path d="M220.981 102L195 86.9994L220.981 72L246.962 86.9994L220.981 102Z" stroke="#0D0D0D" stroke-width="0.719649" stroke-linecap="round" stroke-linejoin="round" stroke-dasharray="2.88 2.88"/>
<path d="M246.962 117L220.98 132V102L246.962 87.0002V117Z" stroke="#0D0D0D" stroke-width="0.719649" stroke-linecap="round" stroke-linejoin="round" stroke-dasharray="2.88 2.88"/>
<path d="M220.983 132L195.004 117V86.9974L220.985 101.997V131.997L220.983 132Z" stroke="#0D0D0D" stroke-width="0.719649" stroke-linecap="round" stroke-linejoin="round" stroke-dasharray="2.88 2.88"/>
<path d="M184.981 123L159 107.999L184.981 93L210.962 107.999L184.981 123Z" fill="white" fill-opacity="0.75"/>
<path d="M210.962 138L184.98 153V123L210.962 108V138Z" fill="white" fill-opacity="0.75"/>
<path d="M184.983 153L159.004 138V107.997L184.985 122.997V152.997L184.983 153Z" fill="white" fill-opacity="0.75"/>
<path d="M184.981 123L159 107.999L184.981 93L210.962 107.999L184.981 123Z" stroke="#0D0D0D" stroke-width="0.719649" stroke-linecap="round" stroke-linejoin="round" stroke-dasharray="2.88 2.88"/>
<path d="M210.962 138L184.98 153V123L210.962 108V138Z" stroke="#0D0D0D" stroke-width="0.719649" stroke-linecap="round" stroke-linejoin="round" stroke-dasharray="2.88 2.88"/>
<path d="M184.983 153L159.004 138V107.997L184.985 122.997V152.997L184.983 153Z" stroke="#0D0D0D" stroke-width="0.719649" stroke-linecap="round" stroke-linejoin="round" stroke-dasharray="2.88 2.88"/>
<path d="M148.981 144L123 128.999L148.981 114L174.962 128.999L148.981 144Z" fill="white" fill-opacity="0.75"/>
<path d="M174.962 159L148.98 174V144L174.962 129V159Z" fill="white" fill-opacity="0.75"/>
<path d="M148.983 174L123.004 159V128.997L148.985 143.997V173.997L148.983 174Z" fill="white" fill-opacity="0.75"/>
<path d="M148.981 144L123 128.999L148.981 114L174.962 128.999L148.981 144Z" stroke="#0D0D0D" stroke-width="0.719649" stroke-linecap="round" stroke-linejoin="round" stroke-dasharray="2.88 2.88"/>
<path d="M174.962 159L148.98 174V144L174.962 129V159Z" stroke="#0D0D0D" stroke-width="0.719649" stroke-linecap="round" stroke-linejoin="round" stroke-dasharray="2.88 2.88"/>
<path d="M148.983 174L123.004 159V128.997L148.985 143.997V173.997L148.983 174Z" stroke="#0D0D0D" stroke-width="0.719649" stroke-linecap="round" stroke-linejoin="round" stroke-dasharray="2.88 2.88"/>
<path d="M112.981 345L87 329.999L112.981 315L138.962 329.999L112.981 345Z" fill="#B5FF00"/>
<path d="M138.962 360L112.98 375V345L138.962 330V360Z" fill="#B5FF00"/>
<path d="M112.983 375L87.0042 360V329.997L112.985 344.997V374.997L112.983 375Z" fill="#B5FF00"/>
<path d="M112.981 345L87 329.999L112.981 315L138.962 329.999L112.981 345Z" stroke="black" stroke-linecap="round" stroke-linejoin="round"/>
<path d="M138.962 360L112.98 375V345L138.962 330V360Z" stroke="black" stroke-linecap="round" stroke-linejoin="round"/>
<path d="M112.983 375L87.0042 360V329.997L112.985 344.997V374.997L112.983 375Z" stroke="black" stroke-linecap="round" stroke-linejoin="round"/>
<path d="M112.981 300L87 284.999L112.981 270L138.962 284.999L112.981 300Z" fill="#B5FF00"/>
<path d="M138.962 315L112.98 330V300L138.962 285V315Z" fill="#B5FF00"/>
<path d="M112.983 330L87.0042 315V284.997L112.985 299.997V329.997L112.983 330Z" fill="#B5FF00"/>
<path d="M112.981 300L87 284.999L112.981 270L138.962 284.999L112.981 300Z" stroke="black" stroke-linecap="round" stroke-linejoin="round"/>
<path d="M138.962 315L112.98 330V300L138.962 285V315Z" stroke="black" stroke-linecap="round" stroke-linejoin="round"/>
<path d="M112.983 330L87.0042 315V284.997L112.985 299.997V329.997L112.983 330Z" stroke="black" stroke-linecap="round" stroke-linejoin="round"/>
<path d="M112.981 255L87 239.999L112.981 225L138.962 239.999L112.981 255Z" fill="#B5FF00"/>
<path d="M138.962 270L112.98 285V255L138.962 240V270Z" fill="#B5FF00"/>
<path d="M112.983 285L87.0042 270V239.997L112.985 254.997V284.997L112.983 285Z" fill="#B5FF00"/>
<path d="M112.981 255L87 239.999L112.981 225L138.962 239.999L112.981 255Z" stroke="black" stroke-linecap="round" stroke-linejoin="round"/>
<path d="M138.962 270L112.98 285V255L138.962 240V270Z" stroke="black" stroke-linecap="round" stroke-linejoin="round"/>
<path d="M112.983 285L87.0042 270V239.997L112.985 254.997V284.997L112.983 285Z" stroke="black" stroke-linecap="round" stroke-linejoin="round"/>
<path d="M112.981 210L87 194.999L112.981 180L138.962 194.999L112.981 210Z" fill="#B5FF00"/>
<path d="M138.962 225L112.98 240V210L138.962 195V225Z" fill="#B5FF00"/>
<path d="M112.983 240L87.0042 225V194.997L112.985 209.997V239.997L112.983 240Z" fill="#B5FF00"/>
<path d="M112.981 210L87 194.999L112.981 180L138.962 194.999L112.981 210Z" stroke="black" stroke-linecap="round" stroke-linejoin="round"/>
<path d="M138.962 225L112.98 240V210L138.962 195V225Z" stroke="black" stroke-linecap="round" stroke-linejoin="round"/>
<path d="M112.983 240L87.0042 225V194.997L112.985 209.997V239.997L112.983 240Z" stroke="black" stroke-linecap="round" stroke-linejoin="round"/>
<path d="M112.981 165L87 149.999L112.981 135L138.962 149.999L112.981 165Z" fill="#B5FF00"/>
<path d="M138.962 180L112.98 195V165L138.962 150V180Z" fill="#B5FF00"/>
<path d="M112.983 195L87.0042 180V149.997L112.985 164.997V194.997L112.983 195Z" fill="#B5FF00"/>
<path d="M112.981 165L87 149.999L112.981 135L138.962 149.999L112.981 165Z" stroke="black" stroke-linecap="round" stroke-linejoin="round"/>
<path d="M138.962 180L112.98 195V165L138.962 150V180Z" stroke="black" stroke-linecap="round" stroke-linejoin="round"/>
<path d="M112.983 195L87.0042 180V149.997L112.985 164.997V194.997L112.983 195Z" stroke="black" stroke-linecap="round" stroke-linejoin="round"/>
<path d="M256.981 123L231 107.999L256.981 93L282.962 107.999L256.981 123Z" fill="white" fill-opacity="0.75"/>
<path d="M282.962 138L256.98 153V123L282.962 108V138Z" fill="white" fill-opacity="0.75"/>
<path d="M256.983 153L231.004 138V107.997L256.985 122.997V152.997L256.983 153Z" fill="white" fill-opacity="0.75"/>
<path d="M256.981 123L231 107.999L256.981 93L282.962 107.999L256.981 123Z" stroke="#0D0D0D" stroke-width="0.719649" stroke-linecap="round" stroke-linejoin="round" stroke-dasharray="2.88 2.88"/>
<path d="M282.962 138L256.98 153V123L282.962 108V138Z" stroke="#0D0D0D" stroke-width="0.719649" stroke-linecap="round" stroke-linejoin="round" stroke-dasharray="2.88 2.88"/>
<path d="M256.983 153L231.004 138V107.997L256.985 122.997V152.997L256.983 153Z" stroke="#0D0D0D" stroke-width="0.719649" stroke-linecap="round" stroke-linejoin="round" stroke-dasharray="2.88 2.88"/>
<path d="M292.981 144L267 128.999L292.981 114L318.962 128.999L292.981 144Z" fill="white" fill-opacity="0.75"/>
<path d="M318.962 159L292.98 174V144L318.962 129V159Z" fill="white" fill-opacity="0.75"/>
<path d="M292.983 174L267.004 159V128.997L292.985 143.997V173.997L292.983 174Z" fill="white" fill-opacity="0.75"/>
<path d="M292.981 144L267 128.999L292.981 114L318.962 128.999L292.981 144Z" stroke="#0D0D0D" stroke-width="0.719649" stroke-linecap="round" stroke-linejoin="round" stroke-dasharray="2.88 2.88"/>
<path d="M318.962 159L292.98 174V144L318.962 129V159Z" stroke="#0D0D0D" stroke-width="0.719649" stroke-linecap="round" stroke-linejoin="round" stroke-dasharray="2.88 2.88"/>
<path d="M292.983 174L267.004 159V128.997L292.985 143.997V173.997L292.983 174Z" stroke="#0D0D0D" stroke-width="0.719649" stroke-linecap="round" stroke-linejoin="round" stroke-dasharray="2.88 2.88"/>
<path d="M328.981 165L303 149.999L328.981 135L354.962 149.999L328.981 165Z" fill="white" fill-opacity="0.75"/>
<path d="M354.962 180L328.98 195V165L354.962 150V180Z" fill="white" fill-opacity="0.75"/>
<path d="M328.983 195L303.004 180V149.997L328.985 164.997V194.997L328.983 195Z" fill="white" fill-opacity="0.75"/>
<path d="M328.981 165L303 149.999L328.981 135L354.962 149.999L328.981 165Z" stroke="#0D0D0D" stroke-width="0.719649" stroke-linecap="round" stroke-linejoin="round" stroke-dasharray="2.88 2.88"/>
<path d="M354.962 180L328.98 195V165L354.962 150V180Z" stroke="#0D0D0D" stroke-width="0.719649" stroke-linecap="round" stroke-linejoin="round" stroke-dasharray="2.88 2.88"/>
<path d="M328.983 195L303.004 180V149.997L328.985 164.997V194.997L328.983 195Z" stroke="#0D0D0D" stroke-width="0.719649" stroke-linecap="round" stroke-linejoin="round" stroke-dasharray="2.88 2.88"/>
<path d="M220.981 144L195 128.999L220.981 114L246.962 128.999L220.981 144Z" fill="white" fill-opacity="0.75"/>
<path d="M246.962 159L220.98 174V144L246.962 129V159Z" fill="white" fill-opacity="0.75"/>
<path d="M220.983 174L195.004 159V128.997L220.985 143.997V173.997L220.983 174Z" fill="white" fill-opacity="0.75"/>
<path d="M220.981 144L195 128.999L220.981 114L246.962 128.999L220.981 144Z" stroke="#0D0D0D" stroke-width="0.719649" stroke-linecap="round" stroke-linejoin="round" stroke-dasharray="2.88 2.88"/>
<path d="M246.962 159L220.98 174V144L246.962 129V159Z" stroke="#0D0D0D" stroke-width="0.719649" stroke-linecap="round" stroke-linejoin="round" stroke-dasharray="2.88 2.88"/>
<path d="M220.983 174L195.004 159V128.997L220.985 143.997V173.997L220.983 174Z" stroke="#0D0D0D" stroke-width="0.719649" stroke-linecap="round" stroke-linejoin="round" stroke-dasharray="2.88 2.88"/>
<path d="M256.981 165L231 149.999L256.981 135L282.962 149.999L256.981 165Z" fill="white" fill-opacity="0.75"/>
<path d="M282.962 180L256.98 195V165L282.962 150V180Z" fill="white" fill-opacity="0.75"/>
<path d="M256.983 195L231.004 180V149.997L256.985 164.997V194.997L256.983 195Z" fill="white" fill-opacity="0.75"/>
<path d="M256.981 165L231 149.999L256.981 135L282.962 149.999L256.981 165Z" stroke="#0D0D0D" stroke-width="0.719649" stroke-linecap="round" stroke-linejoin="round" stroke-dasharray="2.88 2.88"/>
<path d="M282.962 180L256.98 195V165L282.962 150V180Z" stroke="#0D0D0D" stroke-width="0.719649" stroke-linecap="round" stroke-linejoin="round" stroke-dasharray="2.88 2.88"/>
<path d="M256.983 195L231.004 180V149.997L256.985 164.997V194.997L256.983 195Z" stroke="#0D0D0D" stroke-width="0.719649" stroke-linecap="round" stroke-linejoin="round" stroke-dasharray="2.88 2.88"/>
<path d="M292.981 186L267 170.999L292.981 156L318.962 170.999L292.981 186Z" fill="white" fill-opacity="0.75"/>
<path d="M318.962 201L292.98 216V186L318.962 171V201Z" fill="white" fill-opacity="0.75"/>
<path d="M292.983 216L267.004 201V170.997L292.985 185.997V215.997L292.983 216Z" fill="white" fill-opacity="0.75"/>
<path d="M292.981 186L267 170.999L292.981 156L318.962 170.999L292.981 186Z" stroke="#0D0D0D" stroke-width="0.719649" stroke-linecap="round" stroke-linejoin="round" stroke-dasharray="2.88 2.88"/>
<path d="M318.962 201L292.98 216V186L318.962 171V201Z" stroke="#0D0D0D" stroke-width="0.719649" stroke-linecap="round" stroke-linejoin="round" stroke-dasharray="2.88 2.88"/>
<path d="M292.983 216L267.004 201V170.997L292.985 185.997V215.997L292.983 216Z" stroke="#0D0D0D" stroke-width="0.719649" stroke-linecap="round" stroke-linejoin="round" stroke-dasharray="2.88 2.88"/>
<path d="M184.981 165L159 149.999L184.981 135L210.962 149.999L184.981 165Z" fill="white" fill-opacity="0.75"/>
<path d="M210.962 180L184.98 195V165L210.962 150V180Z" fill="white" fill-opacity="0.75"/>
<path d="M184.983 195L159.004 180V149.997L184.985 164.997V194.997L184.983 195Z" fill="white" fill-opacity="0.75"/>
<path d="M184.981 165L159 149.999L184.981 135L210.962 149.999L184.981 165Z" stroke="#0D0D0D" stroke-width="0.719649" stroke-linecap="round" stroke-linejoin="round" stroke-dasharray="2.88 2.88"/>
<path d="M210.962 180L184.98 195V165L210.962 150V180Z" stroke="#0D0D0D" stroke-width="0.719649" stroke-linecap="round" stroke-linejoin="round" stroke-dasharray="2.88 2.88"/>
<path d="M184.983 195L159.004 180V149.997L184.985 164.997V194.997L184.983 195Z" stroke="#0D0D0D" stroke-width="0.719649" stroke-linecap="round" stroke-linejoin="round" stroke-dasharray="2.88 2.88"/>
<path d="M220.981 186L195 170.999L220.981 156L246.962 170.999L220.981 186Z" fill="white" fill-opacity="0.75"/>
<path d="M246.962 201L220.98 216V186L246.962 171V201Z" fill="white" fill-opacity="0.75"/>
<path d="M220.983 216L195.004 201V170.997L220.985 185.997V215.997L220.983 216Z" fill="white" fill-opacity="0.75"/>
<path d="M220.981 186L195 170.999L220.981 156L246.962 170.999L220.981 186Z" stroke="#0D0D0D" stroke-width="0.719649" stroke-linecap="round" stroke-linejoin="round" stroke-dasharray="2.88 2.88"/>
<path d="M246.962 201L220.98 216V186L246.962 171V201Z" stroke="#0D0D0D" stroke-width="0.719649" stroke-linecap="round" stroke-linejoin="round" stroke-dasharray="2.88 2.88"/>
<path d="M220.983 216L195.004 201V170.997L220.985 185.997V215.997L220.983 216Z" stroke="#0D0D0D" stroke-width="0.719649" stroke-linecap="round" stroke-linejoin="round" stroke-dasharray="2.88 2.88"/>
<path d="M256.981 207L231 191.999L256.981 177L282.962 191.999L256.981 207Z" fill="white" fill-opacity="0.75"/>
<path d="M282.962 222L256.98 237V207L282.962 192V222Z" fill="white" fill-opacity="0.75"/>
<path d="M256.983 237L231.004 222V191.997L256.985 206.997V236.997L256.983 237Z" fill="white" fill-opacity="0.75"/>
<path d="M256.981 207L231 191.999L256.981 177L282.962 191.999L256.981 207Z" stroke="#0D0D0D" stroke-width="0.719649" stroke-linecap="round" stroke-linejoin="round" stroke-dasharray="2.88 2.88"/>
<path d="M282.962 222L256.98 237V207L282.962 192V222Z" stroke="#0D0D0D" stroke-width="0.719649" stroke-linecap="round" stroke-linejoin="round" stroke-dasharray="2.88 2.88"/>
<path d="M256.983 237L231.004 222V191.997L256.985 206.997V236.997L256.983 237Z" stroke="#0D0D0D" stroke-width="0.719649" stroke-linecap="round" stroke-linejoin="round" stroke-dasharray="2.88 2.88"/>
<path d="M148.981 366L123 350.999L148.981 336L174.962 350.999L148.981 366Z" fill="#B5FF00"/>
<path d="M174.962 381L148.98 396V366L174.962 351V381Z" fill="#B5FF00"/>
<path d="M148.983 396L123.004 381V350.997L148.985 365.997V395.997L148.983 396Z" fill="#B5FF00"/>
<path d="M148.981 366L123 350.999L148.981 336L174.962 350.999L148.981 366Z" stroke="black" stroke-linecap="round" stroke-linejoin="round"/>
<path d="M174.962 381L148.98 396V366L174.962 351V381Z" stroke="black" stroke-linecap="round" stroke-linejoin="round"/>
<path d="M148.983 396L123.004 381V350.997L148.985 365.997V395.997L148.983 396Z" stroke="black" stroke-linecap="round" stroke-linejoin="round"/>
<path d="M148.981 321L123 305.999L148.981 291L174.962 305.999L148.981 321Z" fill="white" fill-opacity="0.75"/>
<path d="M174.962 336L148.98 351V321L174.962 306V336Z" fill="white" fill-opacity="0.75"/>
<path d="M148.983 351L123.004 336V305.997L148.985 320.997V350.997L148.983 351Z" fill="white" fill-opacity="0.75"/>
<path d="M148.981 321L123 305.999L148.981 291L174.962 305.999L148.981 321Z" stroke="#0D0D0D" stroke-width="0.719649" stroke-linecap="round" stroke-linejoin="round" stroke-dasharray="2.88 2.88"/>
<path d="M174.962 336L148.98 351V321L174.962 306V336Z" stroke="#0D0D0D" stroke-width="0.719649" stroke-linecap="round" stroke-linejoin="round" stroke-dasharray="2.88 2.88"/>
<path d="M148.983 351L123.004 336V305.997L148.985 320.997V350.997L148.983 351Z" stroke="#0D0D0D" stroke-width="0.719649" stroke-linecap="round" stroke-linejoin="round" stroke-dasharray="2.88 2.88"/>
<path d="M148.981 276L123 260.999L148.981 246L174.962 260.999L148.981 276Z" fill="white" fill-opacity="0.75"/>
<path d="M174.962 291L148.98 306V276L174.962 261V291Z" fill="white" fill-opacity="0.75"/>
<path d="M148.983 306L123.004 291V260.997L148.985 275.997V305.997L148.983 306Z" fill="white" fill-opacity="0.75"/>
<path d="M148.981 276L123 260.999L148.981 246L174.962 260.999L148.981 276Z" stroke="#0D0D0D" stroke-width="0.719649" stroke-linecap="round" stroke-linejoin="round" stroke-dasharray="2.88 2.88"/>
<path d="M174.962 291L148.98 306V276L174.962 261V291Z" stroke="#0D0D0D" stroke-width="0.719649" stroke-linecap="round" stroke-linejoin="round" stroke-dasharray="2.88 2.88"/>
<path d="M148.983 306L123.004 291V260.997L148.985 275.997V305.997L148.983 306Z" stroke="#0D0D0D" stroke-width="0.719649" stroke-linecap="round" stroke-linejoin="round" stroke-dasharray="2.88 2.88"/>
<path d="M148.981 231L123 215.999L148.981 201L174.962 215.999L148.981 231Z" fill="white" fill-opacity="0.75"/>
<path d="M174.962 246L148.98 261V231L174.962 216V246Z" fill="white" fill-opacity="0.75"/>
<path d="M148.983 261L123.004 246V215.997L148.985 230.997V260.997L148.983 261Z" fill="white" fill-opacity="0.75"/>
<path d="M148.981 231L123 215.999L148.981 201L174.962 215.999L148.981 231Z" stroke="#0D0D0D" stroke-width="0.719649" stroke-linecap="round" stroke-linejoin="round" stroke-dasharray="2.88 2.88"/>
<path d="M174.962 246L148.98 261V231L174.962 216V246Z" stroke="#0D0D0D" stroke-width="0.719649" stroke-linecap="round" stroke-linejoin="round" stroke-dasharray="2.88 2.88"/>
<path d="M148.983 261L123.004 246V215.997L148.985 230.997V260.997L148.983 261Z" stroke="#0D0D0D" stroke-width="0.719649" stroke-linecap="round" stroke-linejoin="round" stroke-dasharray="2.88 2.88"/>
<path d="M148.981 186L123 170.999L148.981 156L174.962 170.999L148.981 186Z" fill="#B5FF00"/>
<path d="M174.962 201L148.98 216V186L174.962 171V201Z" fill="#B5FF00"/>
<path d="M148.983 216L123.004 201V170.997L148.985 185.997V215.997L148.983 216Z" fill="#B5FF00"/>
<path d="M148.981 186L123 170.999L148.981 156L174.962 170.999L148.981 186Z" stroke="black" stroke-linecap="round" stroke-linejoin="round"/>
<path d="M174.962 201L148.98 216V186L174.962 171V201Z" stroke="black" stroke-linecap="round" stroke-linejoin="round"/>
<path d="M148.983 216L123.004 201V170.997L148.985 185.997V215.997L148.983 216Z" stroke="black" stroke-linecap="round" stroke-linejoin="round"/>
<path d="M184.981 387L159 371.999L184.981 357L210.962 371.999L184.981 387Z" fill="#B5FF00"/>
<path d="M210.962 402L184.98 417V387L210.962 372V402Z" fill="#B5FF00"/>
<path d="M184.983 417L159.004 402V371.997L184.985 386.997V416.997L184.983 417Z" fill="#B5FF00"/>
<path d="M184.981 387L159 371.999L184.981 357L210.962 371.999L184.981 387Z" stroke="black" stroke-linecap="round" stroke-linejoin="round"/>
<path d="M210.962 402L184.98 417V387L210.962 372V402Z" stroke="black" stroke-linecap="round" stroke-linejoin="round"/>
<path d="M184.983 417L159.004 402V371.997L184.985 386.997V416.997L184.983 417Z" stroke="black" stroke-linecap="round" stroke-linejoin="round"/>
<path d="M184.981 342L159 326.999L184.981 312L210.962 326.999L184.981 342Z" fill="white" fill-opacity="0.75"/>
<path d="M210.962 357L184.98 372V342L210.962 327V357Z" fill="white" fill-opacity="0.75"/>
<path d="M184.983 372L159.004 357V326.997L184.985 341.997V371.997L184.983 372Z" fill="white" fill-opacity="0.75"/>
<path d="M184.981 342L159 326.999L184.981 312L210.962 326.999L184.981 342Z" stroke="#0D0D0D" stroke-width="0.719649" stroke-linecap="round" stroke-linejoin="round" stroke-dasharray="2.88 2.88"/>
<path d="M210.962 357L184.98 372V342L210.962 327V357Z" stroke="#0D0D0D" stroke-width="0.719649" stroke-linecap="round" stroke-linejoin="round" stroke-dasharray="2.88 2.88"/>
<path d="M184.983 372L159.004 357V326.997L184.985 341.997V371.997L184.983 372Z" stroke="#0D0D0D" stroke-width="0.719649" stroke-linecap="round" stroke-linejoin="round" stroke-dasharray="2.88 2.88"/>
<path d="M184.981 297L159 281.999L184.981 267L210.962 281.999L184.981 297Z" fill="white" fill-opacity="0.75"/>
<path d="M210.962 312L184.98 327V297L210.962 282V312Z" fill="white" fill-opacity="0.75"/>
<path d="M184.983 327L159.004 312V281.997L184.985 296.997V326.997L184.983 327Z" fill="white" fill-opacity="0.75"/>
<path d="M184.981 297L159 281.999L184.981 267L210.962 281.999L184.981 297Z" stroke="#0D0D0D" stroke-width="0.719649" stroke-linecap="round" stroke-linejoin="round" stroke-dasharray="2.88 2.88"/>
<path d="M210.962 312L184.98 327V297L210.962 282V312Z" stroke="#0D0D0D" stroke-width="0.719649" stroke-linecap="round" stroke-linejoin="round" stroke-dasharray="2.88 2.88"/>
<path d="M184.983 327L159.004 312V281.997L184.985 296.997V326.997L184.983 327Z" stroke="#0D0D0D" stroke-width="0.719649" stroke-linecap="round" stroke-linejoin="round" stroke-dasharray="2.88 2.88"/>
<path d="M184.981 252L159 236.999L184.981 222L210.962 236.999L184.981 252Z" fill="white" fill-opacity="0.75"/>
<path d="M210.962 267L184.98 282V252L210.962 237V267Z" fill="white" fill-opacity="0.75"/>
<path d="M184.983 282L159.004 267V236.997L184.985 251.997V281.997L184.983 282Z" fill="white" fill-opacity="0.75"/>
<path d="M184.981 252L159 236.999L184.981 222L210.962 236.999L184.981 252Z" stroke="#0D0D0D" stroke-width="0.719649" stroke-linecap="round" stroke-linejoin="round" stroke-dasharray="2.88 2.88"/>
<path d="M210.962 267L184.98 282V252L210.962 237V267Z" stroke="#0D0D0D" stroke-width="0.719649" stroke-linecap="round" stroke-linejoin="round" stroke-dasharray="2.88 2.88"/>
<path d="M184.983 282L159.004 267V236.997L184.985 251.997V281.997L184.983 282Z" stroke="#0D0D0D" stroke-width="0.719649" stroke-linecap="round" stroke-linejoin="round" stroke-dasharray="2.88 2.88"/>
<path d="M184.981 207L159 191.999L184.981 177L210.962 191.999L184.981 207Z" fill="#B5FF00"/>
<path d="M210.962 222L184.98 237V207L210.962 192V222Z" fill="#B5FF00"/>
<path d="M184.983 237L159.004 222V191.997L184.985 206.997V236.997L184.983 237Z" fill="#B5FF00"/>
<path d="M184.981 207L159 191.999L184.981 177L210.962 191.999L184.981 207Z" stroke="black" stroke-linecap="round" stroke-linejoin="round"/>
<path d="M210.962 222L184.98 237V207L210.962 192V222Z" stroke="black" stroke-linecap="round" stroke-linejoin="round"/>
<path d="M184.983 237L159.004 222V191.997L184.985 206.997V236.997L184.983 237Z" stroke="black" stroke-linecap="round" stroke-linejoin="round"/>
<path d="M220.981 408L195 392.999L220.981 378L246.962 392.999L220.981 408Z" fill="#B5FF00"/>
<path d="M246.962 423L220.98 438V408L246.962 393V423Z" fill="#B5FF00"/>
<path d="M220.983 438L195.004 423V392.997L220.985 407.997V437.997L220.983 438Z" fill="#B5FF00"/>
<path d="M220.981 408L195 392.999L220.981 378L246.962 392.999L220.981 408Z" stroke="black" stroke-linecap="round" stroke-linejoin="round"/>
<path d="M246.962 423L220.98 438V408L246.962 393V423Z" stroke="black" stroke-linecap="round" stroke-linejoin="round"/>
<path d="M220.983 438L195.004 423V392.997L220.985 407.997V437.997L220.983 438Z" stroke="black" stroke-linecap="round" stroke-linejoin="round"/>
<path d="M220.981 363L195 347.999L220.981 333L246.962 347.999L220.981 363Z" fill="white" fill-opacity="0.75"/>
<path d="M246.962 378L220.98 393V363L246.962 348V378Z" fill="white" fill-opacity="0.75"/>
<path d="M220.983 393L195.004 378V347.997L220.985 362.997V392.997L220.983 393Z" fill="white" fill-opacity="0.75"/>
<path d="M220.981 363L195 347.999L220.981 333L246.962 347.999L220.981 363Z" stroke="#0D0D0D" stroke-width="0.719649" stroke-linecap="round" stroke-linejoin="round" stroke-dasharray="2.88 2.88"/>
<path d="M246.962 378L220.98 393V363L246.962 348V378Z" stroke="#0D0D0D" stroke-width="0.719649" stroke-linecap="round" stroke-linejoin="round" stroke-dasharray="2.88 2.88"/>
<path d="M220.983 393L195.004 378V347.997L220.985 362.997V392.997L220.983 393Z" stroke="#0D0D0D" stroke-width="0.719649" stroke-linecap="round" stroke-linejoin="round" stroke-dasharray="2.88 2.88"/>
<path d="M220.981 318L195 302.999L220.981 288L246.962 302.999L220.981 318Z" fill="white" fill-opacity="0.75"/>
<path d="M246.962 333L220.98 348V318L246.962 303V333Z" fill="white" fill-opacity="0.75"/>
<path d="M220.983 348L195.004 333V302.997L220.985 317.997V347.997L220.983 348Z" fill="white" fill-opacity="0.75"/>
<path d="M220.981 318L195 302.999L220.981 288L246.962 302.999L220.981 318Z" stroke="#0D0D0D" stroke-width="0.719649" stroke-linecap="round" stroke-linejoin="round" stroke-dasharray="2.88 2.88"/>
<path d="M246.962 333L220.98 348V318L246.962 303V333Z" stroke="#0D0D0D" stroke-width="0.719649" stroke-linecap="round" stroke-linejoin="round" stroke-dasharray="2.88 2.88"/>
<path d="M220.983 348L195.004 333V302.997L220.985 317.997V347.997L220.983 348Z" stroke="#0D0D0D" stroke-width="0.719649" stroke-linecap="round" stroke-linejoin="round" stroke-dasharray="2.88 2.88"/>
<path d="M220.981 273L195 257.999L220.981 243L246.962 257.999L220.981 273Z" fill="white" fill-opacity="0.75"/>
<path d="M246.962 288L220.98 303V273L246.962 258V288Z" fill="white" fill-opacity="0.75"/>
<path d="M220.983 303L195.004 288V257.997L220.985 272.997V302.997L220.983 303Z" fill="white" fill-opacity="0.75"/>
<path d="M220.981 273L195 257.999L220.981 243L246.962 257.999L220.981 273Z" stroke="#0D0D0D" stroke-width="0.719649" stroke-linecap="round" stroke-linejoin="round" stroke-dasharray="2.88 2.88"/>
<path d="M246.962 288L220.98 303V273L246.962 258V288Z" stroke="#0D0D0D" stroke-width="0.719649" stroke-linecap="round" stroke-linejoin="round" stroke-dasharray="2.88 2.88"/>
<path d="M220.983 303L195.004 288V257.997L220.985 272.997V302.997L220.983 303Z" stroke="#0D0D0D" stroke-width="0.719649" stroke-linecap="round" stroke-linejoin="round" stroke-dasharray="2.88 2.88"/>
<path d="M220.981 228L195 212.999L220.981 198L246.962 212.999L220.981 228Z" fill="#B5FF00"/>
<path d="M246.962 243L220.98 258V228L246.962 213V243Z" fill="#B5FF00"/>
<path d="M220.983 258L195.004 243V212.997L220.985 227.997V257.997L220.983 258Z" fill="#B5FF00"/>
<path d="M220.981 228L195 212.999L220.981 198L246.962 212.999L220.981 228Z" stroke="black" stroke-linecap="round" stroke-linejoin="round"/>
<path d="M246.962 243L220.98 258V228L246.962 213V243Z" stroke="black" stroke-linecap="round" stroke-linejoin="round"/>
<path d="M220.983 258L195.004 243V212.997L220.985 227.997V257.997L220.983 258Z" stroke="black" stroke-linecap="round" stroke-linejoin="round"/>
<path d="M364.981 366L339 350.999L364.981 336L390.962 350.999L364.981 366Z" fill="#B5FF00"/>
<path d="M390.962 381L364.98 396V366L390.962 351V381Z" fill="#B5FF00"/>
<path d="M364.983 396L339.004 381V350.997L364.985 365.997V395.997L364.983 396Z" fill="#B5FF00"/>
<path d="M364.981 366L339 350.999L364.981 336L390.962 350.999L364.981 366Z" stroke="black" stroke-linecap="round" stroke-linejoin="round"/>
<path d="M390.962 381L364.98 396V366L390.962 351V381Z" stroke="black" stroke-linecap="round" stroke-linejoin="round"/>
<path d="M364.983 396L339.004 381V350.997L364.985 365.997V395.997L364.983 396Z" stroke="black" stroke-linecap="round" stroke-linejoin="round"/>
<path d="M364.981 321L339 305.999L364.981 291L390.962 305.999L364.981 321Z" fill="white" fill-opacity="0.75"/>
<path d="M390.962 336L364.98 351V321L390.962 306V336Z" fill="white" fill-opacity="0.75"/>
<path d="M364.983 351L339.004 336V305.997L364.985 320.997V350.997L364.983 351Z" fill="white" fill-opacity="0.75"/>
<path d="M364.981 321L339 305.999L364.981 291L390.962 305.999L364.981 321Z" stroke="#0D0D0D" stroke-width="0.719649" stroke-linecap="round" stroke-linejoin="round" stroke-dasharray="2.88 2.88"/>
<path d="M390.962 336L364.98 351V321L390.962 306V336Z" stroke="#0D0D0D" stroke-width="0.719649" stroke-linecap="round" stroke-linejoin="round" stroke-dasharray="2.88 2.88"/>
<path d="M364.983 351L339.004 336V305.997L364.985 320.997V350.997L364.983 351Z" stroke="#0D0D0D" stroke-width="0.719649" stroke-linecap="round" stroke-linejoin="round" stroke-dasharray="2.88 2.88"/>
<path d="M364.981 276L339 260.999L364.981 246L390.962 260.999L364.981 276Z" fill="#B5FF00"/>
<path d="M390.962 291L364.98 306V276L390.962 261V291Z" fill="#B5FF00"/>
<path d="M364.983 306L339.004 291V260.997L364.985 275.997V305.997L364.983 306Z" fill="#B5FF00"/>
<path d="M364.981 276L339 260.999L364.981 246L390.962 260.999L364.981 276Z" stroke="black" stroke-linecap="round" stroke-linejoin="round"/>
<path d="M390.962 291L364.98 306V276L390.962 261V291Z" stroke="black" stroke-linecap="round" stroke-linejoin="round"/>
<path d="M364.983 306L339.004 291V260.997L364.985 275.997V305.997L364.983 306Z" stroke="black" stroke-linecap="round" stroke-linejoin="round"/>
<path d="M364.981 231L339 215.999L364.981 201L390.962 215.999L364.981 231Z" fill="white" fill-opacity="0.75"/>
<path d="M390.962 246L364.98 261V231L390.962 216V246Z" fill="white" fill-opacity="0.75"/>
<path d="M364.983 261L339.004 246V215.997L364.985 230.997V260.997L364.983 261Z" fill="white" fill-opacity="0.75"/>
<path d="M364.981 231L339 215.999L364.981 201L390.962 215.999L364.981 231Z" stroke="#0D0D0D" stroke-width="0.719649" stroke-linecap="round" stroke-linejoin="round" stroke-dasharray="2.88 2.88"/>
<path d="M390.962 246L364.98 261V231L390.962 216V246Z" stroke="#0D0D0D" stroke-width="0.719649" stroke-linecap="round" stroke-linejoin="round" stroke-dasharray="2.88 2.88"/>
<path d="M364.983 261L339.004 246V215.997L364.985 230.997V260.997L364.983 261Z" stroke="#0D0D0D" stroke-width="0.719649" stroke-linecap="round" stroke-linejoin="round" stroke-dasharray="2.88 2.88"/>
<path d="M364.981 186L339 170.999L364.981 156L390.962 170.999L364.981 186Z" fill="#B5FF00"/>
<path d="M390.962 201L364.98 216V186L390.962 171V201Z" fill="#B5FF00"/>
<path d="M364.983 216L339.004 201V170.997L364.985 185.997V215.997L364.983 216Z" fill="#B5FF00"/>
<path d="M364.981 186L339 170.999L364.981 156L390.962 170.999L364.981 186Z" stroke="black" stroke-linecap="round" stroke-linejoin="round"/>
<path d="M390.962 201L364.98 216V186L390.962 171V201Z" stroke="black" stroke-linecap="round" stroke-linejoin="round"/>
<path d="M364.983 216L339.004 201V170.997L364.985 185.997V215.997L364.983 216Z" stroke="black" stroke-linecap="round" stroke-linejoin="round"/>
<path d="M328.981 387L303 371.999L328.981 357L354.962 371.999L328.981 387Z" fill="#B5FF00"/>
<path d="M354.962 402L328.98 417V387L354.962 372V402Z" fill="#B5FF00"/>
<path d="M328.983 417L303.004 402V371.997L328.985 386.997V416.997L328.983 417Z" fill="#B5FF00"/>
<path d="M328.981 387L303 371.999L328.981 357L354.962 371.999L328.981 387Z" stroke="black" stroke-linecap="round" stroke-linejoin="round"/>
<path d="M354.962 402L328.98 417V387L354.962 372V402Z" stroke="black" stroke-linecap="round" stroke-linejoin="round"/>
<path d="M328.983 417L303.004 402V371.997L328.985 386.997V416.997L328.983 417Z" stroke="black" stroke-linecap="round" stroke-linejoin="round"/>
<path d="M328.981 342L303 326.999L328.981 312L354.962 326.999L328.981 342Z" fill="white" fill-opacity="0.75"/>
<path d="M354.962 357L328.98 372V342L354.962 327V357Z" fill="white" fill-opacity="0.75"/>
<path d="M328.983 372L303.004 357V326.997L328.985 341.997V371.997L328.983 372Z" fill="white" fill-opacity="0.75"/>
<path d="M328.981 342L303 326.999L328.981 312L354.962 326.999L328.981 342Z" stroke="#0D0D0D" stroke-width="0.719649" stroke-linecap="round" stroke-linejoin="round" stroke-dasharray="2.88 2.88"/>
<path d="M354.962 357L328.98 372V342L354.962 327V357Z" stroke="#0D0D0D" stroke-width="0.719649" stroke-linecap="round" stroke-linejoin="round" stroke-dasharray="2.88 2.88"/>
<path d="M328.983 372L303.004 357V326.997L328.985 341.997V371.997L328.983 372Z" stroke="#0D0D0D" stroke-width="0.719649" stroke-linecap="round" stroke-linejoin="round" stroke-dasharray="2.88 2.88"/>
<path d="M328.981 297L303 281.999L328.981 267L354.962 281.999L328.981 297Z" fill="#B5FF00"/>
<path d="M354.962 312L328.98 327V297L354.962 282V312Z" fill="#B5FF00"/>
<path d="M328.983 327L303.004 312V281.997L328.985 296.997V326.997L328.983 327Z" fill="#B5FF00"/>
<path d="M328.981 297L303 281.999L328.981 267L354.962 281.999L328.981 297Z" stroke="black" stroke-linecap="round" stroke-linejoin="round"/>
<path d="M354.962 312L328.98 327V297L354.962 282V312Z" stroke="black" stroke-linecap="round" stroke-linejoin="round"/>
<path d="M328.983 327L303.004 312V281.997L328.985 296.997V326.997L328.983 327Z" stroke="black" stroke-linecap="round" stroke-linejoin="round"/>
<path d="M328.981 252L303 236.999L328.981 222L354.962 236.999L328.981 252Z" fill="white" fill-opacity="0.75"/>
<path d="M354.962 267L328.98 282V252L354.962 237V267Z" fill="white" fill-opacity="0.75"/>
<path d="M328.983 282L303.004 267V236.997L328.985 251.997V281.997L328.983 282Z" fill="white" fill-opacity="0.75"/>
<path d="M328.981 252L303 236.999L328.981 222L354.962 236.999L328.981 252Z" stroke="#0D0D0D" stroke-width="0.719649" stroke-linecap="round" stroke-linejoin="round" stroke-dasharray="2.88 2.88"/>
<path d="M354.962 267L328.98 282V252L354.962 237V267Z" stroke="#0D0D0D" stroke-width="0.719649" stroke-linecap="round" stroke-linejoin="round" stroke-dasharray="2.88 2.88"/>
<path d="M328.983 282L303.004 267V236.997L328.985 251.997V281.997L328.983 282Z" stroke="#0D0D0D" stroke-width="0.719649" stroke-linecap="round" stroke-linejoin="round" stroke-dasharray="2.88 2.88"/>
<path d="M328.981 207L303 191.999L328.981 177L354.962 191.999L328.981 207Z" fill="#B5FF00"/>
<path d="M354.962 222L328.98 237V207L354.962 192V222Z" fill="#B5FF00"/>
<path d="M328.983 237L303.004 222V191.997L328.985 206.997V236.997L328.983 237Z" fill="#B5FF00"/>
<path d="M328.981 207L303 191.999L328.981 177L354.962 191.999L328.981 207Z" stroke="black" stroke-linecap="round" stroke-linejoin="round"/>
<path d="M354.962 222L328.98 237V207L354.962 192V222Z" stroke="black" stroke-linecap="round" stroke-linejoin="round"/>
<path d="M328.983 237L303.004 222V191.997L328.985 206.997V236.997L328.983 237Z" stroke="black" stroke-linecap="round" stroke-linejoin="round"/>
<path d="M292.981 408L267 392.999L292.981 378L318.962 392.999L292.981 408Z" fill="#B5FF00"/>
<path d="M318.962 423L292.98 438V408L318.962 393V423Z" fill="#B5FF00"/>
<path d="M292.983 438L267.004 423V392.997L292.985 407.997V437.997L292.983 438Z" fill="#B5FF00"/>
<path d="M292.981 408L267 392.999L292.981 378L318.962 392.999L292.981 408Z" stroke="black" stroke-linecap="round" stroke-linejoin="round"/>
<path d="M318.962 423L292.98 438V408L318.962 393V423Z" stroke="black" stroke-linecap="round" stroke-linejoin="round"/>
<path d="M292.983 438L267.004 423V392.997L292.985 407.997V437.997L292.983 438Z" stroke="black" stroke-linecap="round" stroke-linejoin="round"/>
<path d="M292.981 363L267 347.999L292.981 333L318.962 347.999L292.981 363Z" fill="white" fill-opacity="0.75"/>
<path d="M318.962 378L292.98 393V363L318.962 348V378Z" fill="white" fill-opacity="0.75"/>
<path d="M292.983 393L267.004 378V347.997L292.985 362.997V392.997L292.983 393Z" fill="white" fill-opacity="0.75"/>
<path d="M292.981 363L267 347.999L292.981 333L318.962 347.999L292.981 363Z" stroke="#0D0D0D" stroke-width="0.719649" stroke-linecap="round" stroke-linejoin="round" stroke-dasharray="2.88 2.88"/>
<path d="M318.962 378L292.98 393V363L318.962 348V378Z" stroke="#0D0D0D" stroke-width="0.719649" stroke-linecap="round" stroke-linejoin="round" stroke-dasharray="2.88 2.88"/>
<path d="M292.983 393L267.004 378V347.997L292.985 362.997V392.997L292.983 393Z" stroke="#0D0D0D" stroke-width="0.719649" stroke-linecap="round" stroke-linejoin="round" stroke-dasharray="2.88 2.88"/>
<path d="M292.981 318L267 302.999L292.981 288L318.962 302.999L292.981 318Z" fill="white" fill-opacity="0.75"/>
<path d="M318.962 333L292.98 348V318L318.962 303V333Z" fill="white" fill-opacity="0.75"/>
<path d="M292.983 348L267.004 333V302.997L292.985 317.997V347.997L292.983 348Z" fill="white" fill-opacity="0.75"/>
<path d="M292.981 318L267 302.999L292.981 288L318.962 302.999L292.981 318Z" stroke="#0D0D0D" stroke-width="0.719649" stroke-linecap="round" stroke-linejoin="round" stroke-dasharray="2.88 2.88"/>
<path d="M318.962 333L292.98 348V318L318.962 303V333Z" stroke="#0D0D0D" stroke-width="0.719649" stroke-linecap="round" stroke-linejoin="round" stroke-dasharray="2.88 2.88"/>
<path d="M292.983 348L267.004 333V302.997L292.985 317.997V347.997L292.983 348Z" stroke="#0D0D0D" stroke-width="0.719649" stroke-linecap="round" stroke-linejoin="round" stroke-dasharray="2.88 2.88"/>
<path d="M292.981 273L267 257.999L292.981 243L318.962 257.999L292.981 273Z" fill="white" fill-opacity="0.75"/>
<path d="M318.962 288L292.98 303V273L318.962 258V288Z" fill="white" fill-opacity="0.75"/>
<path d="M292.983 303L267.004 288V257.997L292.985 272.997V302.997L292.983 303Z" fill="white" fill-opacity="0.75"/>
<path d="M292.981 273L267 257.999L292.981 243L318.962 257.999L292.981 273Z" stroke="#0D0D0D" stroke-width="0.719649" stroke-linecap="round" stroke-linejoin="round" stroke-dasharray="2.88 2.88"/>
<path d="M318.962 288L292.98 303V273L318.962 258V288Z" stroke="#0D0D0D" stroke-width="0.719649" stroke-linecap="round" stroke-linejoin="round" stroke-dasharray="2.88 2.88"/>
<path d="M292.983 303L267.004 288V257.997L292.985 272.997V302.997L292.983 303Z" stroke="#0D0D0D" stroke-width="0.719649" stroke-linecap="round" stroke-linejoin="round" stroke-dasharray="2.88 2.88"/>
<path d="M292.981 228L267 212.999L292.981 198L318.962 212.999L292.981 228Z" fill="#B5FF00"/>
<path d="M318.962 243L292.98 258V228L318.962 213V243Z" fill="#B5FF00"/>
<path d="M292.983 258L267.004 243V212.997L292.985 227.997V257.997L292.983 258Z" fill="#B5FF00"/>
<path d="M292.981 228L267 212.999L292.981 198L318.962 212.999L292.981 228Z" stroke="black" stroke-linecap="round" stroke-linejoin="round"/>
<path d="M318.962 243L292.98 258V228L318.962 213V243Z" stroke="black" stroke-linecap="round" stroke-linejoin="round"/>
<path d="M292.983 258L267.004 243V212.997L292.985 227.997V257.997L292.983 258Z" stroke="black" stroke-linecap="round" stroke-linejoin="round"/>
<path d="M256.981 384L231 368.999L256.981 354L282.962 368.999L256.981 384Z" fill="#B5FF00"/>
<path d="M282.962 399L256.98 414V384L282.962 369V399Z" fill="#B5FF00"/>
<path d="M256.983 414L231.004 399V368.997L256.985 383.997V413.997L256.983 414Z" fill="#B5FF00"/>
<path d="M256.981 384L231 368.999L256.981 354L282.962 368.999L256.981 384Z" stroke="black" stroke-linecap="round" stroke-linejoin="round"/>
<path d="M282.962 399L256.98 414V384L282.962 369V399Z" stroke="black" stroke-linecap="round" stroke-linejoin="round"/>
<path d="M256.983 414L231.004 399V368.997L256.985 383.997V413.997L256.983 414Z" stroke="black" stroke-linecap="round" stroke-linejoin="round"/>
<path d="M256.981 339L231 323.999L256.981 309L282.962 323.999L256.981 339Z" fill="#B5FF00"/>
<path d="M282.962 354L256.98 369V339L282.962 324V354Z" fill="#B5FF00"/>
<path d="M256.983 369L231.004 354V323.997L256.985 338.997V368.997L256.983 369Z" fill="#B5FF00"/>
<path d="M256.981 339L231 323.999L256.981 309L282.962 323.999L256.981 339Z" stroke="black" stroke-linecap="round" stroke-linejoin="round"/>
<path d="M282.962 354L256.98 369V339L282.962 324V354Z" stroke="black" stroke-linecap="round" stroke-linejoin="round"/>
<path d="M256.983 369L231.004 354V323.997L256.985 338.997V368.997L256.983 369Z" stroke="black" stroke-linecap="round" stroke-linejoin="round"/>
<path d="M256.981 294L231 278.999L256.981 264L282.962 278.999L256.981 294Z" fill="#B5FF00"/>
<path d="M282.962 309L256.98 324V294L282.962 279V309Z" fill="#B5FF00"/>
<path d="M256.983 324L231.004 309V278.997L256.985 293.997V323.997L256.983 324Z" fill="#B5FF00"/>
<path d="M256.981 294L231 278.999L256.981 264L282.962 278.999L256.981 294Z" stroke="black" stroke-linecap="round" stroke-linejoin="round"/>
<path d="M282.962 309L256.98 324V294L282.962 279V309Z" stroke="black" stroke-linecap="round" stroke-linejoin="round"/>
<path d="M256.983 324L231.004 309V278.997L256.985 293.997V323.997L256.983 324Z" stroke="black" stroke-linecap="round" stroke-linejoin="round"/>
<path d="M256.981 249L231 233.999L256.981 219L282.962 233.999L256.981 249Z" fill="white" fill-opacity="0.75"/>
<path d="M282.962 264L256.98 279V249L282.962 234V264Z" fill="white" fill-opacity="0.75"/>
<path d="M256.983 279L231.004 264V233.997L256.985 248.997V278.997L256.983 279Z" fill="white" fill-opacity="0.75"/>
<path d="M256.981 249L231 233.999L256.981 219L282.962 233.999L256.981 249Z" stroke="#0D0D0D" stroke-width="0.719649" stroke-linecap="round" stroke-linejoin="round" stroke-dasharray="2.88 2.88"/>
<path d="M282.962 264L256.98 279V249L282.962 234V264Z" stroke="#0D0D0D" stroke-width="0.719649" stroke-linecap="round" stroke-linejoin="round" stroke-dasharray="2.88 2.88"/>
<path d="M256.983 279L231.004 264V233.997L256.985 248.997V278.997L256.983 279Z" stroke="#0D0D0D" stroke-width="0.719649" stroke-linecap="round" stroke-linejoin="round" stroke-dasharray="2.88 2.88"/>
<path d="M256.981 429L231 413.999L256.981 399L282.962 413.999L256.981 429Z" fill="white" fill-opacity="0.75"/>
<path d="M282.962 444L256.98 459V429L282.962 414V444Z" fill="white" fill-opacity="0.75"/>
<path d="M256.983 459L231.004 444V413.997L256.985 428.997V458.997L256.983 459Z" fill="white" fill-opacity="0.75"/>
<path d="M256.981 429L231 413.999L256.981 399L282.962 413.999L256.981 429Z" stroke="#0D0D0D" stroke-width="0.719649" stroke-linecap="round" stroke-linejoin="round" stroke-dasharray="2.88 2.88"/>
<path d="M282.962 444L256.98 459V429L282.962 414V444Z" stroke="#0D0D0D" stroke-width="0.719649" stroke-linecap="round" stroke-linejoin="round" stroke-dasharray="2.88 2.88"/>
<path d="M256.983 459L231.004 444V413.997L256.985 428.997V458.997L256.983 459Z" stroke="#0D0D0D" stroke-width="0.719649" stroke-linecap="round" stroke-linejoin="round" stroke-dasharray="2.88 2.88"/>
</svg>
