<svg width="14" height="15" viewBox="0 0 14 15" fill="none" xmlns="http://www.w3.org/2000/svg">
<path d="M11.3332 5.33317C11.3332 7.9105 9.24383 9.99984 6.6665 9.99984M11.3332 5.33317C11.3332 2.75584 9.24383 0.666504 6.6665 0.666504M11.3332 5.33317H1.99984M6.6665 9.99984C4.08918 9.99984 1.99984 7.9105 1.99984 5.33317M6.6665 9.99984C7.83377 8.72194 8.49773 7.06355 8.53378 5.33317C8.49773 3.60279 7.83377 1.9444 6.6665 0.666504M6.6665 9.99984C5.49924 8.72194 4.83649 7.06355 4.80045 5.33317C4.83649 3.60279 5.49924 1.9444 6.6665 0.666504M6.6665 9.99984V11.3332M1.99984 5.33317C1.99984 2.75584 4.08918 0.666504 6.6665 0.666504M7.99984 12.6665C7.99984 13.4029 7.40288 13.9998 6.6665 13.9998C5.93012 13.9998 5.33317 13.4029 5.33317 12.6665M7.99984 12.6665C7.99984 11.9301 7.40288 11.3332 6.6665 11.3332M7.99984 12.6665H12.6665M5.33317 12.6665C5.33317 11.9301 5.93012 11.3332 6.6665 11.3332M5.33317 12.6665H0.666504" stroke="white" stroke-width="1.33333" stroke-linecap="round" stroke-linejoin="round"/>
</svg>
