<svg width="44" height="44" viewBox="0 0 44 44" fill="none" xmlns="http://www.w3.org/2000/svg">
<rect width="44" height="44" rx="8.8" fill="#B5FF00"/>
<g clip-path="url(#clip0_250_229)">
<path d="M23.0029 8.58398C26.1161 8.58409 31.232 10.8013 33.418 13.3594C35.5003 15.7918 36.312 18.4386 36.3193 21.9971C36.3278 26.0988 35.1796 29.148 32.5078 31.7842C30.0559 34.1978 26.4576 35.7128 23.0029 35.7129C21.7634 35.7129 13.7547 35.7129 10.5439 35.7129C9.80735 35.7126 9.2159 35.1155 9.21582 34.3789V9.91797C9.21598 9.18129 9.81311 8.58407 10.5498 8.58398H23.0029ZM23.9541 30.8037C23.9145 30.7343 23.8696 30.739 23.5576 30.8281C23.1115 30.957 22.6701 31.0416 21.6738 31.2002C21.1385 31.2894 20.6924 31.3091 19.0469 31.3389C17.2037 31.3736 17.0444 31.3835 16.8066 31.4775C16.6629 31.537 16.2168 31.8247 15.8154 32.1221C15.409 32.4195 14.9027 32.7965 14.6846 32.9551C14.1595 33.3414 13.8373 33.6485 13.6836 33.9111C13.5648 34.1141 13.5596 34.1348 13.6387 34.209C13.713 34.2833 13.9915 34.2937 16.6582 34.3086C19.7947 34.3284 20.0825 34.3078 20.5186 34.0898C20.7515 33.9709 21.1683 33.6093 22.8037 32.0928C23.7157 31.2502 24.0234 30.9078 23.9541 30.8037ZM34.2383 26.1055C34.3901 25.3677 34.2437 25.3948 32.5996 26.4258C31.8725 26.887 31.0209 27.4246 30.7061 27.6309C27.0647 30.0078 27.0097 30.051 25.0234 32.0264C23.9499 33.0945 23.4293 33.6482 23.4014 33.752C23.3417 34.0016 23.4774 34.0561 24.1611 34.0615C24.9209 34.0615 25.5725 33.9529 26.6904 33.6436C28.8284 33.052 30.5703 31.9503 32.0518 30.2627C33.0665 29.1014 33.9832 27.3645 34.2383 26.1055ZM12.0068 30.5557C11.1867 30.322 11.058 30.3081 10.8564 30.4316C10.5768 30.6013 10.5493 30.7712 10.5723 32.165C10.5952 33.5084 10.6273 33.706 10.8428 33.8252C11.0215 33.9256 11.2554 33.8384 11.6904 33.5088C11.8875 33.3529 12.4102 32.9629 12.8457 32.6328C13.281 32.3075 13.7304 31.9547 13.8408 31.8535C14.3543 31.3813 14.1894 31.1426 13.167 30.8721C12.9332 30.8125 12.4103 30.6703 12.0068 30.5557ZM16.6982 24.499C16.5165 24.39 16.2364 24.3476 16.0391 24.3994C15.7325 24.4774 15.5136 24.6341 14.9473 25.1797C14.6354 25.4812 13.9657 26.0992 13.4619 26.5459C12.2149 27.6526 11.9082 28.0267 11.9082 28.4268C11.9082 28.567 11.9497 28.6551 12.0898 28.79C12.2405 28.9407 12.3966 29.0138 13.0098 29.2061C14.4438 29.6581 15.483 29.8815 16.8184 30.0166C17.1353 30.0478 17.6032 30.0951 17.8682 30.1211C18.1281 30.1522 18.6267 30.1729 18.9746 30.1729C19.9565 30.1728 20.0967 30.0323 19.7227 29.4141C19.6187 29.2478 19.3386 28.7747 19.0996 28.3643C18.8606 27.9538 18.445 27.2525 18.1748 26.8057C17.9098 26.3588 17.6131 25.8492 17.5195 25.6777C17.2078 25.1115 16.8333 24.5769 16.6982 24.499ZM26.3564 15.6514C23.4876 13.7662 18.9229 12.8084 15.6992 14.3867C14.7673 14.8497 14.2509 15.2124 14.043 15.5566C13.8233 15.9129 13.9971 16.4785 13.9971 16.4785L21.3438 28.5586C21.7337 29.1998 22.4228 29.6087 23.1689 29.5293C23.8411 29.4576 24.6818 29.3002 25.377 28.957C30.4869 26.4369 31.1305 18.7636 26.3564 15.6514ZM13.1719 19.4395C13.1028 19.4295 13.0067 19.4893 12.9004 19.6035C12.6826 19.8319 12.5601 20.0898 12.3848 20.6953C12.2466 21.1621 11.9276 22.2107 11.6299 23.1543C11.4971 23.5762 11.4755 23.646 11.332 24.1475C11.2576 24.3857 11.188 24.6141 10.9648 25.3389C10.8266 25.7908 10.753 26.3073 10.8115 26.4414C10.8647 26.5705 10.8752 26.5761 11.04 26.5215C11.1414 26.4864 11.604 26.1039 12.2256 25.543C12.7837 25.0364 13.5222 24.3702 13.873 24.0723C14.9307 23.1586 15.0103 23.0591 15.0156 22.6768C15.0155 22.2996 14.8984 22.0356 14.0801 20.5811C13.7615 20.0207 13.3212 19.4605 13.1719 19.4395ZM30.0635 17.3418C29.9849 17.3418 29.9554 17.3092 29.8965 17.3682C29.3076 17.9585 30.786 19.814 30.7861 22.0371C30.7861 24.594 29.8923 24.821 30.2305 25.7061C30.8976 26.4842 34.4012 23.8363 34.2832 22.7217C34.2488 22.4368 34.1167 22.1907 33.6846 21.6211C32.9405 20.6352 31.277 17.342 30.0635 17.3418ZM11.6084 15.1523C11.2518 14.4713 10.9588 14.3065 10.666 14.6152C10.3895 14.9078 10.3787 15.0422 10.3574 18.3467C10.3308 21.5251 10.3632 22.947 10.459 22.915C10.5184 22.891 11.1295 21.1837 11.3955 20.29C11.6031 19.5873 11.9179 18.2835 12.0244 17.6553C12.1841 16.7183 12.0716 16.0414 11.6084 15.1523ZM32.2471 14.8525C32.2252 14.853 32.1304 14.8912 32.0361 14.9297C31.8042 15.0412 31.4042 15.3656 31.3145 15.5352C31.1985 15.7338 31.219 16.0539 31.3613 16.3301C31.5564 16.7177 33.8768 19.5954 34.2617 19.9346C34.5253 20.1719 34.5881 20.0994 34.5723 19.5713C34.5406 18.205 33.6237 15.9615 32.7695 15.1523C32.5797 14.9731 32.3631 14.8477 32.2471 14.8525ZM13.0332 10.832C11.4813 10.194 11.3891 10.1675 11.1133 10.2324C10.6321 10.3569 10.4052 10.9891 10.6484 11.5244C10.7674 11.7894 11.643 13.2442 12.0107 13.7959C12.319 14.2556 12.6061 14.5205 12.8008 14.5205C12.9644 14.5196 15.4381 13.1963 15.834 12.8984C16.4991 12.3955 16.0994 12.0974 13.0332 10.832ZM29.0273 11.4609C27.9971 10.929 27.5566 10.7993 27.5566 11.0293C27.5568 11.2115 27.892 11.7479 28.5674 12.6484C28.7111 12.8449 28.9939 13.2238 29.1855 13.4873C29.6789 14.1531 30.0382 14.5173 30.2061 14.5176C30.599 14.5176 31.26 13.9091 31.3271 13.4922C31.3703 13.2191 31.2649 13.0134 30.9199 12.6924C30.5222 12.3186 29.8563 11.8826 29.0273 11.4609ZM24.3145 10.0811C23.985 9.92581 23.6789 9.93586 23.3447 10.1006C23.2035 10.1759 22.8414 10.3736 22.5449 10.543C21.9706 10.8678 21.6594 11.0372 20.8262 11.4844C20.2096 11.8186 20.031 11.9649 20.1016 12.0967C20.1823 12.2473 20.6909 12.4593 21.5469 12.6992C22.8978 13.0711 25.025 13.5794 25.6982 13.6924C25.8393 13.7159 26.0652 13.7577 26.1924 13.7812C26.7761 13.9084 27.3983 13.9976 27.4219 13.96C27.5024 13.8188 26.0826 11.8925 25.0107 10.7031C24.6672 10.3219 24.4933 10.1658 24.3145 10.0811ZM17.9746 9.86816C16.3311 9.86817 15.1239 9.88438 15.0723 9.9082C15.0211 9.92801 14.9856 9.96354 14.9932 9.9873C15.0011 10.0151 15.1679 10.1262 15.3623 10.2412C15.5608 10.3563 15.9975 10.611 16.335 10.8135C17.2716 11.3691 17.6133 11.4685 18.1729 11.3535C18.5381 11.2781 18.8761 11.111 19.7178 10.5869C20.0314 10.3924 20.3925 10.1701 20.5195 10.0947C20.6505 10.0233 20.7614 9.93994 20.7734 9.91211C20.7853 9.87638 20.1819 9.86419 17.9746 9.86816Z" fill="#0D0D0D"/>
</g>
<defs>
<clipPath id="clip0_250_229">
<rect width="27.129" height="27.3514" fill="white" transform="translate(9.21582 8.4729)"/>
</clipPath>
</defs>
</svg>
